SplineFontDB: 3.2
FontName: ModernDOS8x16
FullName: Modern DOS 8x16
FamilyName: Modern DOS 8x16
Weight: Book
Copyright: (c) 2009-2019 Jayvee Enaguas (HarvettFox96) <harvettfox96@protonmail.com>. Released under a libre/free public domain licence as Creative Commons Zero (CC0) 1.0. Applies worldwide countries including the Philippines, Spain, etc.
Version: 20190101.02
ItalicAngle: 0
UnderlinePosition: -250
UnderlineWidth: 100
Ascent: 1200
Descent: 400
InvalidEm: 0
sfntRevision: 0x1395051e
LayerCount: 2
Layer: 0 1 "Back" 1
Layer: 1 1 "Fore" 0
XUID: [1021 311 888881458 13565381]
StyleMap: 0x0040
FSType: 0
OS2Version: 4
OS2_WeightWidthSlopeOnly: 0
OS2_UseTypoMetrics: 1
CreationTime: 1384539481
ModificationTime: 1760916979
PfmFamily: 17
TTFWeight: 400
TTFWidth: 5
LineGap: 0
VLineGap: 0
Panose: 2 1 5 9 1 1 1 1 1 1
OS2TypoAscent: 1200
OS2TypoAOffset: 0
OS2TypoDescent: -400
OS2TypoDOffset: 0
OS2TypoLinegap: 0
OS2WinAscent: 1200
OS2WinAOffset: 0
OS2WinDescent: 400
OS2WinDOffset: 0
HheadAscent: 1200
HheadAOffset: 0
HheadDescent: -400
HheadDOffset: 0
OS2SubXSize: 400
OS2SubYSize: 800
OS2SubXOff: 0
OS2SubYOff: 400
OS2SupXSize: 400
OS2SupYSize: 800
OS2SupXOff: 0
OS2SupYOff: -400
OS2StrikeYSize: 100
OS2StrikeYPos: 550
OS2CapHeight: 1000
OS2XHeight: 700
OS2Vendor: 'HF96'
OS2CodePages: 40000001.c0d40000
OS2UnicodeRanges: 800000af.100078eb.00000000.00000000
DEI: 91125
ShortTable: maxp 16
  1
  0
  363
  256
  64
  52
  6
  2
  0
  1
  1
  0
  64
  0
  3
  2
EndShort
LangName: 1033 "+AKkA 2009-2019 Jayvee Enaguas (HarvettFox96) <harvettfox96@protonmail.com>. Released under a libre/free public domain licence as Creative Commons Zero (CC0) 1.0. Applies worldwide countries including the Philippines, Spain, etc." "" "Regular" "ModernDOS8x16:FontForge:20190101.02" "" "20190101.02" "" "" "" "Jayvee Enaguas (HarvettFox96)" "" "" "mailto:harvettfox96@protonmail.com" "Public Domain, Creative Commons Zero (CC0) 1.0" "https://creativecommons.org/licenses/zero/1.0/"
GaspTable: 1 65535 2 0

StartChar: .notdef
Encoding: -1 -1 0
Width: 1600
LayerCount: 2
Back
SplineSet
100 800 m 1,0,-1
 600 800 l 1,1,-1
 600 100 l 1,2,-1
 100 100 l 1,3,-1
 100 800 l 1,0,-1
EndSplineSet
EndChar

StartChar: exclam
Encoding: 33 33 2
Width: 800
Flags: W
LayerCount: 2
Fore
SplineSet
300 1000 m 1,0,-1
 500 1000 l 1,1,-1
 500 900 l 1,2,-1
 600 900 l 1,3,-1
 600 600 l 1,4,-1
 500 600 l 1,5,-1
 500 300 l 1,6,-1
 300 300 l 1,7,-1
 300 600 l 1,8,-1
 200 600 l 1,9,-1
 200 900 l 1,10,-1
 300 900 l 1,11,-1
 300 1000 l 1,0,-1
300 200 m 1,12,-1
 500 200 l 1,13,-1
 500 0 l 1,14,-1
 300 0 l 1,15,-1
 300 200 l 1,12,-1
EndSplineSet
EndChar

StartChar: quotedbl
Encoding: 34 34 3
Width: 800
Flags: W
LayerCount: 2
Fore
SplineSet
100 1100 m 1,0,-1
 300 1100 l 1,1,-1
 300 700 l 1,2,-1
 200 700 l 1,3,-1
 200 900 l 1,4,-1
 100 900 l 1,5,-1
 100 1100 l 1,0,-1
500 1100 m 1,6,-1
 700 1100 l 1,7,-1
 700 700 l 1,8,-1
 600 700 l 1,9,-1
 600 900 l 1,10,-1
 500 900 l 1,11,-1
 500 1100 l 1,6,-1
EndSplineSet
EndChar

StartChar: numbersign
Encoding: 35 35 4
Width: 800
Flags: W
LayerCount: 2
Fore
SplineSet
400 500 m 1,0,-1
 300 500 l 1,1,-1
 300 300 l 1,2,-1
 400 300 l 1,3,-1
 400 500 l 1,0,-1
100 800 m 1,4,-1
 300 800 l 1,5,-1
 300 600 l 1,6,-1
 400 600 l 1,7,-1
 400 800 l 1,8,-1
 600 800 l 1,9,-1
 600 600 l 1,10,-1
 700 600 l 1,11,-1
 700 500 l 1,12,-1
 600 500 l 1,13,-1
 600 300 l 1,14,-1
 700 300 l 1,15,-1
 700 200 l 1,16,-1
 600 200 l 1,17,-1
 600 0 l 1,18,-1
 400 0 l 1,19,-1
 400 200 l 1,20,-1
 300 200 l 1,21,-1
 300 0 l 1,22,-1
 100 0 l 1,23,-1
 100 200 l 1,24,-1
 0 200 l 1,25,-1
 0 300 l 1,26,-1
 100 300 l 1,27,-1
 100 500 l 1,28,-1
 0 500 l 1,29,-1
 0 600 l 1,30,-1
 100 600 l 1,31,-1
 100 800 l 1,4,-1
EndSplineSet
EndChar

StartChar: dollar
Encoding: 36 36 5
Width: 800
Flags: W
LayerCount: 2
Fore
SplineSet
300 800 m 1,0,-1
 200 800 l 1,1,-1
 200 600 l 1,2,-1
 300 600 l 1,3,-1
 300 800 l 1,0,-1
500 300 m 1,4,-1
 400 300 l 1,5,-1
 400 100 l 1,6,-1
 500 100 l 1,7,-1
 500 300 l 1,4,-1
300 1100 m 1,8,-1
 400 1100 l 1,9,-1
 400 900 l 1,10,-1
 600 900 l 1,11,-1
 600 800 l 1,12,-1
 700 800 l 1,13,-1
 700 600 l 1,14,-1
 500 600 l 1,15,-1
 500 800 l 1,16,-1
 400 800 l 1,17,-1
 400 500 l 1,18,-1
 500 500 l 1,19,-1
 500 400 l 1,20,-1
 600 400 l 1,21,-1
 600 300 l 1,22,-1
 700 300 l 1,23,-1
 700 100 l 1,24,-1
 600 100 l 1,25,-1
 600 0 l 1,26,-1
 400 0 l 1,27,-1
 400 -200 l 1,28,-1
 300 -200 l 1,29,-1
 300 0 l 1,30,-1
 100 0 l 1,31,-1
 100 100 l 1,32,-1
 0 100 l 1,33,-1
 0 300 l 1,34,-1
 200 300 l 1,35,-1
 200 100 l 1,36,-1
 300 100 l 1,37,-1
 300 400 l 1,38,-1
 200 400 l 1,39,-1
 200 500 l 1,40,-1
 100 500 l 1,41,-1
 100 600 l 1,42,-1
 0 600 l 1,43,-1
 0 800 l 1,44,-1
 100 800 l 1,45,-1
 100 900 l 1,46,-1
 300 900 l 1,47,-1
 300 1100 l 1,8,-1
EndSplineSet
EndChar

StartChar: percent
Encoding: 37 37 6
Width: 800
Flags: W
LayerCount: 2
Fore
SplineSet
100 1000 m 1,0,-1
 300 1000 l 1,1,-1
 300 900 l 1,2,-1
 100 900 l 1,3,-1
 100 1000 l 1,0,-1
0 900 m 1,4,-1
 100 900 l 1,5,-1
 100 700 l 1,6,-1
 0 700 l 1,7,-1
 0 900 l 1,4,-1
300 900 m 1,8,-1
 400 900 l 1,9,-1
 400 700 l 1,10,-1
 300 700 l 1,11,-1
 300 900 l 1,8,-1
100 700 m 1,12,-1
 300 700 l 1,13,-1
 300 600 l 1,14,-1
 100 600 l 1,15,-1
 100 700 l 1,12,-1
600 900 m 1,16,-1
 700 900 l 1,17,-1
 700 700 l 1,18,-1
 600 700 l 1,19,-1
 600 600 l 1,20,-1
 500 600 l 1,21,-1
 500 500 l 1,22,-1
 400 500 l 1,23,-1
 400 400 l 1,24,-1
 300 400 l 1,25,-1
 300 300 l 1,26,-1
 200 300 l 1,27,-1
 200 200 l 1,28,-1
 100 200 l 1,29,-1
 100 100 l 1,30,-1
 0 100 l 1,31,-1
 0 300 l 1,32,-1
 100 300 l 1,33,-1
 100 400 l 1,34,-1
 200 400 l 1,35,-1
 200 500 l 1,36,-1
 300 500 l 1,37,-1
 300 600 l 1,38,-1
 400 600 l 1,39,-1
 400 700 l 1,40,-1
 500 700 l 1,41,-1
 500 800 l 1,42,-1
 600 800 l 1,43,-1
 600 900 l 1,16,-1
400 400 m 1,44,-1
 600 400 l 1,45,-1
 600 300 l 1,46,-1
 400 300 l 1,47,-1
 400 400 l 1,44,-1
300 300 m 1,48,-1
 400 300 l 1,49,-1
 400 100 l 1,50,-1
 300 100 l 1,51,-1
 300 300 l 1,48,-1
600 300 m 1,52,-1
 700 300 l 1,53,-1
 700 100 l 1,54,-1
 600 100 l 1,55,-1
 600 300 l 1,52,-1
400 100 m 1,56,-1
 600 100 l 1,57,-1
 600 0 l 1,58,-1
 400 0 l 1,59,-1
 400 100 l 1,56,-1
EndSplineSet
EndChar

StartChar: ampersand
Encoding: 38 38 7
Width: 800
Flags: W
LayerCount: 2
Fore
SplineSet
400 900 m 1,0,-1
 300 900 l 1,1,-1
 300 700 l 1,2,-1
 400 700 l 1,3,-1
 400 900 l 1,0,-1
200 1000 m 1,4,-1
 500 1000 l 1,5,-1
 500 900 l 1,6,-1
 600 900 l 1,7,-1
 600 700 l 1,8,-1
 500 700 l 1,9,-1
 500 600 l 1,10,-1
 400 600 l 1,11,-1
 400 400 l 1,12,-1
 500 400 l 1,13,-1
 500 500 l 1,14,-1
 700 500 l 1,15,-1
 700 400 l 1,16,-1
 600 400 l 1,17,-1
 600 100 l 1,18,-1
 700 100 l 1,19,-1
 700 0 l 1,20,-1
 500 0 l 1,21,-1
 500 100 l 1,22,-1
 400 100 l 1,23,-1
 400 300 l 1,24,-1
 300 300 l 1,25,-1
 300 400 l 1,26,-1
 200 400 l 1,27,-1
 200 100 l 1,28,-1
 400 100 l 1,29,-1
 400 0 l 1,30,-1
 100 0 l 1,31,-1
 100 100 l 1,32,-1
 0 100 l 1,33,-1
 0 400 l 1,34,-1
 100 400 l 1,35,-1
 100 500 l 1,36,-1
 200 500 l 1,37,-1
 200 700 l 1,38,-1
 100 700 l 1,39,-1
 100 900 l 1,40,-1
 200 900 l 1,41,-1
 200 1000 l 1,4,-1
EndSplineSet
EndChar

StartChar: quotesingle
Encoding: 39 39 8
Width: 800
Flags: W
LayerCount: 2
Fore
SplineSet
300 1100 m 1,0,-1
 500 1100 l 1,1,-1
 500 800 l 1,2,-1
 400 800 l 1,3,-1
 400 900 l 1,4,-1
 300 900 l 1,5,-1
 300 1100 l 1,0,-1
300 800 m 1,6,-1
 400 800 l 1,7,-1
 400 700 l 1,8,-1
 300 700 l 1,9,-1
 300 800 l 1,6,-1
EndSplineSet
EndChar

StartChar: parenleft
Encoding: 40 40 9
Width: 800
Flags: W
LayerCount: 2
Fore
SplineSet
400 1000 m 1,0,-1
 600 1000 l 1,1,-1
 600 900 l 1,2,-1
 500 900 l 1,3,-1
 500 800 l 1,4,-1
 400 800 l 1,5,-1
 400 200 l 1,6,-1
 500 200 l 1,7,-1
 500 100 l 1,8,-1
 600 100 l 1,9,-1
 600 0 l 1,10,-1
 400 0 l 1,11,-1
 400 100 l 1,12,-1
 300 100 l 1,13,-1
 300 200 l 1,14,-1
 200 200 l 1,15,-1
 200 800 l 1,16,-1
 300 800 l 1,17,-1
 300 900 l 1,18,-1
 400 900 l 1,19,-1
 400 1000 l 1,0,-1
EndSplineSet
EndChar

StartChar: parenright
Encoding: 41 41 10
Width: 800
Flags: W
LayerCount: 2
Fore
SplineSet
200 1000 m 1,0,-1
 400 1000 l 1,1,-1
 400 900 l 1,2,-1
 500 900 l 1,3,-1
 500 800 l 1,4,-1
 600 800 l 1,5,-1
 600 200 l 1,6,-1
 500 200 l 1,7,-1
 500 100 l 1,8,-1
 400 100 l 1,9,-1
 400 0 l 1,10,-1
 200 0 l 1,11,-1
 200 100 l 1,12,-1
 300 100 l 1,13,-1
 300 200 l 1,14,-1
 400 200 l 1,15,-1
 400 800 l 1,16,-1
 300 800 l 1,17,-1
 300 900 l 1,18,-1
 200 900 l 1,19,-1
 200 1000 l 1,0,-1
EndSplineSet
EndChar

StartChar: asterisk
Encoding: 42 42 11
Width: 800
Flags: W
LayerCount: 2
Fore
SplineSet
100 700 m 1,0,-1
 300 700 l 1,1,-1
 300 600 l 1,2,-1
 500 600 l 1,3,-1
 500 700 l 1,4,-1
 700 700 l 1,5,-1
 700 600 l 1,6,-1
 600 600 l 1,7,-1
 600 500 l 1,8,-1
 800 500 l 1,9,-1
 800 400 l 1,10,-1
 600 400 l 1,11,-1
 600 300 l 1,12,-1
 700 300 l 1,13,-1
 700 200 l 1,14,-1
 500 200 l 1,15,-1
 500 300 l 1,16,-1
 300 300 l 1,17,-1
 300 200 l 1,18,-1
 100 200 l 1,19,-1
 100 300 l 1,20,-1
 200 300 l 1,21,-1
 200 400 l 1,22,-1
 0 400 l 1,23,-1
 0 500 l 1,24,-1
 200 500 l 1,25,-1
 200 600 l 1,26,-1
 100 600 l 1,27,-1
 100 700 l 1,0,-1
EndSplineSet
EndChar

StartChar: plus
Encoding: 43 43 12
Width: 800
Flags: W
LayerCount: 2
Fore
SplineSet
300 700 m 1,0,-1
 500 700 l 1,1,-1
 500 500 l 1,2,-1
 700 500 l 1,3,-1
 700 400 l 1,4,-1
 500 400 l 1,5,-1
 500 200 l 1,6,-1
 300 200 l 1,7,-1
 300 400 l 1,8,-1
 100 400 l 1,9,-1
 100 500 l 1,10,-1
 300 500 l 1,11,-1
 300 700 l 1,0,-1
EndSplineSet
EndChar

StartChar: comma
Encoding: 44 44 13
Width: 800
Flags: W
LayerCount: 2
Fore
SplineSet
200 200 m 1,0,-1
 400 200 l 1,1,-1
 400 -100 l 1,2,-1
 300 -100 l 1,3,-1
 300 0 l 1,4,-1
 200 0 l 1,5,-1
 200 200 l 1,0,-1
200 -100 m 1,6,-1
 300 -100 l 1,7,-1
 300 -200 l 1,8,-1
 200 -200 l 1,9,-1
 200 -100 l 1,6,-1
EndSplineSet
EndChar

StartChar: hyphen
Encoding: 45 45 14
Width: 800
Flags: W
LayerCount: 2
Fore
SplineSet
0 500 m 1,0,-1
 700 500 l 1,1,-1
 700 400 l 1,2,-1
 0 400 l 1,3,-1
 0 500 l 1,0,-1
EndSplineSet
EndChar

StartChar: period
Encoding: 46 46 15
Width: 800
Flags: W
LayerCount: 2
Fore
SplineSet
200 200 m 1,0,-1
 400 200 l 1,1,-1
 400 0 l 1,2,-1
 200 0 l 1,3,-1
 200 200 l 1,0,-1
EndSplineSet
EndChar

StartChar: slash
Encoding: 47 47 16
Width: 800
Flags: W
LayerCount: 2
Fore
SplineSet
600 900 m 1,0,-1
 700 900 l 1,1,-1
 700 700 l 1,2,-1
 600 700 l 1,3,-1
 600 600 l 1,4,-1
 500 600 l 1,5,-1
 500 500 l 1,6,-1
 400 500 l 1,7,-1
 400 400 l 1,8,-1
 300 400 l 1,9,-1
 300 300 l 1,10,-1
 200 300 l 1,11,-1
 200 200 l 1,12,-1
 100 200 l 1,13,-1
 100 100 l 1,14,-1
 0 100 l 1,15,-1
 0 300 l 1,16,-1
 100 300 l 1,17,-1
 100 400 l 1,18,-1
 200 400 l 1,19,-1
 200 500 l 1,20,-1
 300 500 l 1,21,-1
 300 600 l 1,22,-1
 400 600 l 1,23,-1
 400 700 l 1,24,-1
 500 700 l 1,25,-1
 500 800 l 1,26,-1
 600 800 l 1,27,-1
 600 900 l 1,0,-1
EndSplineSet
EndChar

StartChar: zero
Encoding: 48 48 17
Width: 800
Flags: W
LayerCount: 2
Fore
SplineSet
500 900 m 1,0,-1
 200 900 l 1,1,-1
 200 500 l 1,2,-1
 300 500 l 1,3,-1
 300 600 l 1,4,-1
 400 600 l 1,5,-1
 400 700 l 1,6,-1
 500 700 l 1,7,-1
 500 900 l 1,0,-1
500 500 m 1,8,-1
 400 500 l 1,9,-1
 400 400 l 1,10,-1
 300 400 l 1,11,-1
 300 300 l 1,12,-1
 200 300 l 1,13,-1
 200 100 l 1,14,-1
 500 100 l 1,15,-1
 500 500 l 1,8,-1
100 1000 m 1,16,-1
 600 1000 l 1,17,-1
 600 900 l 1,18,-1
 700 900 l 1,19,-1
 700 100 l 1,20,-1
 600 100 l 1,21,-1
 600 0 l 1,22,-1
 100 0 l 1,23,-1
 100 100 l 1,24,-1
 0 100 l 1,25,-1
 0 900 l 1,26,-1
 100 900 l 1,27,-1
 100 1000 l 1,16,-1
EndSplineSet
EndChar

StartChar: one
Encoding: 49 49 18
Width: 800
Flags: W
LayerCount: 2
Fore
SplineSet
300 1000 m 1,0,-1
 500 1000 l 1,1,-1
 500 100 l 1,2,-1
 700 100 l 1,3,-1
 700 0 l 1,4,-1
 100 0 l 1,5,-1
 100 100 l 1,6,-1
 300 100 l 1,7,-1
 300 700 l 1,8,-1
 100 700 l 1,9,-1
 100 800 l 1,10,-1
 200 800 l 1,11,-1
 200 900 l 1,12,-1
 300 900 l 1,13,-1
 300 1000 l 1,0,-1
EndSplineSet
EndChar

StartChar: two
Encoding: 50 50 19
Width: 800
Flags: W
LayerCount: 2
Fore
SplineSet
100 1000 m 1,0,-1
 600 1000 l 1,1,-1
 600 900 l 1,2,-1
 700 900 l 1,3,-1
 700 700 l 1,4,-1
 600 700 l 1,5,-1
 600 600 l 1,6,-1
 500 600 l 1,7,-1
 500 500 l 1,8,-1
 400 500 l 1,9,-1
 400 400 l 1,10,-1
 300 400 l 1,11,-1
 300 300 l 1,12,-1
 200 300 l 1,13,-1
 200 100 l 1,14,-1
 500 100 l 1,15,-1
 500 200 l 1,16,-1
 700 200 l 1,17,-1
 700 0 l 1,18,-1
 0 0 l 1,19,-1
 0 300 l 1,20,-1
 100 300 l 1,21,-1
 100 400 l 1,22,-1
 200 400 l 1,23,-1
 200 500 l 1,24,-1
 300 500 l 1,25,-1
 300 600 l 1,26,-1
 400 600 l 1,27,-1
 400 700 l 1,28,-1
 500 700 l 1,29,-1
 500 900 l 1,30,-1
 200 900 l 1,31,-1
 200 800 l 1,32,-1
 0 800 l 1,33,-1
 0 900 l 1,34,-1
 100 900 l 1,35,-1
 100 1000 l 1,0,-1
EndSplineSet
EndChar

StartChar: three
Encoding: 51 51 20
Width: 800
Flags: W
LayerCount: 2
Fore
SplineSet
100 1000 m 1,0,-1
 600 1000 l 1,1,-1
 600 900 l 1,2,-1
 700 900 l 1,3,-1
 700 600 l 1,4,-1
 600 600 l 1,5,-1
 600 500 l 1,6,-1
 700 500 l 1,7,-1
 700 100 l 1,8,-1
 600 100 l 1,9,-1
 600 0 l 1,10,-1
 100 0 l 1,11,-1
 100 100 l 1,12,-1
 0 100 l 1,13,-1
 0 200 l 1,14,-1
 200 200 l 1,15,-1
 200 100 l 1,16,-1
 500 100 l 1,17,-1
 500 500 l 1,18,-1
 200 500 l 1,19,-1
 200 600 l 1,20,-1
 500 600 l 1,21,-1
 500 900 l 1,22,-1
 200 900 l 1,23,-1
 200 800 l 1,24,-1
 0 800 l 1,25,-1
 0 900 l 1,26,-1
 100 900 l 1,27,-1
 100 1000 l 1,0,-1
EndSplineSet
EndChar

StartChar: four
Encoding: 52 52 21
Width: 800
Flags: W
LayerCount: 2
Fore
SplineSet
400 1000 m 1,0,-1
 600 1000 l 1,1,-1
 600 400 l 1,2,-1
 700 400 l 1,3,-1
 700 300 l 1,4,-1
 600 300 l 1,5,-1
 600 100 l 1,6,-1
 700 100 l 1,7,-1
 700 0 l 1,8,-1
 300 0 l 1,9,-1
 300 100 l 1,10,-1
 400 100 l 1,11,-1
 400 300 l 1,12,-1
 0 300 l 1,13,-1
 0 600 l 1,14,-1
 100 600 l 1,15,-1
 100 700 l 1,16,-1
 200 700 l 1,17,-1
 200 800 l 1,18,-1
 300 800 l 1,19,-1
 300 900 l 1,20,-1
 400 900 l 1,21,-1
 400 1000 l 1,0,-1
400 700 m 1,22,-1
 300 700 l 1,23,-1
 300 600 l 1,24,-1
 200 600 l 1,25,-1
 200 400 l 1,26,-1
 400 400 l 1,27,-1
 400 700 l 1,22,-1
EndSplineSet
EndChar

StartChar: five
Encoding: 53 53 22
Width: 800
Flags: W
LayerCount: 2
Fore
SplineSet
0 1000 m 1,0,-1
 700 1000 l 1,1,-1
 700 900 l 1,2,-1
 200 900 l 1,3,-1
 200 600 l 1,4,-1
 600 600 l 1,5,-1
 600 500 l 1,6,-1
 700 500 l 1,7,-1
 700 100 l 1,8,-1
 600 100 l 1,9,-1
 600 0 l 1,10,-1
 100 0 l 1,11,-1
 100 100 l 1,12,-1
 0 100 l 1,13,-1
 0 200 l 1,14,-1
 200 200 l 1,15,-1
 200 100 l 1,16,-1
 500 100 l 1,17,-1
 500 500 l 1,18,-1
 0 500 l 1,19,-1
 0 1000 l 1,0,-1
EndSplineSet
EndChar

StartChar: six
Encoding: 54 54 23
Width: 800
Flags: W
LayerCount: 2
Fore
SplineSet
100 1000 m 1,0,-1
 600 1000 l 1,1,-1
 600 900 l 1,2,-1
 700 900 l 1,3,-1
 700 800 l 1,4,-1
 500 800 l 1,5,-1
 500 900 l 1,6,-1
 200 900 l 1,7,-1
 200 600 l 1,8,-1
 600 600 l 1,9,-1
 600 500 l 1,10,-1
 700 500 l 1,11,-1
 700 100 l 1,12,-1
 600 100 l 1,13,-1
 600 0 l 1,14,-1
 100 0 l 1,15,-1
 100 100 l 1,16,-1
 0 100 l 1,17,-1
 0 900 l 1,18,-1
 100 900 l 1,19,-1
 100 1000 l 1,0,-1
500 500 m 1,20,-1
 200 500 l 1,21,-1
 200 100 l 1,22,-1
 500 100 l 1,23,-1
 500 500 l 1,20,-1
EndSplineSet
EndChar

StartChar: seven
Encoding: 55 55 24
Width: 800
Flags: W
LayerCount: 2
Fore
SplineSet
0 1000 m 1,0,-1
 700 1000 l 1,1,-1
 700 600 l 1,2,-1
 600 600 l 1,3,-1
 600 500 l 1,4,-1
 500 500 l 1,5,-1
 500 400 l 1,6,-1
 400 400 l 1,7,-1
 400 0 l 1,8,-1
 200 0 l 1,9,-1
 200 400 l 1,10,-1
 300 400 l 1,11,-1
 300 500 l 1,12,-1
 400 500 l 1,13,-1
 400 600 l 1,14,-1
 500 600 l 1,15,-1
 500 900 l 1,16,-1
 200 900 l 1,17,-1
 200 800 l 1,18,-1
 0 800 l 1,19,-1
 0 1000 l 1,0,-1
EndSplineSet
EndChar

StartChar: eight
Encoding: 56 56 25
Width: 800
Flags: W
LayerCount: 2
Fore
SplineSet
500 900 m 1,0,-1
 200 900 l 1,1,-1
 200 600 l 1,2,-1
 500 600 l 1,3,-1
 500 900 l 1,0,-1
500 500 m 1,4,-1
 200 500 l 1,5,-1
 200 100 l 1,6,-1
 500 100 l 1,7,-1
 500 500 l 1,4,-1
100 1000 m 1,8,-1
 600 1000 l 1,9,-1
 600 900 l 1,10,-1
 700 900 l 1,11,-1
 700 600 l 1,12,-1
 600 600 l 1,13,-1
 600 500 l 1,14,-1
 700 500 l 1,15,-1
 700 100 l 1,16,-1
 600 100 l 1,17,-1
 600 0 l 1,18,-1
 100 0 l 1,19,-1
 100 100 l 1,20,-1
 0 100 l 1,21,-1
 0 500 l 1,22,-1
 100 500 l 1,23,-1
 100 600 l 1,24,-1
 0 600 l 1,25,-1
 0 900 l 1,26,-1
 100 900 l 1,27,-1
 100 1000 l 1,8,-1
EndSplineSet
EndChar

StartChar: nine
Encoding: 57 57 26
Width: 800
Flags: W
LayerCount: 2
Fore
SplineSet
500 900 m 1,0,-1
 200 900 l 1,1,-1
 200 500 l 1,2,-1
 500 500 l 1,3,-1
 500 900 l 1,0,-1
100 1000 m 1,4,-1
 600 1000 l 1,5,-1
 600 900 l 1,6,-1
 700 900 l 1,7,-1
 700 100 l 1,8,-1
 600 100 l 1,9,-1
 600 0 l 1,10,-1
 100 0 l 1,11,-1
 100 100 l 1,12,-1
 0 100 l 1,13,-1
 0 200 l 1,14,-1
 200 200 l 1,15,-1
 200 100 l 1,16,-1
 500 100 l 1,17,-1
 500 400 l 1,18,-1
 100 400 l 1,19,-1
 100 500 l 1,20,-1
 0 500 l 1,21,-1
 0 900 l 1,22,-1
 100 900 l 1,23,-1
 100 1000 l 1,4,-1
EndSplineSet
EndChar

StartChar: less
Encoding: 60 60 29
Width: 800
Flags: W
LayerCount: 2
Fore
SplineSet
500 900 m 1,0,-1
 700 900 l 1,1,-1
 700 800 l 1,2,-1
 600 800 l 1,3,-1
 600 700 l 1,4,-1
 500 700 l 1,5,-1
 500 600 l 1,6,-1
 400 600 l 1,7,-1
 400 500 l 1,8,-1
 300 500 l 1,9,-1
 300 400 l 1,10,-1
 400 400 l 1,11,-1
 400 300 l 1,12,-1
 500 300 l 1,13,-1
 500 200 l 1,14,-1
 600 200 l 1,15,-1
 600 100 l 1,16,-1
 700 100 l 1,17,-1
 700 0 l 1,18,-1
 500 0 l 1,19,-1
 500 100 l 1,20,-1
 400 100 l 1,21,-1
 400 200 l 1,22,-1
 300 200 l 1,23,-1
 300 300 l 1,24,-1
 200 300 l 1,25,-1
 200 400 l 1,26,-1
 100 400 l 1,27,-1
 100 500 l 1,28,-1
 200 500 l 1,29,-1
 200 600 l 1,30,-1
 300 600 l 1,31,-1
 300 700 l 1,32,-1
 400 700 l 1,33,-1
 400 800 l 1,34,-1
 500 800 l 1,35,-1
 500 900 l 1,0,-1
EndSplineSet
EndChar

StartChar: equal
Encoding: 61 61 30
Width: 800
Flags: W
LayerCount: 2
Fore
SplineSet
100 700 m 1,0,-1
 700 700 l 1,1,-1
 700 600 l 1,2,-1
 100 600 l 1,3,-1
 100 700 l 1,0,-1
100 400 m 1,4,-1
 700 400 l 1,5,-1
 700 300 l 1,6,-1
 100 300 l 1,7,-1
 100 400 l 1,4,-1
EndSplineSet
EndChar

StartChar: greater
Encoding: 62 62 31
Width: 800
Flags: W
LayerCount: 2
Fore
SplineSet
100 900 m 1,0,-1
 300 900 l 1,1,-1
 300 800 l 1,2,-1
 400 800 l 1,3,-1
 400 700 l 1,4,-1
 500 700 l 1,5,-1
 500 600 l 1,6,-1
 600 600 l 1,7,-1
 600 500 l 1,8,-1
 700 500 l 1,9,-1
 700 400 l 1,10,-1
 600 400 l 1,11,-1
 600 300 l 1,12,-1
 500 300 l 1,13,-1
 500 200 l 1,14,-1
 400 200 l 1,15,-1
 400 100 l 1,16,-1
 300 100 l 1,17,-1
 300 0 l 1,18,-1
 100 0 l 1,19,-1
 100 100 l 1,20,-1
 200 100 l 1,21,-1
 200 200 l 1,22,-1
 300 200 l 1,23,-1
 300 300 l 1,24,-1
 400 300 l 1,25,-1
 400 400 l 1,26,-1
 500 400 l 1,27,-1
 500 500 l 1,28,-1
 400 500 l 1,29,-1
 400 600 l 1,30,-1
 300 600 l 1,31,-1
 300 700 l 1,32,-1
 200 700 l 1,33,-1
 200 800 l 1,34,-1
 100 800 l 1,35,-1
 100 900 l 1,0,-1
EndSplineSet
EndChar

StartChar: question
Encoding: 63 63 32
Width: 800
Flags: W
LayerCount: 2
Fore
SplineSet
100 1000 m 1,0,-1
 600 1000 l 1,1,-1
 600 900 l 1,2,-1
 700 900 l 1,3,-1
 700 600 l 1,4,-1
 600 600 l 1,5,-1
 600 500 l 1,6,-1
 500 500 l 1,7,-1
 500 300 l 1,8,-1
 300 300 l 1,9,-1
 300 500 l 1,10,-1
 400 500 l 1,11,-1
 400 600 l 1,12,-1
 500 600 l 1,13,-1
 500 900 l 1,14,-1
 200 900 l 1,15,-1
 200 700 l 1,16,-1
 0 700 l 1,17,-1
 0 900 l 1,18,-1
 100 900 l 1,19,-1
 100 1000 l 1,0,-1
300 200 m 1,20,-1
 500 200 l 1,21,-1
 500 0 l 1,22,-1
 300 0 l 1,23,-1
 300 200 l 1,20,-1
EndSplineSet
EndChar

StartChar: at
Encoding: 64 64 33
Width: 800
Flags: W
LayerCount: 2
Fore
SplineSet
200 900 m 1,0,-1
 600 900 l 1,1,-1
 600 800 l 1,2,-1
 200 800 l 1,3,-1
 200 900 l 1,0,-1
100 800 m 1,4,-1
 200 800 l 1,5,-1
 200 700 l 1,6,-1
 100 700 l 1,7,-1
 100 800 l 1,4,-1
600 800 m 1,8,-1
 700 800 l 1,9,-1
 700 700 l 1,10,-1
 600 700 l 1,11,-1
 600 800 l 1,8,-1
700 700 m 1,12,-1
 800 700 l 1,13,-1
 800 300 l 1,14,-1
 700 300 l 1,15,-1
 700 700 l 1,12,-1
0 700 m 1,16,-1
 100 700 l 1,17,-1
 100 200 l 1,18,-1
 0 200 l 1,19,-1
 0 700 l 1,16,-1
200 600 m 1,20,-1
 300 600 l 1,21,-1
 300 300 l 1,22,-1
 400 300 l 1,23,-1
 400 200 l 1,24,-1
 200 200 l 1,25,-1
 200 600 l 1,20,-1
300 700 m 1,26,-1
 600 700 l 1,27,-1
 600 300 l 1,28,-1
 700 300 l 1,29,-1
 700 200 l 1,30,-1
 500 200 l 1,31,-1
 500 300 l 1,32,-1
 400 300 l 1,33,-1
 400 400 l 1,34,-1
 500 400 l 1,35,-1
 500 600 l 1,36,-1
 300 600 l 1,37,-1
 300 700 l 1,26,-1
100 200 m 1,38,-1
 200 200 l 1,39,-1
 200 100 l 1,40,-1
 100 100 l 1,41,-1
 100 200 l 1,38,-1
200 100 m 1,42,-1
 600 100 l 1,43,-1
 600 0 l 1,44,-1
 200 0 l 1,45,-1
 200 100 l 1,42,-1
EndSplineSet
EndChar

StartChar: A
Encoding: 65 65 34
Width: 800
Flags: W
LayerCount: 2
Fore
SplineSet
400 900 m 1,0,-1
 300 900 l 1,1,-1
 300 800 l 1,2,-1
 200 800 l 1,3,-1
 200 500 l 1,4,-1
 500 500 l 1,5,-1
 500 800 l 1,6,-1
 400 800 l 1,7,-1
 400 900 l 1,0,-1
200 1000 m 1,8,-1
 500 1000 l 1,9,-1
 500 900 l 1,10,-1
 600 900 l 1,11,-1
 600 800 l 1,12,-1
 700 800 l 1,13,-1
 700 0 l 1,14,-1
 500 0 l 1,15,-1
 500 400 l 1,16,-1
 200 400 l 1,17,-1
 200 0 l 1,18,-1
 0 0 l 1,19,-1
 0 800 l 1,20,-1
 100 800 l 1,21,-1
 100 900 l 1,22,-1
 200 900 l 1,23,-1
 200 1000 l 1,8,-1
EndSplineSet
EndChar

StartChar: B
Encoding: 66 66 35
Width: 800
Flags: W
LayerCount: 2
Fore
SplineSet
500 900 m 1,0,-1
 300 900 l 1,1,-1
 300 600 l 1,2,-1
 500 600 l 1,3,-1
 500 900 l 1,0,-1
500 500 m 1,4,-1
 300 500 l 1,5,-1
 300 100 l 1,6,-1
 500 100 l 1,7,-1
 500 500 l 1,4,-1
0 1000 m 1,8,-1
 600 1000 l 1,9,-1
 600 900 l 1,10,-1
 700 900 l 1,11,-1
 700 600 l 1,12,-1
 600 600 l 1,13,-1
 600 500 l 1,14,-1
 700 500 l 1,15,-1
 700 100 l 1,16,-1
 600 100 l 1,17,-1
 600 0 l 1,18,-1
 0 0 l 1,19,-1
 0 100 l 1,20,-1
 100 100 l 1,21,-1
 100 900 l 1,22,-1
 0 900 l 1,23,-1
 0 1000 l 1,8,-1
EndSplineSet
EndChar

StartChar: C
Encoding: 67 67 36
Width: 800
Flags: W
LayerCount: 2
Fore
SplineSet
100 1000 m 1,0,-1
 600 1000 l 1,1,-1
 600 900 l 1,2,-1
 700 900 l 1,3,-1
 700 700 l 1,4,-1
 500 700 l 1,5,-1
 500 900 l 1,6,-1
 200 900 l 1,7,-1
 200 100 l 1,8,-1
 500 100 l 1,9,-1
 500 300 l 1,10,-1
 700 300 l 1,11,-1
 700 100 l 1,12,-1
 600 100 l 1,13,-1
 600 0 l 1,14,-1
 100 0 l 1,15,-1
 100 100 l 1,16,-1
 0 100 l 1,17,-1
 0 900 l 1,18,-1
 100 900 l 1,19,-1
 100 1000 l 1,0,-1
EndSplineSet
EndChar

StartChar: D
Encoding: 68 68 37
Width: 800
Flags: W
LayerCount: 2
Fore
SplineSet
500 900 m 1,0,-1
 300 900 l 1,1,-1
 300 100 l 1,2,-1
 500 100 l 1,3,-1
 500 900 l 1,0,-1
0 1000 m 1,4,-1
 600 1000 l 1,5,-1
 600 900 l 1,6,-1
 700 900 l 1,7,-1
 700 100 l 1,8,-1
 600 100 l 1,9,-1
 600 0 l 1,10,-1
 0 0 l 1,11,-1
 0 100 l 1,12,-1
 100 100 l 1,13,-1
 100 900 l 1,14,-1
 0 900 l 1,15,-1
 0 1000 l 1,4,-1
EndSplineSet
EndChar

StartChar: E
Encoding: 69 69 38
Width: 800
Flags: W
LayerCount: 2
Fore
SplineSet
0 1000 m 1,0,-1
 700 1000 l 1,1,-1
 700 700 l 1,2,-1
 600 700 l 1,3,-1
 600 800 l 1,4,-1
 500 800 l 1,5,-1
 500 900 l 1,6,-1
 300 900 l 1,7,-1
 300 600 l 1,8,-1
 400 600 l 1,9,-1
 400 700 l 1,10,-1
 500 700 l 1,11,-1
 500 300 l 1,12,-1
 400 300 l 1,13,-1
 400 400 l 1,14,-1
 300 400 l 1,15,-1
 300 100 l 1,16,-1
 500 100 l 1,17,-1
 500 200 l 1,18,-1
 600 200 l 1,19,-1
 600 300 l 1,20,-1
 700 300 l 1,21,-1
 700 0 l 1,22,-1
 0 0 l 1,23,-1
 0 100 l 1,24,-1
 100 100 l 1,25,-1
 100 900 l 1,26,-1
 0 900 l 1,27,-1
 0 1000 l 1,0,-1
EndSplineSet
EndChar

StartChar: F
Encoding: 70 70 39
Width: 800
Flags: W
LayerCount: 2
Fore
SplineSet
0 1000 m 1,0,-1
 700 1000 l 1,1,-1
 700 700 l 1,2,-1
 600 700 l 1,3,-1
 600 800 l 1,4,-1
 500 800 l 1,5,-1
 500 900 l 1,6,-1
 300 900 l 1,7,-1
 300 600 l 1,8,-1
 400 600 l 1,9,-1
 400 700 l 1,10,-1
 500 700 l 1,11,-1
 500 300 l 1,12,-1
 400 300 l 1,13,-1
 400 400 l 1,14,-1
 300 400 l 1,15,-1
 300 100 l 1,16,-1
 400 100 l 1,17,-1
 400 0 l 1,18,-1
 0 0 l 1,19,-1
 0 100 l 1,20,-1
 100 100 l 1,21,-1
 100 900 l 1,22,-1
 0 900 l 1,23,-1
 0 1000 l 1,0,-1
EndSplineSet
EndChar

StartChar: G
Encoding: 71 71 40
Width: 800
Flags: W
LayerCount: 2
Fore
SplineSet
100 1000 m 1,0,-1
 600 1000 l 1,1,-1
 600 900 l 1,2,-1
 700 900 l 1,3,-1
 700 700 l 1,4,-1
 500 700 l 1,5,-1
 500 900 l 1,6,-1
 200 900 l 1,7,-1
 200 100 l 1,8,-1
 500 100 l 1,9,-1
 500 400 l 1,10,-1
 400 400 l 1,11,-1
 400 500 l 1,12,-1
 700 500 l 1,13,-1
 700 0 l 1,14,-1
 100 0 l 1,15,-1
 100 100 l 1,16,-1
 0 100 l 1,17,-1
 0 900 l 1,18,-1
 100 900 l 1,19,-1
 100 1000 l 1,0,-1
EndSplineSet
EndChar

StartChar: H
Encoding: 72 72 41
Width: 800
Flags: W
LayerCount: 2
Fore
SplineSet
0 1000 m 1,0,-1
 200 1000 l 1,1,-1
 200 600 l 1,2,-1
 500 600 l 1,3,-1
 500 1000 l 1,4,-1
 700 1000 l 1,5,-1
 700 0 l 1,6,-1
 500 0 l 1,7,-1
 500 500 l 1,8,-1
 200 500 l 1,9,-1
 200 0 l 1,10,-1
 0 0 l 1,11,-1
 0 1000 l 1,0,-1
EndSplineSet
EndChar

StartChar: I
Encoding: 73 73 42
Width: 800
Flags: W
LayerCount: 2
Fore
SplineSet
200 1000 m 1,0,-1
 600 1000 l 1,1,-1
 600 900 l 1,2,-1
 500 900 l 1,3,-1
 500 100 l 1,4,-1
 600 100 l 1,5,-1
 600 0 l 1,6,-1
 200 0 l 1,7,-1
 200 100 l 1,8,-1
 300 100 l 1,9,-1
 300 900 l 1,10,-1
 200 900 l 1,11,-1
 200 1000 l 1,0,-1
EndSplineSet
EndChar

StartChar: J
Encoding: 74 74 43
Width: 800
Flags: W
LayerCount: 2
Fore
SplineSet
300 1000 m 1,0,-1
 700 1000 l 1,1,-1
 700 900 l 1,2,-1
 600 900 l 1,3,-1
 600 100 l 1,4,-1
 500 100 l 1,5,-1
 500 0 l 1,6,-1
 100 0 l 1,7,-1
 100 100 l 1,8,-1
 0 100 l 1,9,-1
 0 300 l 1,10,-1
 200 300 l 1,11,-1
 200 100 l 1,12,-1
 400 100 l 1,13,-1
 400 900 l 1,14,-1
 300 900 l 1,15,-1
 300 1000 l 1,0,-1
EndSplineSet
EndChar

StartChar: K
Encoding: 75 75 44
Width: 800
Flags: W
LayerCount: 2
Fore
SplineSet
0 1000 m 1,0,-1
 300 1000 l 1,1,-1
 300 600 l 1,2,-1
 400 600 l 1,3,-1
 400 700 l 1,4,-1
 500 700 l 1,5,-1
 500 1000 l 1,6,-1
 700 1000 l 1,7,-1
 700 700 l 1,8,-1
 600 700 l 1,9,-1
 600 600 l 1,10,-1
 500 600 l 1,11,-1
 500 400 l 1,12,-1
 600 400 l 1,13,-1
 600 300 l 1,14,-1
 700 300 l 1,15,-1
 700 0 l 1,16,-1
 500 0 l 1,17,-1
 500 300 l 1,18,-1
 400 300 l 1,19,-1
 400 400 l 1,20,-1
 300 400 l 1,21,-1
 300 0 l 1,22,-1
 0 0 l 1,23,-1
 0 100 l 1,24,-1
 100 100 l 1,25,-1
 100 900 l 1,26,-1
 0 900 l 1,27,-1
 0 1000 l 1,0,-1
EndSplineSet
EndChar

StartChar: L
Encoding: 76 76 45
Width: 800
Flags: W
LayerCount: 2
Fore
SplineSet
0 1000 m 1,0,-1
 400 1000 l 1,1,-1
 400 900 l 1,2,-1
 300 900 l 1,3,-1
 300 100 l 1,4,-1
 500 100 l 1,5,-1
 500 200 l 1,6,-1
 600 200 l 1,7,-1
 600 300 l 1,8,-1
 700 300 l 1,9,-1
 700 0 l 1,10,-1
 0 0 l 1,11,-1
 0 100 l 1,12,-1
 100 100 l 1,13,-1
 100 900 l 1,14,-1
 0 900 l 1,15,-1
 0 1000 l 1,0,-1
EndSplineSet
EndChar

StartChar: M
Encoding: 77 77 46
Width: 800
Flags: W
LayerCount: 2
Fore
SplineSet
0 1000 m 1,0,-1
 100 1000 l 1,1,-1
 100 900 l 1,2,-1
 200 900 l 1,3,-1
 200 800 l 1,4,-1
 300 800 l 1,5,-1
 300 700 l 1,6,-1
 400 700 l 1,7,-1
 400 800 l 1,8,-1
 500 800 l 1,9,-1
 500 900 l 1,10,-1
 600 900 l 1,11,-1
 600 1000 l 1,12,-1
 700 1000 l 1,13,-1
 700 0 l 1,14,-1
 500 0 l 1,15,-1
 500 500 l 1,16,-1
 400 500 l 1,17,-1
 400 400 l 1,18,-1
 300 400 l 1,19,-1
 300 500 l 1,20,-1
 200 500 l 1,21,-1
 200 0 l 1,22,-1
 0 0 l 1,23,-1
 0 1000 l 1,0,-1
EndSplineSet
EndChar

StartChar: N
Encoding: 78 78 47
Width: 800
Flags: W
LayerCount: 2
Fore
SplineSet
0 1000 m 1,0,-1
 100 1000 l 1,1,-1
 100 900 l 1,2,-1
 200 900 l 1,3,-1
 200 800 l 1,4,-1
 300 800 l 1,5,-1
 300 700 l 1,6,-1
 400 700 l 1,7,-1
 400 600 l 1,8,-1
 500 600 l 1,9,-1
 500 1000 l 1,10,-1
 700 1000 l 1,11,-1
 700 0 l 1,12,-1
 500 0 l 1,13,-1
 500 300 l 1,14,-1
 400 300 l 1,15,-1
 400 400 l 1,16,-1
 300 400 l 1,17,-1
 300 500 l 1,18,-1
 200 500 l 1,19,-1
 200 0 l 1,20,-1
 0 0 l 1,21,-1
 0 1000 l 1,0,-1
EndSplineSet
EndChar

StartChar: O
Encoding: 79 79 48
Width: 800
Flags: W
LayerCount: 2
Fore
SplineSet
500 900 m 1,0,-1
 200 900 l 1,1,-1
 200 100 l 1,2,-1
 500 100 l 1,3,-1
 500 900 l 1,0,-1
100 1000 m 1,4,-1
 600 1000 l 1,5,-1
 600 900 l 1,6,-1
 700 900 l 1,7,-1
 700 100 l 1,8,-1
 600 100 l 1,9,-1
 600 0 l 1,10,-1
 100 0 l 1,11,-1
 100 100 l 1,12,-1
 0 100 l 1,13,-1
 0 900 l 1,14,-1
 100 900 l 1,15,-1
 100 1000 l 1,4,-1
EndSplineSet
EndChar

StartChar: P
Encoding: 80 80 49
Width: 800
Flags: W
LayerCount: 2
Fore
SplineSet
500 900 m 1,0,-1
 300 900 l 1,1,-1
 300 500 l 1,2,-1
 500 500 l 1,3,-1
 500 900 l 1,0,-1
0 1000 m 1,4,-1
 600 1000 l 1,5,-1
 600 900 l 1,6,-1
 700 900 l 1,7,-1
 700 500 l 1,8,-1
 600 500 l 1,9,-1
 600 400 l 1,10,-1
 300 400 l 1,11,-1
 300 100 l 1,12,-1
 400 100 l 1,13,-1
 400 0 l 1,14,-1
 0 0 l 1,15,-1
 0 100 l 1,16,-1
 100 100 l 1,17,-1
 100 900 l 1,18,-1
 0 900 l 1,19,-1
 0 1000 l 1,4,-1
EndSplineSet
EndChar

StartChar: Q
Encoding: 81 81 50
Width: 800
Flags: W
LayerCount: 2
Fore
SplineSet
500 900 m 1,0,-1
 200 900 l 1,1,-1
 200 100 l 1,2,-1
 300 100 l 1,3,-1
 300 300 l 1,4,-1
 400 300 l 1,5,-1
 400 200 l 1,6,-1
 500 200 l 1,7,-1
 500 900 l 1,0,-1
100 1000 m 1,8,-1
 600 1000 l 1,9,-1
 600 900 l 1,10,-1
 700 900 l 1,11,-1
 700 100 l 1,12,-1
 600 100 l 1,13,-1
 600 0 l 1,14,-1
 700 0 l 1,15,-1
 700 -100 l 1,16,-1
 500 -100 l 1,17,-1
 500 0 l 1,18,-1
 100 0 l 1,19,-1
 100 100 l 1,20,-1
 0 100 l 1,21,-1
 0 900 l 1,22,-1
 100 900 l 1,23,-1
 100 1000 l 1,8,-1
EndSplineSet
EndChar

StartChar: R
Encoding: 82 82 51
Width: 800
Flags: W
LayerCount: 2
Fore
SplineSet
500 900 m 1,0,-1
 300 900 l 1,1,-1
 300 500 l 1,2,-1
 500 500 l 1,3,-1
 500 900 l 1,0,-1
0 1000 m 1,4,-1
 600 1000 l 1,5,-1
 600 900 l 1,6,-1
 700 900 l 1,7,-1
 700 500 l 1,8,-1
 600 500 l 1,9,-1
 600 300 l 1,10,-1
 700 300 l 1,11,-1
 700 0 l 1,12,-1
 500 0 l 1,13,-1
 500 300 l 1,14,-1
 400 300 l 1,15,-1
 400 400 l 1,16,-1
 300 400 l 1,17,-1
 300 0 l 1,18,-1
 0 0 l 1,19,-1
 0 100 l 1,20,-1
 100 100 l 1,21,-1
 100 900 l 1,22,-1
 0 900 l 1,23,-1
 0 1000 l 1,4,-1
EndSplineSet
EndChar

StartChar: S
Encoding: 83 83 52
Width: 800
Flags: W
LayerCount: 2
Fore
SplineSet
100 1000 m 1,0,-1
 600 1000 l 1,1,-1
 600 900 l 1,2,-1
 700 900 l 1,3,-1
 700 700 l 1,4,-1
 500 700 l 1,5,-1
 500 900 l 1,6,-1
 200 900 l 1,7,-1
 200 700 l 1,8,-1
 300 700 l 1,9,-1
 300 600 l 1,10,-1
 500 600 l 1,11,-1
 500 500 l 1,12,-1
 600 500 l 1,13,-1
 600 400 l 1,14,-1
 700 400 l 1,15,-1
 700 100 l 1,16,-1
 600 100 l 1,17,-1
 600 0 l 1,18,-1
 100 0 l 1,19,-1
 100 100 l 1,20,-1
 0 100 l 1,21,-1
 0 300 l 1,22,-1
 200 300 l 1,23,-1
 200 100 l 1,24,-1
 500 100 l 1,25,-1
 500 400 l 1,26,-1
 400 400 l 1,27,-1
 400 500 l 1,28,-1
 200 500 l 1,29,-1
 200 600 l 1,30,-1
 100 600 l 1,31,-1
 100 700 l 1,32,-1
 0 700 l 1,33,-1
 0 900 l 1,34,-1
 100 900 l 1,35,-1
 100 1000 l 1,0,-1
EndSplineSet
EndChar

StartChar: T
Encoding: 84 84 53
Width: 800
Flags: W
LayerCount: 2
Fore
SplineSet
100 1000 m 1,0,-1
 700 1000 l 1,1,-1
 700 700 l 1,2,-1
 600 700 l 1,3,-1
 600 800 l 1,4,-1
 500 800 l 1,5,-1
 500 100 l 1,6,-1
 600 100 l 1,7,-1
 600 0 l 1,8,-1
 200 0 l 1,9,-1
 200 100 l 1,10,-1
 300 100 l 1,11,-1
 300 800 l 1,12,-1
 200 800 l 1,13,-1
 200 700 l 1,14,-1
 100 700 l 1,15,-1
 100 1000 l 1,0,-1
EndSplineSet
EndChar

StartChar: U
Encoding: 85 85 54
Width: 800
Flags: W
LayerCount: 2
Fore
SplineSet
0 1000 m 1,0,-1
 200 1000 l 1,1,-1
 200 100 l 1,2,-1
 500 100 l 1,3,-1
 500 1000 l 1,4,-1
 700 1000 l 1,5,-1
 700 100 l 1,6,-1
 600 100 l 1,7,-1
 600 0 l 1,8,-1
 100 0 l 1,9,-1
 100 100 l 1,10,-1
 0 100 l 1,11,-1
 0 1000 l 1,0,-1
EndSplineSet
EndChar

StartChar: V
Encoding: 86 86 55
Width: 800
Flags: W
LayerCount: 2
Fore
SplineSet
0 1000 m 1,0,-1
 200 1000 l 1,1,-1
 200 300 l 1,2,-1
 300 300 l 1,3,-1
 300 200 l 1,4,-1
 400 200 l 1,5,-1
 400 300 l 1,6,-1
 500 300 l 1,7,-1
 500 1000 l 1,8,-1
 700 1000 l 1,9,-1
 700 300 l 1,10,-1
 600 300 l 1,11,-1
 600 200 l 1,12,-1
 500 200 l 1,13,-1
 500 100 l 1,14,-1
 400 100 l 1,15,-1
 400 0 l 1,16,-1
 300 0 l 1,17,-1
 300 100 l 1,18,-1
 200 100 l 1,19,-1
 200 200 l 1,20,-1
 100 200 l 1,21,-1
 100 300 l 1,22,-1
 0 300 l 1,23,-1
 0 1000 l 1,0,-1
EndSplineSet
EndChar

StartChar: W
Encoding: 87 87 56
Width: 800
Flags: W
LayerCount: 2
Fore
SplineSet
0 1000 m 1,0,-1
 200 1000 l 1,1,-1
 200 400 l 1,2,-1
 300 400 l 1,3,-1
 300 500 l 1,4,-1
 400 500 l 1,5,-1
 400 400 l 1,6,-1
 500 400 l 1,7,-1
 500 1000 l 1,8,-1
 700 1000 l 1,9,-1
 700 0 l 1,10,-1
 600 0 l 1,11,-1
 600 100 l 1,12,-1
 500 100 l 1,13,-1
 500 200 l 1,14,-1
 400 200 l 1,15,-1
 400 300 l 1,16,-1
 300 300 l 1,17,-1
 300 200 l 1,18,-1
 200 200 l 1,19,-1
 200 100 l 1,20,-1
 100 100 l 1,21,-1
 100 0 l 1,22,-1
 0 0 l 1,23,-1
 0 1000 l 1,0,-1
EndSplineSet
EndChar

StartChar: X
Encoding: 88 88 57
Width: 800
Flags: W
LayerCount: 2
Fore
SplineSet
0 1000 m 1,0,-1
 200 1000 l 1,1,-1
 200 800 l 1,2,-1
 300 800 l 1,3,-1
 300 700 l 1,4,-1
 400 700 l 1,5,-1
 400 800 l 1,6,-1
 500 800 l 1,7,-1
 500 1000 l 1,8,-1
 700 1000 l 1,9,-1
 700 800 l 1,10,-1
 600 800 l 1,11,-1
 600 600 l 1,12,-1
 500 600 l 1,13,-1
 500 400 l 1,14,-1
 600 400 l 1,15,-1
 600 200 l 1,16,-1
 700 200 l 1,17,-1
 700 0 l 1,18,-1
 500 0 l 1,19,-1
 500 200 l 1,20,-1
 400 200 l 1,21,-1
 400 300 l 1,22,-1
 300 300 l 1,23,-1
 300 200 l 1,24,-1
 200 200 l 1,25,-1
 200 0 l 1,26,-1
 0 0 l 1,27,-1
 0 200 l 1,28,-1
 100 200 l 1,29,-1
 100 400 l 1,30,-1
 200 400 l 1,31,-1
 200 600 l 1,32,-1
 100 600 l 1,33,-1
 100 800 l 1,34,-1
 0 800 l 1,35,-1
 0 1000 l 1,0,-1
EndSplineSet
EndChar

StartChar: Y
Encoding: 89 89 58
Width: 800
Flags: W
LayerCount: 2
Fore
SplineSet
100 1000 m 1,0,-1
 300 1000 l 1,1,-1
 300 600 l 1,2,-1
 500 600 l 1,3,-1
 500 1000 l 1,4,-1
 700 1000 l 1,5,-1
 700 600 l 1,6,-1
 600 600 l 1,7,-1
 600 500 l 1,8,-1
 500 500 l 1,9,-1
 500 100 l 1,10,-1
 600 100 l 1,11,-1
 600 0 l 1,12,-1
 200 0 l 1,13,-1
 200 100 l 1,14,-1
 300 100 l 1,15,-1
 300 500 l 1,16,-1
 200 500 l 1,17,-1
 200 600 l 1,18,-1
 100 600 l 1,19,-1
 100 1000 l 1,0,-1
EndSplineSet
EndChar

StartChar: Z
Encoding: 90 90 59
Width: 800
Flags: W
LayerCount: 2
Fore
SplineSet
0 1000 m 1,0,-1
 700 1000 l 1,1,-1
 700 700 l 1,2,-1
 600 700 l 1,3,-1
 600 600 l 1,4,-1
 500 600 l 1,5,-1
 500 500 l 1,6,-1
 400 500 l 1,7,-1
 400 400 l 1,8,-1
 300 400 l 1,9,-1
 300 300 l 1,10,-1
 200 300 l 1,11,-1
 200 100 l 1,12,-1
 500 100 l 1,13,-1
 500 200 l 1,14,-1
 600 200 l 1,15,-1
 600 300 l 1,16,-1
 700 300 l 1,17,-1
 700 0 l 1,18,-1
 0 0 l 1,19,-1
 0 300 l 1,20,-1
 100 300 l 1,21,-1
 100 400 l 1,22,-1
 200 400 l 1,23,-1
 200 500 l 1,24,-1
 300 500 l 1,25,-1
 300 600 l 1,26,-1
 400 600 l 1,27,-1
 400 700 l 1,28,-1
 500 700 l 1,29,-1
 500 900 l 1,30,-1
 200 900 l 1,31,-1
 200 800 l 1,32,-1
 100 800 l 1,33,-1
 100 700 l 1,34,-1
 0 700 l 1,35,-1
 0 1000 l 1,0,-1
EndSplineSet
EndChar

StartChar: bracketleft
Encoding: 91 91 60
Width: 800
Flags: W
LayerCount: 2
Fore
SplineSet
200 1000 m 1,0,-1
 600 1000 l 1,1,-1
 600 900 l 1,2,-1
 400 900 l 1,3,-1
 400 100 l 1,4,-1
 600 100 l 1,5,-1
 600 0 l 1,6,-1
 200 0 l 1,7,-1
 200 1000 l 1,0,-1
EndSplineSet
EndChar

StartChar: backslash
Encoding: 92 92 61
Width: 800
Flags: W
LayerCount: 2
Fore
SplineSet
0 900 m 1,0,-1
 100 900 l 1,1,-1
 100 800 l 1,2,-1
 200 800 l 1,3,-1
 200 700 l 1,4,-1
 300 700 l 1,5,-1
 300 600 l 1,6,-1
 400 600 l 1,7,-1
 400 500 l 1,8,-1
 500 500 l 1,9,-1
 500 400 l 1,10,-1
 600 400 l 1,11,-1
 600 300 l 1,12,-1
 700 300 l 1,13,-1
 700 100 l 1,14,-1
 600 100 l 1,15,-1
 600 200 l 1,16,-1
 500 200 l 1,17,-1
 500 300 l 1,18,-1
 400 300 l 1,19,-1
 400 400 l 1,20,-1
 300 400 l 1,21,-1
 300 500 l 1,22,-1
 200 500 l 1,23,-1
 200 600 l 1,24,-1
 100 600 l 1,25,-1
 100 700 l 1,26,-1
 0 700 l 1,27,-1
 0 900 l 1,0,-1
EndSplineSet
EndChar

StartChar: bracketright
Encoding: 93 93 62
Width: 800
Flags: W
LayerCount: 2
Fore
SplineSet
200 1000 m 1,0,-1
 600 1000 l 1,1,-1
 600 0 l 1,2,-1
 200 0 l 1,3,-1
 200 100 l 1,4,-1
 400 100 l 1,5,-1
 400 900 l 1,6,-1
 200 900 l 1,7,-1
 200 1000 l 1,0,-1
EndSplineSet
EndChar

StartChar: asciicircum
Encoding: 94 94 63
Width: 800
Flags: W
LayerCount: 2
Fore
SplineSet
300 1000 m 1,0,-1
 400 1000 l 1,1,-1
 400 900 l 1,2,-1
 500 900 l 1,3,-1
 500 800 l 1,4,-1
 600 800 l 1,5,-1
 600 700 l 1,6,-1
 700 700 l 1,7,-1
 700 600 l 1,8,-1
 500 600 l 1,9,-1
 500 700 l 1,10,-1
 400 700 l 1,11,-1
 400 800 l 1,12,-1
 300 800 l 1,13,-1
 300 700 l 1,14,-1
 200 700 l 1,15,-1
 200 600 l 1,16,-1
 0 600 l 1,17,-1
 0 700 l 1,18,-1
 100 700 l 1,19,-1
 100 800 l 1,20,-1
 200 800 l 1,21,-1
 200 900 l 1,22,-1
 300 900 l 1,23,-1
 300 1000 l 1,0,-1
EndSplineSet
EndChar

StartChar: underscore
Encoding: 95 95 64
Width: 800
Flags: W
LayerCount: 2
Fore
SplineSet
0 -100 m 1,0,-1
 800 -100 l 1,1,-1
 800 -200 l 1,2,-1
 0 -200 l 1,3,-1
 0 -100 l 1,0,-1
EndSplineSet
EndChar

StartChar: grave
Encoding: 96 96 65
Width: 800
Flags: W
LayerCount: 2
Fore
SplineSet
300 1100 m 1,0,-1
 500 1100 l 1,1,-1
 500 900 l 1,2,-1
 400 900 l 1,3,-1
 400 800 l 1,4,-1
 300 800 l 1,5,-1
 300 1100 l 1,0,-1
400 800 m 1,6,-1
 500 800 l 1,7,-1
 500 700 l 1,8,-1
 400 700 l 1,9,-1
 400 800 l 1,6,-1
EndSplineSet
EndChar

StartChar: a
Encoding: 97 97 66
Width: 800
Flags: W
LayerCount: 2
Fore
SplineSet
100 700 m 1,0,-1
 500 700 l 1,1,-1
 500 600 l 1,2,-1
 600 600 l 1,3,-1
 600 100 l 1,4,-1
 700 100 l 1,5,-1
 700 0 l 1,6,-1
 500 0 l 1,7,-1
 500 100 l 1,8,-1
 400 100 l 1,9,-1
 400 400 l 1,10,-1
 200 400 l 1,11,-1
 200 100 l 1,12,-1
 400 100 l 1,13,-1
 400 0 l 1,14,-1
 100 0 l 1,15,-1
 100 100 l 1,16,-1
 0 100 l 1,17,-1
 0 400 l 1,18,-1
 100 400 l 1,19,-1
 100 500 l 1,20,-1
 400 500 l 1,21,-1
 400 600 l 1,22,-1
 100 600 l 1,23,-1
 100 700 l 1,0,-1
EndSplineSet
EndChar

StartChar: b
Encoding: 98 98 67
Width: 800
Flags: W
LayerCount: 2
Fore
SplineSet
0 1000 m 1,0,-1
 300 1000 l 1,1,-1
 300 700 l 1,2,-1
 600 700 l 1,3,-1
 600 600 l 1,4,-1
 700 600 l 1,5,-1
 700 100 l 1,6,-1
 600 100 l 1,7,-1
 600 0 l 1,8,-1
 100 0 l 1,9,-1
 100 900 l 1,10,-1
 0 900 l 1,11,-1
 0 1000 l 1,0,-1
500 600 m 1,12,-1
 300 600 l 1,13,-1
 300 100 l 1,14,-1
 500 100 l 1,15,-1
 500 600 l 1,12,-1
EndSplineSet
EndChar

StartChar: c
Encoding: 99 99 68
Width: 800
Flags: W
LayerCount: 2
Fore
SplineSet
100 700 m 1,0,-1
 600 700 l 1,1,-1
 600 600 l 1,2,-1
 700 600 l 1,3,-1
 700 500 l 1,4,-1
 500 500 l 1,5,-1
 500 600 l 1,6,-1
 200 600 l 1,7,-1
 200 100 l 1,8,-1
 500 100 l 1,9,-1
 500 200 l 1,10,-1
 700 200 l 1,11,-1
 700 100 l 1,12,-1
 600 100 l 1,13,-1
 600 0 l 1,14,-1
 100 0 l 1,15,-1
 100 100 l 1,16,-1
 0 100 l 1,17,-1
 0 600 l 1,18,-1
 100 600 l 1,19,-1
 100 700 l 1,0,-1
EndSplineSet
EndChar

StartChar: d
Encoding: 100 100 69
Width: 800
Flags: W
LayerCount: 2
Fore
SplineSet
300 1000 m 1,0,-1
 600 1000 l 1,1,-1
 600 100 l 1,2,-1
 700 100 l 1,3,-1
 700 0 l 1,4,-1
 500 0 l 1,5,-1
 500 100 l 1,6,-1
 400 100 l 1,7,-1
 400 600 l 1,8,-1
 200 600 l 1,9,-1
 200 100 l 1,10,-1
 400 100 l 1,11,-1
 400 0 l 1,12,-1
 100 0 l 1,13,-1
 100 100 l 1,14,-1
 0 100 l 1,15,-1
 0 600 l 1,16,-1
 100 600 l 1,17,-1
 100 700 l 1,18,-1
 400 700 l 1,19,-1
 400 900 l 1,20,-1
 300 900 l 1,21,-1
 300 1000 l 1,0,-1
EndSplineSet
EndChar

StartChar: e
Encoding: 101 101 70
Width: 800
Flags: W
LayerCount: 2
Fore
SplineSet
500 600 m 1,0,-1
 200 600 l 1,1,-1
 200 400 l 1,2,-1
 500 400 l 1,3,-1
 500 600 l 1,0,-1
100 700 m 1,4,-1
 600 700 l 1,5,-1
 600 600 l 1,6,-1
 700 600 l 1,7,-1
 700 300 l 1,8,-1
 200 300 l 1,9,-1
 200 100 l 1,10,-1
 500 100 l 1,11,-1
 500 200 l 1,12,-1
 700 200 l 1,13,-1
 700 100 l 1,14,-1
 600 100 l 1,15,-1
 600 0 l 1,16,-1
 100 0 l 1,17,-1
 100 100 l 1,18,-1
 0 100 l 1,19,-1
 0 600 l 1,20,-1
 100 600 l 1,21,-1
 100 700 l 1,4,-1
EndSplineSet
EndChar

StartChar: f
Encoding: 102 102 71
Width: 800
Flags: W
LayerCount: 2
Fore
SplineSet
300 1000 m 1,0,-1
 600 1000 l 1,1,-1
 600 900 l 1,2,-1
 700 900 l 1,3,-1
 700 800 l 1,4,-1
 500 800 l 1,5,-1
 500 900 l 1,6,-1
 400 900 l 1,7,-1
 400 700 l 1,8,-1
 600 700 l 1,9,-1
 600 600 l 1,10,-1
 400 600 l 1,11,-1
 400 100 l 1,12,-1
 500 100 l 1,13,-1
 500 0 l 1,14,-1
 100 0 l 1,15,-1
 100 100 l 1,16,-1
 200 100 l 1,17,-1
 200 600 l 1,18,-1
 100 600 l 1,19,-1
 100 700 l 1,20,-1
 200 700 l 1,21,-1
 200 900 l 1,22,-1
 300 900 l 1,23,-1
 300 1000 l 1,0,-1
EndSplineSet
EndChar

StartChar: g
Encoding: 103 103 72
Width: 800
Flags: W
LayerCount: 2
Fore
SplineSet
100 700 m 1,0,-1
 400 700 l 1,1,-1
 400 600 l 1,2,-1
 200 600 l 1,3,-1
 200 100 l 1,4,-1
 400 100 l 1,5,-1
 400 600 l 1,6,-1
 500 600 l 1,7,-1
 500 700 l 1,8,-1
 700 700 l 1,9,-1
 700 600 l 1,10,-1
 600 600 l 1,11,-1
 600 -200 l 1,12,-1
 500 -200 l 1,13,-1
 500 -300 l 1,14,-1
 100 -300 l 1,15,-1
 100 -200 l 1,16,-1
 0 -200 l 1,17,-1
 0 -100 l 1,18,-1
 200 -100 l 1,19,-1
 200 -200 l 1,20,-1
 400 -200 l 1,21,-1
 400 0 l 1,22,-1
 100 0 l 1,23,-1
 100 100 l 1,24,-1
 0 100 l 1,25,-1
 0 600 l 1,26,-1
 100 600 l 1,27,-1
 100 700 l 1,0,-1
EndSplineSet
EndChar

StartChar: h
Encoding: 104 104 73
Width: 800
Flags: W
LayerCount: 2
Fore
SplineSet
0 1000 m 1,0,-1
 300 1000 l 1,1,-1
 300 600 l 1,2,-1
 400 600 l 1,3,-1
 400 500 l 1,4,-1
 300 500 l 1,5,-1
 300 0 l 1,6,-1
 0 0 l 1,7,-1
 0 100 l 1,8,-1
 100 100 l 1,9,-1
 100 900 l 1,10,-1
 0 900 l 1,11,-1
 0 1000 l 1,0,-1
400 700 m 1,12,-1
 600 700 l 1,13,-1
 600 600 l 1,14,-1
 700 600 l 1,15,-1
 700 0 l 1,16,-1
 500 0 l 1,17,-1
 500 600 l 1,18,-1
 400 600 l 1,19,-1
 400 700 l 1,12,-1
EndSplineSet
EndChar

StartChar: i
Encoding: 105 105 74
Width: 800
Flags: W
LayerCount: 2
Fore
SplineSet
300 1000 m 1,0,-1
 500 1000 l 1,1,-1
 500 800 l 1,2,-1
 300 800 l 1,3,-1
 300 1000 l 1,0,-1
200 700 m 1,4,-1
 500 700 l 1,5,-1
 500 100 l 1,6,-1
 600 100 l 1,7,-1
 600 0 l 1,8,-1
 200 0 l 1,9,-1
 200 100 l 1,10,-1
 300 100 l 1,11,-1
 300 600 l 1,12,-1
 200 600 l 1,13,-1
 200 700 l 1,4,-1
EndSplineSet
EndChar

StartChar: j
Encoding: 106 106 75
Width: 800
Flags: W
LayerCount: 2
Fore
SplineSet
400 1000 m 1,0,-1
 600 1000 l 1,1,-1
 600 800 l 1,2,-1
 400 800 l 1,3,-1
 400 1000 l 1,0,-1
300 700 m 1,4,-1
 600 700 l 1,5,-1
 600 -200 l 1,6,-1
 500 -200 l 1,7,-1
 500 -300 l 1,8,-1
 100 -300 l 1,9,-1
 100 -200 l 1,10,-1
 0 -200 l 1,11,-1
 0 0 l 1,12,-1
 200 0 l 1,13,-1
 200 -200 l 1,14,-1
 400 -200 l 1,15,-1
 400 600 l 1,16,-1
 300 600 l 1,17,-1
 300 700 l 1,4,-1
EndSplineSet
EndChar

StartChar: k
Encoding: 107 107 76
Width: 800
Flags: W
LayerCount: 2
Fore
SplineSet
0 1000 m 1,0,-1
 300 1000 l 1,1,-1
 300 500 l 1,2,-1
 400 500 l 1,3,-1
 400 600 l 1,4,-1
 500 600 l 1,5,-1
 500 700 l 1,6,-1
 700 700 l 1,7,-1
 700 600 l 1,8,-1
 600 600 l 1,9,-1
 600 500 l 1,10,-1
 500 500 l 1,11,-1
 500 300 l 1,12,-1
 600 300 l 1,13,-1
 600 200 l 1,14,-1
 700 200 l 1,15,-1
 700 0 l 1,16,-1
 500 0 l 1,17,-1
 500 200 l 1,18,-1
 400 200 l 1,19,-1
 400 300 l 1,20,-1
 300 300 l 1,21,-1
 300 0 l 1,22,-1
 0 0 l 1,23,-1
 0 100 l 1,24,-1
 100 100 l 1,25,-1
 100 900 l 1,26,-1
 0 900 l 1,27,-1
 0 1000 l 1,0,-1
EndSplineSet
EndChar

StartChar: l
Encoding: 108 108 77
Width: 800
Flags: W
LayerCount: 2
Fore
SplineSet
200 1000 m 1,0,-1
 500 1000 l 1,1,-1
 500 100 l 1,2,-1
 600 100 l 1,3,-1
 600 0 l 1,4,-1
 200 0 l 1,5,-1
 200 100 l 1,6,-1
 300 100 l 1,7,-1
 300 900 l 1,8,-1
 200 900 l 1,9,-1
 200 1000 l 1,0,-1
EndSplineSet
EndChar

StartChar: m
Encoding: 109 109 78
Width: 800
Flags: W
LayerCount: 2
Fore
SplineSet
0 700 m 1,0,-1
 300 700 l 1,1,-1
 300 600 l 1,2,-1
 400 600 l 1,3,-1
 400 700 l 1,4,-1
 600 700 l 1,5,-1
 600 600 l 1,6,-1
 700 600 l 1,7,-1
 700 0 l 1,8,-1
 500 0 l 1,9,-1
 500 500 l 1,10,-1
 400 500 l 1,11,-1
 400 100 l 1,12,-1
 300 100 l 1,13,-1
 300 500 l 1,14,-1
 200 500 l 1,15,-1
 200 0 l 1,16,-1
 0 0 l 1,17,-1
 0 700 l 1,0,-1
EndSplineSet
EndChar

StartChar: n
Encoding: 110 110 79
Width: 800
Flags: W
LayerCount: 2
Fore
SplineSet
0 700 m 1,0,-1
 200 700 l 1,1,-1
 200 600 l 1,2,-1
 300 600 l 1,3,-1
 300 0 l 1,4,-1
 100 0 l 1,5,-1
 100 600 l 1,6,-1
 0 600 l 1,7,-1
 0 700 l 1,0,-1
300 700 m 1,8,-1
 600 700 l 1,9,-1
 600 600 l 1,10,-1
 700 600 l 1,11,-1
 700 0 l 1,12,-1
 500 0 l 1,13,-1
 500 600 l 1,14,-1
 300 600 l 1,15,-1
 300 700 l 1,8,-1
EndSplineSet
EndChar

StartChar: o
Encoding: 111 111 80
Width: 800
Flags: W
LayerCount: 2
Fore
SplineSet
500 600 m 1,0,-1
 200 600 l 1,1,-1
 200 100 l 1,2,-1
 500 100 l 1,3,-1
 500 600 l 1,0,-1
100 700 m 1,4,-1
 600 700 l 1,5,-1
 600 600 l 1,6,-1
 700 600 l 1,7,-1
 700 100 l 1,8,-1
 600 100 l 1,9,-1
 600 0 l 1,10,-1
 100 0 l 1,11,-1
 100 100 l 1,12,-1
 0 100 l 1,13,-1
 0 600 l 1,14,-1
 100 600 l 1,15,-1
 100 700 l 1,4,-1
EndSplineSet
EndChar

StartChar: p
Encoding: 112 112 81
Width: 800
Flags: W
LayerCount: 2
Fore
SplineSet
0 700 m 1,0,-1
 200 700 l 1,1,-1
 200 600 l 1,2,-1
 300 600 l 1,3,-1
 300 100 l 1,4,-1
 500 100 l 1,5,-1
 500 600 l 1,6,-1
 300 600 l 1,7,-1
 300 700 l 1,8,-1
 600 700 l 1,9,-1
 600 600 l 1,10,-1
 700 600 l 1,11,-1
 700 100 l 1,12,-1
 600 100 l 1,13,-1
 600 0 l 1,14,-1
 300 0 l 1,15,-1
 300 -200 l 1,16,-1
 400 -200 l 1,17,-1
 400 -300 l 1,18,-1
 0 -300 l 1,19,-1
 0 -200 l 1,20,-1
 100 -200 l 1,21,-1
 100 600 l 1,22,-1
 0 600 l 1,23,-1
 0 700 l 1,0,-1
EndSplineSet
EndChar

StartChar: q
Encoding: 113 113 82
Width: 800
Flags: W
LayerCount: 2
Fore
SplineSet
400 600 m 1,0,-1
 200 600 l 1,1,-1
 200 100 l 1,2,-1
 400 100 l 1,3,-1
 400 600 l 1,0,-1
100 700 m 1,4,-1
 600 700 l 1,5,-1
 600 -200 l 1,6,-1
 700 -200 l 1,7,-1
 700 -300 l 1,8,-1
 300 -300 l 1,9,-1
 300 -200 l 1,10,-1
 400 -200 l 1,11,-1
 400 0 l 1,12,-1
 100 0 l 1,13,-1
 100 100 l 1,14,-1
 0 100 l 1,15,-1
 0 600 l 1,16,-1
 100 600 l 1,17,-1
 100 700 l 1,4,-1
EndSplineSet
EndChar

StartChar: r
Encoding: 114 114 83
Width: 800
Flags: W
LayerCount: 2
Fore
SplineSet
0 700 m 1,0,-1
 200 700 l 1,1,-1
 200 600 l 1,2,-1
 300 600 l 1,3,-1
 300 700 l 1,4,-1
 700 700 l 1,5,-1
 700 500 l 1,6,-1
 500 500 l 1,7,-1
 500 600 l 1,8,-1
 400 600 l 1,9,-1
 400 500 l 1,10,-1
 300 500 l 1,11,-1
 300 100 l 1,12,-1
 400 100 l 1,13,-1
 400 0 l 1,14,-1
 0 0 l 1,15,-1
 0 100 l 1,16,-1
 100 100 l 1,17,-1
 100 600 l 1,18,-1
 0 600 l 1,19,-1
 0 700 l 1,0,-1
EndSplineSet
EndChar

StartChar: s
Encoding: 115 115 84
Width: 800
Flags: W
LayerCount: 2
Fore
SplineSet
100 700 m 1,0,-1
 600 700 l 1,1,-1
 600 600 l 1,2,-1
 700 600 l 1,3,-1
 700 500 l 1,4,-1
 500 500 l 1,5,-1
 500 600 l 1,6,-1
 200 600 l 1,7,-1
 200 500 l 1,8,-1
 300 500 l 1,9,-1
 300 400 l 1,10,-1
 500 400 l 1,11,-1
 500 300 l 1,12,-1
 600 300 l 1,13,-1
 600 200 l 1,14,-1
 700 200 l 1,15,-1
 700 100 l 1,16,-1
 600 100 l 1,17,-1
 600 0 l 1,18,-1
 100 0 l 1,19,-1
 100 100 l 1,20,-1
 0 100 l 1,21,-1
 0 200 l 1,22,-1
 200 200 l 1,23,-1
 200 100 l 1,24,-1
 500 100 l 1,25,-1
 500 200 l 1,26,-1
 400 200 l 1,27,-1
 400 300 l 1,28,-1
 200 300 l 1,29,-1
 200 400 l 1,30,-1
 100 400 l 1,31,-1
 100 500 l 1,32,-1
 0 500 l 1,33,-1
 0 600 l 1,34,-1
 100 600 l 1,35,-1
 100 700 l 1,0,-1
EndSplineSet
EndChar

StartChar: t
Encoding: 116 116 85
Width: 800
Flags: W
LayerCount: 2
Fore
SplineSet
300 1000 m 1,0,-1
 400 1000 l 1,1,-1
 400 700 l 1,2,-1
 600 700 l 1,3,-1
 600 600 l 1,4,-1
 400 600 l 1,5,-1
 400 100 l 1,6,-1
 500 100 l 1,7,-1
 500 0 l 1,8,-1
 300 0 l 1,9,-1
 300 100 l 1,10,-1
 200 100 l 1,11,-1
 200 600 l 1,12,-1
 0 600 l 1,13,-1
 0 700 l 1,14,-1
 200 700 l 1,15,-1
 200 900 l 1,16,-1
 300 900 l 1,17,-1
 300 1000 l 1,0,-1
500 200 m 1,18,-1
 600 200 l 1,19,-1
 600 100 l 1,20,-1
 500 100 l 1,21,-1
 500 200 l 1,18,-1
EndSplineSet
EndChar

StartChar: u
Encoding: 117 117 86
Width: 800
Flags: W
LayerCount: 2
Fore
SplineSet
0 700 m 1,0,-1
 200 700 l 1,1,-1
 200 100 l 1,2,-1
 400 100 l 1,3,-1
 400 0 l 1,4,-1
 100 0 l 1,5,-1
 100 100 l 1,6,-1
 0 100 l 1,7,-1
 0 700 l 1,0,-1
400 700 m 1,8,-1
 600 700 l 1,9,-1
 600 100 l 1,10,-1
 700 100 l 1,11,-1
 700 0 l 1,12,-1
 500 0 l 1,13,-1
 500 100 l 1,14,-1
 400 100 l 1,15,-1
 400 700 l 1,8,-1
EndSplineSet
EndChar

StartChar: v
Encoding: 118 118 87
Width: 800
Flags: W
LayerCount: 2
Fore
SplineSet
0 700 m 1,0,-1
 200 700 l 1,1,-1
 200 300 l 1,2,-1
 300 300 l 1,3,-1
 300 200 l 1,4,-1
 400 200 l 1,5,-1
 400 300 l 1,6,-1
 500 300 l 1,7,-1
 500 700 l 1,8,-1
 700 700 l 1,9,-1
 700 300 l 1,10,-1
 600 300 l 1,11,-1
 600 200 l 1,12,-1
 500 200 l 1,13,-1
 500 100 l 1,14,-1
 400 100 l 1,15,-1
 400 0 l 1,16,-1
 300 0 l 1,17,-1
 300 100 l 1,18,-1
 200 100 l 1,19,-1
 200 200 l 1,20,-1
 100 200 l 1,21,-1
 100 300 l 1,22,-1
 0 300 l 1,23,-1
 0 700 l 1,0,-1
EndSplineSet
EndChar

StartChar: w
Encoding: 119 119 88
Width: 800
Flags: W
LayerCount: 2
Fore
SplineSet
0 700 m 1,0,-1
 200 700 l 1,1,-1
 200 200 l 1,2,-1
 300 200 l 1,3,-1
 300 600 l 1,4,-1
 400 600 l 1,5,-1
 400 200 l 1,6,-1
 500 200 l 1,7,-1
 500 700 l 1,8,-1
 700 700 l 1,9,-1
 700 100 l 1,10,-1
 600 100 l 1,11,-1
 600 0 l 1,12,-1
 400 0 l 1,13,-1
 400 100 l 1,14,-1
 300 100 l 1,15,-1
 300 0 l 1,16,-1
 100 0 l 1,17,-1
 100 100 l 1,18,-1
 0 100 l 1,19,-1
 0 700 l 1,0,-1
EndSplineSet
EndChar

StartChar: x
Encoding: 120 120 89
Width: 800
Flags: W
LayerCount: 2
Fore
SplineSet
0 700 m 1,0,-1
 200 700 l 1,1,-1
 200 500 l 1,2,-1
 300 500 l 1,3,-1
 300 400 l 1,4,-1
 400 400 l 1,5,-1
 400 500 l 1,6,-1
 500 500 l 1,7,-1
 500 700 l 1,8,-1
 700 700 l 1,9,-1
 700 500 l 1,10,-1
 600 500 l 1,11,-1
 600 400 l 1,12,-1
 500 400 l 1,13,-1
 500 300 l 1,14,-1
 600 300 l 1,15,-1
 600 200 l 1,16,-1
 700 200 l 1,17,-1
 700 0 l 1,18,-1
 500 0 l 1,19,-1
 500 200 l 1,20,-1
 400 200 l 1,21,-1
 400 300 l 1,22,-1
 300 300 l 1,23,-1
 300 200 l 1,24,-1
 200 200 l 1,25,-1
 200 0 l 1,26,-1
 0 0 l 1,27,-1
 0 200 l 1,28,-1
 100 200 l 1,29,-1
 100 300 l 1,30,-1
 200 300 l 1,31,-1
 200 400 l 1,32,-1
 100 400 l 1,33,-1
 100 500 l 1,34,-1
 0 500 l 1,35,-1
 0 700 l 1,0,-1
EndSplineSet
EndChar

StartChar: y
Encoding: 121 121 90
Width: 800
Flags: W
LayerCount: 2
Fore
SplineSet
0 700 m 1,0,-1
 200 700 l 1,1,-1
 200 100 l 1,2,-1
 500 100 l 1,3,-1
 500 700 l 1,4,-1
 700 700 l 1,5,-1
 700 -100 l 1,6,-1
 600 -100 l 1,7,-1
 600 -200 l 1,8,-1
 500 -200 l 1,9,-1
 500 -300 l 1,10,-1
 0 -300 l 1,11,-1
 0 -200 l 1,12,-1
 400 -200 l 1,13,-1
 400 -100 l 1,14,-1
 500 -100 l 1,15,-1
 500 0 l 1,16,-1
 100 0 l 1,17,-1
 100 100 l 1,18,-1
 0 100 l 1,19,-1
 0 700 l 1,0,-1
EndSplineSet
EndChar

StartChar: z
Encoding: 122 122 91
Width: 800
Flags: W
LayerCount: 2
Fore
SplineSet
0 700 m 1,0,-1
 700 700 l 1,1,-1
 700 600 l 1,2,-1
 600 600 l 1,3,-1
 600 500 l 1,4,-1
 500 500 l 1,5,-1
 500 400 l 1,6,-1
 400 400 l 1,7,-1
 400 300 l 1,8,-1
 300 300 l 1,9,-1
 300 200 l 1,10,-1
 200 200 l 1,11,-1
 200 100 l 1,12,-1
 600 100 l 1,13,-1
 600 200 l 1,14,-1
 700 200 l 1,15,-1
 700 0 l 1,16,-1
 0 0 l 1,17,-1
 0 200 l 1,18,-1
 100 200 l 1,19,-1
 100 300 l 1,20,-1
 200 300 l 1,21,-1
 200 400 l 1,22,-1
 300 400 l 1,23,-1
 300 500 l 1,24,-1
 400 500 l 1,25,-1
 400 600 l 1,26,-1
 100 600 l 1,27,-1
 100 500 l 1,28,-1
 0 500 l 1,29,-1
 0 700 l 1,0,-1
EndSplineSet
EndChar

StartChar: braceleft
Encoding: 123 123 92
Width: 800
Flags: W
LayerCount: 2
Fore
SplineSet
400 1000 m 1,0,-1
 700 1000 l 1,1,-1
 700 900 l 1,2,-1
 500 900 l 1,3,-1
 500 600 l 1,4,-1
 400 600 l 1,5,-1
 400 500 l 1,6,-1
 500 500 l 1,7,-1
 500 100 l 1,8,-1
 700 100 l 1,9,-1
 700 0 l 1,10,-1
 400 0 l 1,11,-1
 400 100 l 1,12,-1
 300 100 l 1,13,-1
 300 500 l 1,14,-1
 100 500 l 1,15,-1
 100 600 l 1,16,-1
 300 600 l 1,17,-1
 300 900 l 1,18,-1
 400 900 l 1,19,-1
 400 1000 l 1,0,-1
EndSplineSet
EndChar

StartChar: bar
Encoding: 124 124 93
Width: 800
Flags: W
LayerCount: 2
Fore
SplineSet
300 1000 m 1,0,-1
 500 1000 l 1,1,-1
 500 600 l 1,2,-1
 300 600 l 1,3,-1
 300 1000 l 1,0,-1
300 400 m 1,4,-1
 500 400 l 1,5,-1
 500 0 l 1,6,-1
 300 0 l 1,7,-1
 300 400 l 1,4,-1
EndSplineSet
EndChar

StartChar: braceright
Encoding: 125 125 94
Width: 800
Flags: W
LayerCount: 2
Fore
SplineSet
100 1000 m 1,0,-1
 400 1000 l 1,1,-1
 400 900 l 1,2,-1
 500 900 l 1,3,-1
 500 600 l 1,4,-1
 700 600 l 1,5,-1
 700 500 l 1,6,-1
 500 500 l 1,7,-1
 500 100 l 1,8,-1
 400 100 l 1,9,-1
 400 0 l 1,10,-1
 100 0 l 1,11,-1
 100 100 l 1,12,-1
 300 100 l 1,13,-1
 300 500 l 1,14,-1
 400 500 l 1,15,-1
 400 600 l 1,16,-1
 300 600 l 1,17,-1
 300 900 l 1,18,-1
 100 900 l 1,19,-1
 100 1000 l 1,0,-1
EndSplineSet
EndChar

StartChar: asciitilde
Encoding: 126 126 95
Width: 800
Flags: W
LayerCount: 2
Fore
SplineSet
100 1000 m 1,0,-1
 400 1000 l 1,1,-1
 400 900 l 1,2,-1
 500 900 l 1,3,-1
 500 1000 l 1,4,-1
 700 1000 l 1,5,-1
 700 900 l 1,6,-1
 600 900 l 1,7,-1
 600 800 l 1,8,-1
 300 800 l 1,9,-1
 300 900 l 1,10,-1
 200 900 l 1,11,-1
 200 800 l 1,12,-1
 0 800 l 1,13,-1
 0 900 l 1,14,-1
 100 900 l 1,15,-1
 100 1000 l 1,0,-1
EndSplineSet
EndChar

StartChar: cent
Encoding: 162 162 98
Width: 800
Flags: W
LayerCount: 2
Fore
SplineSet
300 700 m 1,0,-1
 200 700 l 1,1,-1
 200 300 l 1,2,-1
 300 300 l 1,3,-1
 300 700 l 1,0,-1
300 1000 m 1,4,-1
 400 1000 l 1,5,-1
 400 800 l 1,6,-1
 600 800 l 1,7,-1
 600 700 l 1,8,-1
 700 700 l 1,9,-1
 700 600 l 1,10,-1
 500 600 l 1,11,-1
 500 700 l 1,12,-1
 400 700 l 1,13,-1
 400 300 l 1,14,-1
 500 300 l 1,15,-1
 500 400 l 1,16,-1
 700 400 l 1,17,-1
 700 300 l 1,18,-1
 600 300 l 1,19,-1
 600 200 l 1,20,-1
 400 200 l 1,21,-1
 400 0 l 1,22,-1
 300 0 l 1,23,-1
 300 200 l 1,24,-1
 100 200 l 1,25,-1
 100 300 l 1,26,-1
 0 300 l 1,27,-1
 0 700 l 1,28,-1
 100 700 l 1,29,-1
 100 800 l 1,30,-1
 300 800 l 1,31,-1
 300 1000 l 1,4,-1
EndSplineSet
EndChar

StartChar: sterling
Encoding: 163 163 99
Width: 800
Flags: W
LayerCount: 2
Fore
SplineSet
200 1000 m 1,0,-1
 500 1000 l 1,1,-1
 500 900 l 1,2,-1
 600 900 l 1,3,-1
 600 800 l 1,4,-1
 400 800 l 1,5,-1
 400 900 l 1,6,-1
 300 900 l 1,7,-1
 300 700 l 1,8,-1
 400 700 l 1,9,-1
 400 600 l 1,10,-1
 300 600 l 1,11,-1
 300 200 l 1,12,-1
 400 200 l 1,13,-1
 400 100 l 1,14,-1
 600 100 l 1,15,-1
 600 0 l 1,16,-1
 300 0 l 1,17,-1
 300 100 l 1,18,-1
 200 100 l 1,19,-1
 200 0 l 1,20,-1
 0 0 l 1,21,-1
 0 200 l 1,22,-1
 100 200 l 1,23,-1
 100 600 l 1,24,-1
 0 600 l 1,25,-1
 0 700 l 1,26,-1
 100 700 l 1,27,-1
 100 900 l 1,28,-1
 200 900 l 1,29,-1
 200 1000 l 1,0,-1
600 200 m 1,30,-1
 700 200 l 1,31,-1
 700 100 l 1,32,-1
 600 100 l 1,33,-1
 600 200 l 1,30,-1
EndSplineSet
EndChar

StartChar: currency
Encoding: 164 164 100
Width: 800
Flags: W
LayerCount: 2
Fore
SplineSet
500 600 m 1,0,-1
 300 600 l 1,1,-1
 300 400 l 1,2,-1
 500 400 l 1,3,-1
 500 600 l 1,0,-1
100 800 m 1,4,-1
 300 800 l 1,5,-1
 300 700 l 1,6,-1
 500 700 l 1,7,-1
 500 800 l 1,8,-1
 700 800 l 1,9,-1
 700 700 l 1,10,-1
 600 700 l 1,11,-1
 600 600 l 1,12,-1
 700 600 l 1,13,-1
 700 400 l 1,14,-1
 600 400 l 1,15,-1
 600 300 l 1,16,-1
 700 300 l 1,17,-1
 700 200 l 1,18,-1
 500 200 l 1,19,-1
 500 300 l 1,20,-1
 300 300 l 1,21,-1
 300 200 l 1,22,-1
 100 200 l 1,23,-1
 100 300 l 1,24,-1
 200 300 l 1,25,-1
 200 400 l 1,26,-1
 100 400 l 1,27,-1
 100 600 l 1,28,-1
 200 600 l 1,29,-1
 200 700 l 1,30,-1
 100 700 l 1,31,-1
 100 800 l 1,4,-1
EndSplineSet
EndChar

StartChar: yen
Encoding: 165 165 101
Width: 800
Flags: W
LayerCount: 2
Fore
SplineSet
100 1000 m 1,0,-1
 300 1000 l 1,1,-1
 300 700 l 1,2,-1
 500 700 l 1,3,-1
 500 1000 l 1,4,-1
 700 1000 l 1,5,-1
 700 700 l 1,6,-1
 600 700 l 1,7,-1
 600 600 l 1,8,-1
 500 600 l 1,9,-1
 500 500 l 1,10,-1
 700 500 l 1,11,-1
 700 400 l 1,12,-1
 500 400 l 1,13,-1
 500 300 l 1,14,-1
 700 300 l 1,15,-1
 700 200 l 1,16,-1
 500 200 l 1,17,-1
 500 0 l 1,18,-1
 300 0 l 1,19,-1
 300 200 l 1,20,-1
 100 200 l 1,21,-1
 100 300 l 1,22,-1
 300 300 l 1,23,-1
 300 400 l 1,24,-1
 100 400 l 1,25,-1
 100 500 l 1,26,-1
 300 500 l 1,27,-1
 300 600 l 1,28,-1
 200 600 l 1,29,-1
 200 700 l 1,30,-1
 100 700 l 1,31,-1
 100 1000 l 1,0,-1
EndSplineSet
EndChar

StartChar: section
Encoding: 167 167 103
Width: 800
Flags: W
LayerCount: 2
Fore
SplineSet
400 700 m 1,0,-1
 300 700 l 1,1,-1
 300 600 l 1,2,-1
 200 600 l 1,3,-1
 200 400 l 1,4,-1
 300 400 l 1,5,-1
 300 300 l 1,6,-1
 400 300 l 1,7,-1
 400 400 l 1,8,-1
 500 400 l 1,9,-1
 500 600 l 1,10,-1
 400 600 l 1,11,-1
 400 700 l 1,0,-1
100 1100 m 1,12,-1
 600 1100 l 1,13,-1
 600 1000 l 1,14,-1
 700 1000 l 1,15,-1
 700 900 l 1,16,-1
 500 900 l 1,17,-1
 500 1000 l 1,18,-1
 200 1000 l 1,19,-1
 200 900 l 1,20,-1
 300 900 l 1,21,-1
 300 800 l 1,22,-1
 500 800 l 1,23,-1
 500 700 l 1,24,-1
 600 700 l 1,25,-1
 600 600 l 1,26,-1
 700 600 l 1,27,-1
 700 400 l 1,28,-1
 600 400 l 1,29,-1
 600 300 l 1,30,-1
 500 300 l 1,31,-1
 500 200 l 1,32,-1
 600 200 l 1,33,-1
 600 100 l 1,34,-1
 700 100 l 1,35,-1
 700 0 l 1,36,-1
 600 0 l 1,37,-1
 600 -100 l 1,38,-1
 100 -100 l 1,39,-1
 100 0 l 1,40,-1
 0 0 l 1,41,-1
 0 100 l 1,42,-1
 200 100 l 1,43,-1
 200 0 l 1,44,-1
 500 0 l 1,45,-1
 500 100 l 1,46,-1
 400 100 l 1,47,-1
 400 200 l 1,48,-1
 200 200 l 1,49,-1
 200 300 l 1,50,-1
 100 300 l 1,51,-1
 100 400 l 1,52,-1
 0 400 l 1,53,-1
 0 600 l 1,54,-1
 100 600 l 1,55,-1
 100 700 l 1,56,-1
 200 700 l 1,57,-1
 200 800 l 1,58,-1
 100 800 l 1,59,-1
 100 900 l 1,60,-1
 0 900 l 1,61,-1
 0 1000 l 1,62,-1
 100 1000 l 1,63,-1
 100 1100 l 1,12,-1
EndSplineSet
EndChar

StartChar: dieresis
Encoding: 168 168 104
Width: 800
Flags: W
LayerCount: 2
Fore
SplineSet
100 1100 m 1,0,-1
 300 1100 l 1,1,-1
 300 900 l 1,2,-1
 100 900 l 1,3,-1
 100 1100 l 1,0,-1
500 1100 m 1,4,-1
 700 1100 l 1,5,-1
 700 900 l 1,6,-1
 500 900 l 1,7,-1
 500 1100 l 1,4,-1
EndSplineSet
EndChar

StartChar: copyright
Encoding: 169 169 105
Width: 800
Flags: W
LayerCount: 2
Fore
SplineSet
300 700 m 1,0,-1
 500 700 l 1,1,-1
 500 600 l 1,2,-1
 300 600 l 1,3,-1
 300 700 l 1,0,-1
200 600 m 1,4,-1
 300 600 l 1,5,-1
 300 300 l 1,6,-1
 200 300 l 1,7,-1
 200 600 l 1,4,-1
500 600 m 1,8,-1
 600 600 l 1,9,-1
 600 500 l 1,10,-1
 500 500 l 1,11,-1
 500 600 l 1,8,-1
500 400 m 1,12,-1
 600 400 l 1,13,-1
 600 300 l 1,14,-1
 500 300 l 1,15,-1
 500 400 l 1,12,-1
300 300 m 1,16,-1
 500 300 l 1,17,-1
 500 200 l 1,18,-1
 300 200 l 1,19,-1
 300 300 l 1,16,-1
200 900 m 1,20,-1
 600 900 l 1,21,-1
 600 800 l 1,22,-1
 200 800 l 1,23,-1
 200 900 l 1,20,-1
100 800 m 1,24,-1
 200 800 l 1,25,-1
 200 700 l 1,26,-1
 100 700 l 1,27,-1
 100 800 l 1,24,-1
600 800 m 1,28,-1
 700 800 l 1,29,-1
 700 700 l 1,30,-1
 600 700 l 1,31,-1
 600 800 l 1,28,-1
0 700 m 1,32,-1
 100 700 l 1,33,-1
 100 200 l 1,34,-1
 0 200 l 1,35,-1
 0 700 l 1,32,-1
700 700 m 1,36,-1
 800 700 l 1,37,-1
 800 200 l 1,38,-1
 700 200 l 1,39,-1
 700 700 l 1,36,-1
100 200 m 1,40,-1
 200 200 l 1,41,-1
 200 100 l 1,42,-1
 100 100 l 1,43,-1
 100 200 l 1,40,-1
600 200 m 1,44,-1
 700 200 l 1,45,-1
 700 100 l 1,46,-1
 600 100 l 1,47,-1
 600 200 l 1,44,-1
200 100 m 1,48,-1
 600 100 l 1,49,-1
 600 0 l 1,50,-1
 200 0 l 1,51,-1
 200 100 l 1,48,-1
EndSplineSet
EndChar

StartChar: ordfeminine
Encoding: 170 170 106
Width: 800
Flags: W
LayerCount: 2
Fore
SplineSet
200 1100 m 1,0,-1
 500 1100 l 1,1,-1
 500 1000 l 1,2,-1
 600 1000 l 1,3,-1
 600 700 l 1,4,-1
 700 700 l 1,5,-1
 700 600 l 1,6,-1
 500 600 l 1,7,-1
 500 700 l 1,8,-1
 400 700 l 1,9,-1
 400 800 l 1,10,-1
 300 800 l 1,11,-1
 300 700 l 1,12,-1
 400 700 l 1,13,-1
 400 600 l 1,14,-1
 200 600 l 1,15,-1
 200 700 l 1,16,-1
 100 700 l 1,17,-1
 100 800 l 1,18,-1
 200 800 l 1,19,-1
 200 900 l 1,20,-1
 400 900 l 1,21,-1
 400 1000 l 1,22,-1
 200 1000 l 1,23,-1
 200 1100 l 1,0,-1
100 500 m 1,24,-1
 700 500 l 1,25,-1
 700 400 l 1,26,-1
 100 400 l 1,27,-1
 100 500 l 1,24,-1
EndSplineSet
EndChar

StartChar: logicalnot
Encoding: 172 172 108
Width: 800
Flags: W
LayerCount: 2
Fore
SplineSet
0 500 m 1,0,-1
 700 500 l 1,1,-1
 700 100 l 1,2,-1
 500 100 l 1,3,-1
 500 400 l 1,4,-1
 0 400 l 1,5,-1
 0 500 l 1,0,-1
EndSplineSet
EndChar

StartChar: registered
Encoding: 174 174 109
Width: 800
Flags: W
LayerCount: 2
Fore
SplineSet
200 700 m 1,0,-1
 500 700 l 1,1,-1
 500 600 l 1,2,-1
 301 600 l 1,3,-1
 300 500 l 1,4,-1
 500 500 l 1,5,-1
 500 400 l 1,6,-1
 300 400 l 1,7,-1
 300 200 l 1,8,-1
 200 200 l 1,9,-1
 200 700 l 1,0,-1
500 600 m 1,10,-1
 600 600 l 1,11,-1
 600 500 l 1,12,-1
 500 500 l 1,13,-1
 500 600 l 1,10,-1
500 400 m 1,14,-1
 600 400 l 1,15,-1
 600 200 l 1,16,-1
 500 200 l 1,17,-1
 500 400 l 1,14,-1
200 900 m 1,18,-1
 600 900 l 1,19,-1
 600 800 l 1,20,-1
 200 800 l 1,21,-1
 200 900 l 1,18,-1
100 800 m 1,22,-1
 200 800 l 1,23,-1
 200 700 l 1,24,-1
 100 700 l 1,25,-1
 100 800 l 1,22,-1
600 800 m 1,26,-1
 700 800 l 1,27,-1
 700 700 l 1,28,-1
 600 700 l 1,29,-1
 600 800 l 1,26,-1
0 700 m 1,30,-1
 100 700 l 1,31,-1
 100 200 l 1,32,-1
 0 200 l 1,33,-1
 0 700 l 1,30,-1
700 700 m 1,34,-1
 800 700 l 1,35,-1
 800 200 l 1,36,-1
 700 200 l 1,37,-1
 700 700 l 1,34,-1
100 200 m 1,38,-1
 200 200 l 1,39,-1
 200 100 l 1,40,-1
 100 100 l 1,41,-1
 100 200 l 1,38,-1
600 200 m 1,42,-1
 700 200 l 1,43,-1
 700 100 l 1,44,-1
 600 100 l 1,45,-1
 600 200 l 1,42,-1
200 100 m 1,46,-1
 600 100 l 1,47,-1
 600 0 l 1,48,-1
 200 0 l 1,49,-1
 200 100 l 1,46,-1
EndSplineSet
EndChar

StartChar: degree
Encoding: 176 176 110
Width: 800
Flags: W
LayerCount: 2
Fore
SplineSet
400 1000 m 1,0,-1
 300 1000 l 1,1,-1
 300 800 l 1,2,-1
 400 800 l 1,3,-1
 400 1000 l 1,0,-1
200 1100 m 1,4,-1
 500 1100 l 1,5,-1
 500 1000 l 1,6,-1
 600 1000 l 1,7,-1
 600 800 l 1,8,-1
 500 800 l 1,9,-1
 500 700 l 1,10,-1
 200 700 l 1,11,-1
 200 800 l 1,12,-1
 100 800 l 1,13,-1
 100 1000 l 1,14,-1
 200 1000 l 1,15,-1
 200 1100 l 1,4,-1
EndSplineSet
EndChar

StartChar: plusminus
Encoding: 177 177 111
Width: 800
Flags: W
LayerCount: 2
Fore
SplineSet
300 800 m 1,0,-1
 500 800 l 1,1,-1
 500 600 l 1,2,-1
 700 600 l 1,3,-1
 700 500 l 1,4,-1
 500 500 l 1,5,-1
 500 300 l 1,6,-1
 300 300 l 1,7,-1
 300 500 l 1,8,-1
 100 500 l 1,9,-1
 100 600 l 1,10,-1
 300 600 l 1,11,-1
 300 800 l 1,0,-1
0 100 m 1,12,-1
 800 100 l 1,13,-1
 800 0 l 1,14,-1
 0 0 l 1,15,-1
 0 100 l 1,12,-1
EndSplineSet
EndChar

StartChar: uni00B2
Encoding: 178 178 112
Width: 800
Flags: W
LayerCount: 2
Fore
SplineSet
200 1100 m 1,0,-1
 500 1100 l 1,1,-1
 500 1000 l 1,2,-1
 600 1000 l 1,3,-1
 600 800 l 1,4,-1
 500 800 l 1,5,-1
 500 700 l 1,6,-1
 400 700 l 1,7,-1
 400 600 l 1,8,-1
 600 600 l 1,9,-1
 600 500 l 1,10,-1
 100 500 l 1,11,-1
 100 600 l 1,12,-1
 200 600 l 1,13,-1
 200 700 l 1,14,-1
 300 700 l 1,15,-1
 300 800 l 1,16,-1
 400 800 l 1,17,-1
 400 1000 l 1,18,-1
 200 1000 l 1,19,-1
 200 1100 l 1,0,-1
100 1000 m 1,20,-1
 200 1000 l 1,21,-1
 200 900 l 1,22,-1
 100 900 l 1,23,-1
 100 1000 l 1,20,-1
EndSplineSet
EndChar

StartChar: uni00B3
Encoding: 179 179 113
Width: 800
Flags: W
LayerCount: 2
Fore
SplineSet
200 1100 m 1,0,-1
 500 1100 l 1,1,-1
 500 1000 l 1,2,-1
 600 1000 l 1,3,-1
 600 900 l 1,4,-1
 500 900 l 1,5,-1
 500 800 l 1,6,-1
 600 800 l 1,7,-1
 600 600 l 1,8,-1
 500 600 l 1,9,-1
 500 500 l 1,10,-1
 200 500 l 1,11,-1
 200 600 l 1,12,-1
 400 600 l 1,13,-1
 400 800 l 1,14,-1
 300 800 l 1,15,-1
 300 900 l 1,16,-1
 400 900 l 1,17,-1
 400 1000 l 1,18,-1
 200 1000 l 1,19,-1
 200 1100 l 1,0,-1
100 1000 m 1,20,-1
 200 1000 l 1,21,-1
 200 900 l 1,22,-1
 100 900 l 1,23,-1
 100 1000 l 1,20,-1
100 700 m 1,24,-1
 200 700 l 1,25,-1
 200 600 l 1,26,-1
 100 600 l 1,27,-1
 100 700 l 1,24,-1
EndSplineSet
EndChar

StartChar: acute
Encoding: 180 180 114
Width: 800
Flags: W
LayerCount: 2
Fore
SplineSet
500 1100 m 1,0,-1
 700 1100 l 1,1,-1
 700 1000 l 1,2,-1
 600 1000 l 1,3,-1
 600 900 l 1,4,-1
 400 900 l 1,5,-1
 400 1000 l 1,6,-1
 500 1000 l 1,7,-1
 500 1100 l 1,0,-1
300 900 m 1,8,-1
 400 900 l 1,9,-1
 400 800 l 1,10,-1
 300 800 l 1,11,-1
 300 900 l 1,8,-1
EndSplineSet
EndChar

StartChar: mu
Encoding: 181 181 115
Width: 800
Flags: W
LayerCount: 2
Fore
SplineSet
0 700 m 1,0,-1
 200 700 l 1,1,-1
 200 100 l 1,2,-1
 400 100 l 1,3,-1
 400 700 l 1,4,-1
 600 700 l 1,5,-1
 600 100 l 1,6,-1
 500 100 l 1,7,-1
 500 0 l 1,8,-1
 100 0 l 1,9,-1
 100 -200 l 1,10,-1
 0 -200 l 1,11,-1
 0 700 l 1,0,-1
EndSplineSet
EndChar

StartChar: paragraph
Encoding: 182 182 116
Width: 800
Flags: W
LayerCount: 2
Fore
SplineSet
300 900 m 1,0,-1
 200 900 l 1,1,-1
 200 500 l 1,2,-1
 300 500 l 1,3,-1
 300 900 l 1,0,-1
100 1000 m 1,4,-1
 800 1000 l 1,5,-1
 800 0 l 1,6,-1
 600 0 l 1,7,-1
 600 900 l 1,8,-1
 500 900 l 1,9,-1
 500 0 l 1,10,-1
 300 0 l 1,11,-1
 300 400 l 1,12,-1
 100 400 l 1,13,-1
 100 500 l 1,14,-1
 0 500 l 1,15,-1
 0 900 l 1,16,-1
 100 900 l 1,17,-1
 100 1000 l 1,4,-1
EndSplineSet
EndChar

StartChar: periodcentered
Encoding: 183 183 117
Width: 800
Flags: W
LayerCount: 2
Fore
SplineSet
200 400 m 1,0,-1
 400 400 l 1,1,-1
 400 300 l 1,2,-1
 200 300 l 1,3,-1
 200 400 l 1,0,-1
EndSplineSet
EndChar

StartChar: cedilla
Encoding: 184 184 118
Width: 800
Flags: W
LayerCount: 2
Fore
SplineSet
300 0 m 1,0,-1
 400 0 l 1,1,-1
 400 -100 l 1,2,-1
 300 -100 l 1,3,-1
 300 0 l 1,0,-1
400 -100 m 1,4,-1
 500 -100 l 1,5,-1
 500 -200 l 1,6,-1
 400 -200 l 1,7,-1
 400 -100 l 1,4,-1
100 -200 m 1,8,-1
 400 -200 l 1,9,-1
 400 -300 l 1,10,-1
 100 -300 l 1,11,-1
 100 -200 l 1,8,-1
EndSplineSet
EndChar

StartChar: uni00B9
Encoding: 185 185 119
Width: 800
Flags: W
LayerCount: 2
Fore
SplineSet
300 1100 m 1,0,-1
 500 1100 l 1,1,-1
 500 500 l 1,2,-1
 300 500 l 1,3,-1
 300 900 l 1,4,-1
 200 900 l 1,5,-1
 200 1000 l 1,6,-1
 300 1000 l 1,7,-1
 300 1100 l 1,0,-1
EndSplineSet
EndChar

StartChar: ordmasculine
Encoding: 186 186 120
Width: 800
Flags: W
LayerCount: 2
Fore
SplineSet
500 900 m 1,0,-1
 300 900 l 1,1,-1
 300 700 l 1,2,-1
 500 700 l 1,3,-1
 500 900 l 1,0,-1
200 1000 m 1,4,-1
 600 1000 l 1,5,-1
 600 900 l 1,6,-1
 700 900 l 1,7,-1
 700 700 l 1,8,-1
 600 700 l 1,9,-1
 600 600 l 1,10,-1
 200 600 l 1,11,-1
 200 700 l 1,12,-1
 100 700 l 1,13,-1
 100 900 l 1,14,-1
 200 900 l 1,15,-1
 200 1000 l 1,4,-1
100 500 m 1,16,-1
 700 500 l 1,17,-1
 700 400 l 1,18,-1
 100 400 l 1,19,-1
 100 500 l 1,16,-1
EndSplineSet
EndChar

StartChar: onequarter
Encoding: 188 188 122
Width: 800
Flags: W
LayerCount: 2
Fore
SplineSet
100 1100 m 1,0,-1
 300 1100 l 1,1,-1
 300 700 l 1,2,-1
 400 700 l 1,3,-1
 400 800 l 1,4,-1
 500 800 l 1,5,-1
 500 900 l 1,6,-1
 600 900 l 1,7,-1
 600 700 l 1,8,-1
 500 700 l 1,9,-1
 500 600 l 1,10,-1
 400 600 l 1,11,-1
 400 500 l 1,12,-1
 300 500 l 1,13,-1
 300 400 l 1,14,-1
 200 400 l 1,15,-1
 200 300 l 1,16,-1
 100 300 l 1,17,-1
 100 200 l 1,18,-1
 0 200 l 1,19,-1
 0 400 l 1,20,-1
 100 400 l 1,21,-1
 100 500 l 1,22,-1
 200 500 l 1,23,-1
 200 600 l 1,24,-1
 100 600 l 1,25,-1
 100 900 l 1,26,-1
 0 900 l 1,27,-1
 0 1000 l 1,28,-1
 100 1000 l 1,29,-1
 100 1100 l 1,0,-1
400 500 m 1,30,-1
 600 500 l 1,31,-1
 600 200 l 1,32,-1
 700 200 l 1,33,-1
 700 100 l 1,34,-1
 600 100 l 1,35,-1
 600 -100 l 1,36,-1
 400 -100 l 1,37,-1
 400 100 l 1,38,-1
 200 100 l 1,39,-1
 200 300 l 1,40,-1
 300 300 l 1,41,-1
 300 200 l 1,42,-1
 400 200 l 1,43,-1
 400 300 l 1,44,-1
 300 300 l 1,45,-1
 300 400 l 1,46,-1
 400 400 l 1,47,-1
 400 500 l 1,30,-1
EndSplineSet
EndChar

StartChar: onehalf
Encoding: 189 189 123
Width: 800
Flags: W
LayerCount: 2
Fore
SplineSet
100 1100 m 1,0,-1
 300 1100 l 1,1,-1
 300 700 l 1,2,-1
 400 700 l 1,3,-1
 400 800 l 1,4,-1
 500 800 l 1,5,-1
 500 900 l 1,6,-1
 600 900 l 1,7,-1
 600 700 l 1,8,-1
 500 700 l 1,9,-1
 500 600 l 1,10,-1
 400 600 l 1,11,-1
 400 500 l 1,12,-1
 300 500 l 1,13,-1
 300 400 l 1,14,-1
 200 400 l 1,15,-1
 200 300 l 1,16,-1
 100 300 l 1,17,-1
 100 200 l 1,18,-1
 0 200 l 1,19,-1
 0 400 l 1,20,-1
 100 400 l 1,21,-1
 100 500 l 1,22,-1
 200 500 l 1,23,-1
 200 600 l 1,24,-1
 100 600 l 1,25,-1
 100 900 l 1,26,-1
 0 900 l 1,27,-1
 0 1000 l 1,28,-1
 100 1000 l 1,29,-1
 100 1100 l 1,0,-1
300 400 m 1,30,-1
 600 400 l 1,31,-1
 600 300 l 1,32,-1
 700 300 l 1,33,-1
 700 200 l 1,34,-1
 600 200 l 1,35,-1
 600 100 l 1,36,-1
 500 100 l 1,37,-1
 500 0 l 1,38,-1
 700 0 l 1,39,-1
 700 -100 l 1,40,-1
 200 -100 l 1,41,-1
 200 0 l 1,42,-1
 300 0 l 1,43,-1
 300 100 l 1,44,-1
 400 100 l 1,45,-1
 400 200 l 1,46,-1
 500 200 l 1,47,-1
 500 300 l 1,48,-1
 400 300 l 1,49,-1
 400 200 l 1,50,-1
 200 200 l 1,51,-1
 200 300 l 1,52,-1
 300 300 l 1,53,-1
 300 400 l 1,30,-1
EndSplineSet
EndChar

StartChar: threequarters
Encoding: 190 190 124
Width: 800
Flags: W
LayerCount: 2
Fore
SplineSet
0 1100 m 1,0,-1
 300 1100 l 1,1,-1
 300 1000 l 1,2,-1
 400 1000 l 1,3,-1
 400 900 l 1,4,-1
 300 900 l 1,5,-1
 300 800 l 1,6,-1
 500 800 l 1,7,-1
 500 900 l 1,8,-1
 600 900 l 1,9,-1
 600 700 l 1,10,-1
 500 700 l 1,11,-1
 500 600 l 1,12,-1
 400 600 l 1,13,-1
 400 500 l 1,14,-1
 300 500 l 1,15,-1
 300 400 l 1,16,-1
 200 400 l 1,17,-1
 200 300 l 1,18,-1
 100 300 l 1,19,-1
 100 200 l 1,20,-1
 0 200 l 1,21,-1
 0 400 l 1,22,-1
 100 400 l 1,23,-1
 100 500 l 1,24,-1
 200 500 l 1,25,-1
 200 600 l 1,26,-1
 0 600 l 1,27,-1
 0 700 l 1,28,-1
 200 700 l 1,29,-1
 200 800 l 1,30,-1
 100 800 l 1,31,-1
 100 900 l 1,32,-1
 200 900 l 1,33,-1
 200 1000 l 1,34,-1
 0 1000 l 1,35,-1
 0 1100 l 1,0,-1
400 500 m 1,36,-1
 600 500 l 1,37,-1
 600 200 l 1,38,-1
 700 200 l 1,39,-1
 700 100 l 1,40,-1
 600 100 l 1,41,-1
 600 -100 l 1,42,-1
 400 -100 l 1,43,-1
 400 100 l 1,44,-1
 200 100 l 1,45,-1
 200 300 l 1,46,-1
 300 300 l 1,47,-1
 300 200 l 1,48,-1
 400 200 l 1,49,-1
 400 300 l 1,50,-1
 300 300 l 1,51,-1
 300 400 l 1,52,-1
 400 400 l 1,53,-1
 400 500 l 1,36,-1
EndSplineSet
EndChar

StartChar: Agrave
Encoding: 192 192 126
Width: 800
Flags: W
LayerCount: 2
Fore
SplineSet
100 1200 m 1,0,-1
 300 1200 l 1,1,-1
 300 1100 l 1,2,-1
 400 1100 l 1,3,-1
 400 1000 l 1,4,-1
 200 1000 l 1,5,-1
 200 1100 l 1,6,-1
 100 1100 l 1,7,-1
 100 1200 l 1,0,-1
400 800 m 1,8,-1
 300 800 l 1,9,-1
 300 700 l 1,10,-1
 200 700 l 1,11,-1
 200 500 l 1,12,-1
 500 500 l 1,13,-1
 500 700 l 1,14,-1
 400 700 l 1,15,-1
 400 800 l 1,8,-1
400 1000 m 1,16,-1
 500 1000 l 1,17,-1
 500 800 l 1,18,-1
 600 800 l 1,19,-1
 600 700 l 1,20,-1
 700 700 l 1,21,-1
 700 0 l 1,22,-1
 500 0 l 1,23,-1
 500 400 l 1,24,-1
 200 400 l 1,25,-1
 200 0 l 1,26,-1
 0 0 l 1,27,-1
 0 700 l 1,28,-1
 100 700 l 1,29,-1
 100 800 l 1,30,-1
 200 800 l 1,31,-1
 200 900 l 1,32,-1
 400 900 l 1,33,-1
 400 1000 l 1,16,-1
EndSplineSet
EndChar

StartChar: Aacute
Encoding: 193 193 127
Width: 800
Flags: W
LayerCount: 2
Fore
SplineSet
400 1200 m 1,0,-1
 600 1200 l 1,1,-1
 600 1100 l 1,2,-1
 500 1100 l 1,3,-1
 500 1000 l 1,4,-1
 300 1000 l 1,5,-1
 300 1100 l 1,6,-1
 400 1100 l 1,7,-1
 400 1200 l 1,0,-1
400 800 m 1,8,-1
 300 800 l 1,9,-1
 300 700 l 1,10,-1
 200 700 l 1,11,-1
 200 500 l 1,12,-1
 500 500 l 1,13,-1
 500 700 l 1,14,-1
 400 700 l 1,15,-1
 400 800 l 1,8,-1
200 1000 m 1,16,-1
 300 1000 l 1,17,-1
 300 900 l 1,18,-1
 500 900 l 1,19,-1
 500 800 l 1,20,-1
 600 800 l 1,21,-1
 600 700 l 1,22,-1
 700 700 l 1,23,-1
 700 0 l 1,24,-1
 500 0 l 1,25,-1
 500 400 l 1,26,-1
 200 400 l 1,27,-1
 200 0 l 1,28,-1
 0 0 l 1,29,-1
 0 700 l 1,30,-1
 100 700 l 1,31,-1
 100 800 l 1,32,-1
 200 800 l 1,33,-1
 200 1000 l 1,16,-1
EndSplineSet
EndChar

StartChar: Acircumflex
Encoding: 194 194 128
Width: 800
Flags: W
LayerCount: 2
Fore
SplineSet
300 1200 m 1,0,-1
 400 1200 l 1,1,-1
 400 1100 l 1,2,-1
 500 1100 l 1,3,-1
 500 1000 l 1,4,-1
 200 1000 l 1,5,-1
 200 1100 l 1,6,-1
 300 1100 l 1,7,-1
 300 1200 l 1,0,-1
100 1000 m 1,8,-1
 200 1000 l 1,9,-1
 200 900 l 1,10,-1
 100 900 l 1,11,-1
 100 1000 l 1,8,-1
500 1000 m 1,12,-1
 600 1000 l 1,13,-1
 600 900 l 1,14,-1
 500 900 l 1,15,-1
 500 1000 l 1,12,-1
400 800 m 1,16,-1
 300 800 l 1,17,-1
 300 700 l 1,18,-1
 200 700 l 1,19,-1
 200 500 l 1,20,-1
 500 500 l 1,21,-1
 500 700 l 1,22,-1
 400 700 l 1,23,-1
 400 800 l 1,16,-1
200 900 m 1,24,-1
 500 900 l 1,25,-1
 500 800 l 1,26,-1
 600 800 l 1,27,-1
 600 700 l 1,28,-1
 700 700 l 1,29,-1
 700 0 l 1,30,-1
 500 0 l 1,31,-1
 500 400 l 1,32,-1
 200 400 l 1,33,-1
 200 0 l 1,34,-1
 0 0 l 1,35,-1
 0 700 l 1,36,-1
 100 700 l 1,37,-1
 100 800 l 1,38,-1
 200 800 l 1,39,-1
 200 900 l 1,24,-1
EndSplineSet
EndChar

StartChar: Atilde
Encoding: 195 195 129
Width: 800
Flags: W
LayerCount: 2
Fore
SplineSet
100 1200 m 1,0,-1
 400 1200 l 1,1,-1
 400 1100 l 1,2,-1
 500 1100 l 1,3,-1
 500 1200 l 1,4,-1
 700 1200 l 1,5,-1
 700 1100 l 1,6,-1
 600 1100 l 1,7,-1
 600 1000 l 1,8,-1
 300 1000 l 1,9,-1
 300 1100 l 1,10,-1
 200 1100 l 1,11,-1
 200 1000 l 1,12,-1
 0 1000 l 1,13,-1
 0 1100 l 1,14,-1
 100 1100 l 1,15,-1
 100 1200 l 1,0,-1
400 800 m 1,16,-1
 300 800 l 1,17,-1
 300 700 l 1,18,-1
 200 700 l 1,19,-1
 200 500 l 1,20,-1
 500 500 l 1,21,-1
 500 700 l 1,22,-1
 400 700 l 1,23,-1
 400 800 l 1,16,-1
200 900 m 1,24,-1
 500 900 l 1,25,-1
 500 800 l 1,26,-1
 600 800 l 1,27,-1
 600 700 l 1,28,-1
 700 700 l 1,29,-1
 700 0 l 1,30,-1
 500 0 l 1,31,-1
 500 400 l 1,32,-1
 200 400 l 1,33,-1
 200 0 l 1,34,-1
 0 0 l 1,35,-1
 0 700 l 1,36,-1
 100 700 l 1,37,-1
 100 800 l 1,38,-1
 200 800 l 1,39,-1
 200 900 l 1,24,-1
EndSplineSet
EndChar

StartChar: Adieresis
Encoding: 196 196 130
Width: 800
Flags: W
LayerCount: 2
Fore
SplineSet
0 1200 m 1,0,-1
 200 1200 l 1,1,-1
 200 1000 l 1,2,-1
 0 1000 l 1,3,-1
 0 1200 l 1,0,-1
500 1200 m 1,4,-1
 700 1200 l 1,5,-1
 700 1000 l 1,6,-1
 500 1000 l 1,7,-1
 500 1200 l 1,4,-1
400 800 m 1,8,-1
 300 800 l 1,9,-1
 300 700 l 1,10,-1
 200 700 l 1,11,-1
 200 500 l 1,12,-1
 500 500 l 1,13,-1
 500 700 l 1,14,-1
 400 700 l 1,15,-1
 400 800 l 1,8,-1
200 900 m 1,16,-1
 500 900 l 1,17,-1
 500 800 l 1,18,-1
 600 800 l 1,19,-1
 600 700 l 1,20,-1
 700 700 l 1,21,-1
 700 0 l 1,22,-1
 500 0 l 1,23,-1
 500 400 l 1,24,-1
 200 400 l 1,25,-1
 200 0 l 1,26,-1
 0 0 l 1,27,-1
 0 700 l 1,28,-1
 100 700 l 1,29,-1
 100 800 l 1,30,-1
 200 800 l 1,31,-1
 200 900 l 1,16,-1
EndSplineSet
EndChar

StartChar: Aring
Encoding: 197 197 131
Width: 800
Flags: W
LayerCount: 2
Fore
SplineSet
200 1200 m 1,0,-1
 500 1200 l 1,1,-1
 500 1100 l 1,2,-1
 200 1100 l 1,3,-1
 200 1200 l 1,0,-1
100 1100 m 1,4,-1
 200 1100 l 1,5,-1
 200 1000 l 1,6,-1
 100 1000 l 1,7,-1
 100 1100 l 1,4,-1
500 1100 m 1,8,-1
 600 1100 l 1,9,-1
 600 1000 l 1,10,-1
 500 1000 l 1,11,-1
 500 1100 l 1,8,-1
400 800 m 1,12,-1
 300 800 l 1,13,-1
 300 700 l 1,14,-1
 200 700 l 1,15,-1
 200 500 l 1,16,-1
 500 500 l 1,17,-1
 500 700 l 1,18,-1
 400 700 l 1,19,-1
 400 800 l 1,12,-1
200 1000 m 1,20,-1
 500 1000 l 1,21,-1
 500 800 l 1,22,-1
 600 800 l 1,23,-1
 600 700 l 1,24,-1
 700 700 l 1,25,-1
 700 0 l 1,26,-1
 500 0 l 1,27,-1
 500 400 l 1,28,-1
 200 400 l 1,29,-1
 200 0 l 1,30,-1
 0 0 l 1,31,-1
 0 700 l 1,32,-1
 100 700 l 1,33,-1
 100 800 l 1,34,-1
 200 800 l 1,35,-1
 200 1000 l 1,20,-1
EndSplineSet
EndChar

StartChar: AE
Encoding: 198 198 132
Width: 800
Flags: W
LayerCount: 2
Fore
SplineSet
400 900 m 1,0,-1
 300 900 l 1,1,-1
 300 800 l 1,2,-1
 200 800 l 1,3,-1
 200 500 l 1,4,-1
 400 500 l 1,5,-1
 400 900 l 1,0,-1
200 1000 m 1,6,-1
 700 1000 l 1,7,-1
 700 800 l 1,8,-1
 600 800 l 1,9,-1
 600 900 l 1,10,-1
 500 900 l 1,11,-1
 500 600 l 1,12,-1
 600 600 l 1,13,-1
 600 400 l 1,14,-1
 500 400 l 1,15,-1
 500 100 l 1,16,-1
 600 100 l 1,17,-1
 600 200 l 1,18,-1
 700 200 l 1,19,-1
 700 0 l 1,20,-1
 400 0 l 1,21,-1
 400 400 l 1,22,-1
 200 400 l 1,23,-1
 200 0 l 1,24,-1
 0 0 l 1,25,-1
 0 800 l 1,26,-1
 100 800 l 1,27,-1
 100 900 l 1,28,-1
 200 900 l 1,29,-1
 200 1000 l 1,6,-1
EndSplineSet
EndChar

StartChar: Ccedilla
Encoding: 199 199 133
Width: 800
Flags: W
LayerCount: 2
Fore
SplineSet
100 1000 m 1,0,-1
 600 1000 l 1,1,-1
 600 900 l 1,2,-1
 700 900 l 1,3,-1
 700 700 l 1,4,-1
 500 700 l 1,5,-1
 500 900 l 1,6,-1
 200 900 l 1,7,-1
 200 100 l 1,8,-1
 500 100 l 1,9,-1
 500 300 l 1,10,-1
 700 300 l 1,11,-1
 700 100 l 1,12,-1
 600 100 l 1,13,-1
 600 0 l 1,14,-1
 400 0 l 1,15,-1
 400 -100 l 1,16,-1
 300 -100 l 1,17,-1
 300 0 l 1,18,-1
 100 0 l 1,19,-1
 100 100 l 1,20,-1
 0 100 l 1,21,-1
 0 900 l 1,22,-1
 100 900 l 1,23,-1
 100 1000 l 1,0,-1
400 -100 m 1,24,-1
 500 -100 l 1,25,-1
 500 -200 l 1,26,-1
 400 -200 l 1,27,-1
 400 -100 l 1,24,-1
100 -200 m 1,28,-1
 400 -200 l 1,29,-1
 400 -300 l 1,30,-1
 100 -300 l 1,31,-1
 100 -200 l 1,28,-1
EndSplineSet
EndChar

StartChar: Egrave
Encoding: 200 200 134
Width: 800
Flags: W
LayerCount: 2
Fore
SplineSet
100 1200 m 1,0,-1
 300 1200 l 1,1,-1
 300 1100 l 1,2,-1
 400 1100 l 1,3,-1
 400 1000 l 1,4,-1
 200 1000 l 1,5,-1
 200 1100 l 1,6,-1
 100 1100 l 1,7,-1
 100 1200 l 1,0,-1
400 1000 m 1,8,-1
 500 1000 l 1,9,-1
 500 900 l 1,10,-1
 700 900 l 1,11,-1
 700 600 l 1,12,-1
 600 600 l 1,13,-1
 600 700 l 1,14,-1
 500 700 l 1,15,-1
 500 800 l 1,16,-1
 300 800 l 1,17,-1
 300 500 l 1,18,-1
 400 500 l 1,19,-1
 400 600 l 1,20,-1
 500 600 l 1,21,-1
 500 300 l 1,22,-1
 400 300 l 1,23,-1
 400 400 l 1,24,-1
 300 400 l 1,25,-1
 300 100 l 1,26,-1
 500 100 l 1,27,-1
 500 200 l 1,28,-1
 600 200 l 1,29,-1
 600 300 l 1,30,-1
 700 300 l 1,31,-1
 700 0 l 1,32,-1
 0 0 l 1,33,-1
 0 100 l 1,34,-1
 100 100 l 1,35,-1
 100 800 l 1,36,-1
 0 800 l 1,37,-1
 0 900 l 1,38,-1
 400 900 l 1,39,-1
 400 1000 l 1,8,-1
EndSplineSet
EndChar

StartChar: Eacute
Encoding: 201 201 135
Width: 800
Flags: W
LayerCount: 2
Fore
SplineSet
400 1200 m 1,0,-1
 600 1200 l 1,1,-1
 600 1100 l 1,2,-1
 500 1100 l 1,3,-1
 500 1000 l 1,4,-1
 300 1000 l 1,5,-1
 300 1100 l 1,6,-1
 400 1100 l 1,7,-1
 400 1200 l 1,0,-1
200 1000 m 1,8,-1
 300 1000 l 1,9,-1
 300 900 l 1,10,-1
 700 900 l 1,11,-1
 700 600 l 1,12,-1
 600 600 l 1,13,-1
 600 700 l 1,14,-1
 500 700 l 1,15,-1
 500 800 l 1,16,-1
 300 800 l 1,17,-1
 300 500 l 1,18,-1
 400 500 l 1,19,-1
 400 600 l 1,20,-1
 500 600 l 1,21,-1
 500 300 l 1,22,-1
 400 300 l 1,23,-1
 400 400 l 1,24,-1
 300 400 l 1,25,-1
 300 100 l 1,26,-1
 500 100 l 1,27,-1
 500 200 l 1,28,-1
 600 200 l 1,29,-1
 600 300 l 1,30,-1
 700 300 l 1,31,-1
 700 0 l 1,32,-1
 0 0 l 1,33,-1
 0 100 l 1,34,-1
 100 100 l 1,35,-1
 100 800 l 1,36,-1
 0 800 l 1,37,-1
 0 900 l 1,38,-1
 200 900 l 1,39,-1
 200 1000 l 1,8,-1
EndSplineSet
EndChar

StartChar: Ecircumflex
Encoding: 202 202 136
Width: 800
Flags: W
LayerCount: 2
Fore
SplineSet
300 1200 m 1,0,-1
 400 1200 l 1,1,-1
 400 1100 l 1,2,-1
 500 1100 l 1,3,-1
 500 1000 l 1,4,-1
 200 1000 l 1,5,-1
 200 1100 l 1,6,-1
 300 1100 l 1,7,-1
 300 1200 l 1,0,-1
100 1000 m 1,8,-1
 200 1000 l 1,9,-1
 200 900 l 1,10,-1
 500 900 l 1,11,-1
 500 1000 l 1,12,-1
 600 1000 l 1,13,-1
 600 900 l 1,14,-1
 700 900 l 1,15,-1
 700 600 l 1,16,-1
 600 600 l 1,17,-1
 600 700 l 1,18,-1
 500 700 l 1,19,-1
 500 800 l 1,20,-1
 300 800 l 1,21,-1
 300 500 l 1,22,-1
 400 500 l 1,23,-1
 400 600 l 1,24,-1
 500 600 l 1,25,-1
 500 300 l 1,26,-1
 400 300 l 1,27,-1
 400 400 l 1,28,-1
 300 400 l 1,29,-1
 300 100 l 1,30,-1
 500 100 l 1,31,-1
 500 200 l 1,32,-1
 600 200 l 1,33,-1
 600 300 l 1,34,-1
 700 300 l 1,35,-1
 700 0 l 1,36,-1
 0 0 l 1,37,-1
 0 100 l 1,38,-1
 100 100 l 1,39,-1
 100 800 l 1,40,-1
 0 800 l 1,41,-1
 0 900 l 1,42,-1
 100 900 l 1,43,-1
 100 1000 l 1,8,-1
EndSplineSet
EndChar

StartChar: Edieresis
Encoding: 203 203 137
Width: 800
Flags: W
LayerCount: 2
Fore
SplineSet
0 1200 m 1,0,-1
 200 1200 l 1,1,-1
 200 1000 l 1,2,-1
 0 1000 l 1,3,-1
 0 1200 l 1,0,-1
500 1200 m 1,4,-1
 700 1200 l 1,5,-1
 700 1000 l 1,6,-1
 500 1000 l 1,7,-1
 500 1200 l 1,4,-1
0 900 m 1,8,-1
 700 900 l 1,9,-1
 700 600 l 1,10,-1
 600 600 l 1,11,-1
 600 700 l 1,12,-1
 500 700 l 1,13,-1
 500 800 l 1,14,-1
 300 800 l 1,15,-1
 300 500 l 1,16,-1
 400 500 l 1,17,-1
 400 600 l 1,18,-1
 500 600 l 1,19,-1
 500 300 l 1,20,-1
 400 300 l 1,21,-1
 400 400 l 1,22,-1
 300 400 l 1,23,-1
 300 100 l 1,24,-1
 500 100 l 1,25,-1
 500 200 l 1,26,-1
 600 200 l 1,27,-1
 600 300 l 1,28,-1
 700 300 l 1,29,-1
 700 0 l 1,30,-1
 0 0 l 1,31,-1
 0 100 l 1,32,-1
 100 100 l 1,33,-1
 100 800 l 1,34,-1
 0 800 l 1,35,-1
 0 900 l 1,8,-1
EndSplineSet
EndChar

StartChar: Igrave
Encoding: 204 204 138
Width: 800
Flags: W
LayerCount: 2
Fore
SplineSet
100 1200 m 1,0,-1
 300 1200 l 1,1,-1
 300 1100 l 1,2,-1
 400 1100 l 1,3,-1
 400 1000 l 1,4,-1
 200 1000 l 1,5,-1
 200 1100 l 1,6,-1
 100 1100 l 1,7,-1
 100 1200 l 1,0,-1
400 1000 m 1,8,-1
 500 1000 l 1,9,-1
 500 900 l 1,10,-1
 600 900 l 1,11,-1
 600 800 l 1,12,-1
 500 800 l 1,13,-1
 500 100 l 1,14,-1
 600 100 l 1,15,-1
 600 0 l 1,16,-1
 200 0 l 1,17,-1
 200 100 l 1,18,-1
 300 100 l 1,19,-1
 300 800 l 1,20,-1
 200 800 l 1,21,-1
 200 900 l 1,22,-1
 400 900 l 1,23,-1
 400 1000 l 1,8,-1
EndSplineSet
EndChar

StartChar: Iacute
Encoding: 205 205 139
Width: 800
Flags: W
LayerCount: 2
Fore
SplineSet
500 1200 m 1,0,-1
 700 1200 l 1,1,-1
 700 1100 l 1,2,-1
 600 1100 l 1,3,-1
 600 1000 l 1,4,-1
 400 1000 l 1,5,-1
 400 1100 l 1,6,-1
 500 1100 l 1,7,-1
 500 1200 l 1,0,-1
300 1000 m 1,8,-1
 400 1000 l 1,9,-1
 400 900 l 1,10,-1
 600 900 l 1,11,-1
 600 800 l 1,12,-1
 500 800 l 1,13,-1
 500 100 l 1,14,-1
 600 100 l 1,15,-1
 600 0 l 1,16,-1
 200 0 l 1,17,-1
 200 100 l 1,18,-1
 300 100 l 1,19,-1
 300 800 l 1,20,-1
 200 800 l 1,21,-1
 200 900 l 1,22,-1
 300 900 l 1,23,-1
 300 1000 l 1,8,-1
EndSplineSet
EndChar

StartChar: Icircumflex
Encoding: 206 206 140
Width: 800
Flags: W
LayerCount: 2
Fore
SplineSet
300 1200 m 1,0,-1
 500 1200 l 1,1,-1
 500 1100 l 1,2,-1
 600 1100 l 1,3,-1
 600 1000 l 1,4,-1
 200 1000 l 1,5,-1
 200 1100 l 1,6,-1
 300 1100 l 1,7,-1
 300 1200 l 1,0,-1
100 1000 m 1,8,-1
 200 1000 l 1,9,-1
 200 900 l 1,10,-1
 100 900 l 1,11,-1
 100 1000 l 1,8,-1
600 1000 m 1,12,-1
 700 1000 l 1,13,-1
 700 900 l 1,14,-1
 600 900 l 1,15,-1
 600 1000 l 1,12,-1
200 900 m 1,16,-1
 600 900 l 1,17,-1
 600 800 l 1,18,-1
 500 800 l 1,19,-1
 500 100 l 1,20,-1
 600 100 l 1,21,-1
 600 0 l 1,22,-1
 200 0 l 1,23,-1
 200 100 l 1,24,-1
 300 100 l 1,25,-1
 300 800 l 1,26,-1
 200 800 l 1,27,-1
 200 900 l 1,16,-1
EndSplineSet
EndChar

StartChar: Idieresis
Encoding: 207 207 141
Width: 800
Flags: W
LayerCount: 2
Fore
SplineSet
100 1200 m 1,0,-1
 300 1200 l 1,1,-1
 300 1000 l 1,2,-1
 100 1000 l 1,3,-1
 100 1200 l 1,0,-1
500 1200 m 1,4,-1
 700 1200 l 1,5,-1
 700 1000 l 1,6,-1
 500 1000 l 1,7,-1
 500 1200 l 1,4,-1
200 900 m 1,8,-1
 600 900 l 1,9,-1
 600 800 l 1,10,-1
 500 800 l 1,11,-1
 500 100 l 1,12,-1
 600 100 l 1,13,-1
 600 0 l 1,14,-1
 200 0 l 1,15,-1
 200 100 l 1,16,-1
 300 100 l 1,17,-1
 300 800 l 1,18,-1
 200 800 l 1,19,-1
 200 900 l 1,8,-1
EndSplineSet
EndChar

StartChar: Eth
Encoding: 208 208 142
Width: 800
Flags: W
LayerCount: 2
Fore
SplineSet
500 900 m 1,0,-1
 300 900 l 1,1,-1
 300 600 l 1,2,-1
 400 600 l 1,3,-1
 400 500 l 1,4,-1
 300 500 l 1,5,-1
 300 100 l 1,6,-1
 500 100 l 1,7,-1
 500 900 l 1,0,-1
0 1000 m 1,8,-1
 600 1000 l 1,9,-1
 600 900 l 1,10,-1
 700 900 l 1,11,-1
 700 100 l 1,12,-1
 600 100 l 1,13,-1
 600 0 l 1,14,-1
 0 0 l 1,15,-1
 0 100 l 1,16,-1
 100 100 l 1,17,-1
 100 500 l 1,18,-1
 0 500 l 1,19,-1
 0 600 l 1,20,-1
 100 600 l 1,21,-1
 100 900 l 1,22,-1
 0 900 l 1,23,-1
 0 1000 l 1,8,-1
EndSplineSet
EndChar

StartChar: Ntilde
Encoding: 209 209 143
Width: 800
Flags: W
LayerCount: 2
Fore
SplineSet
100 1200 m 1,0,-1
 400 1200 l 1,1,-1
 400 1100 l 1,2,-1
 500 1100 l 1,3,-1
 500 1200 l 1,4,-1
 700 1200 l 1,5,-1
 700 1100 l 1,6,-1
 600 1100 l 1,7,-1
 600 1000 l 1,8,-1
 300 1000 l 1,9,-1
 300 1100 l 1,10,-1
 200 1100 l 1,11,-1
 200 1000 l 1,12,-1
 0 1000 l 1,13,-1
 0 1100 l 1,14,-1
 100 1100 l 1,15,-1
 100 1200 l 1,0,-1
0 900 m 1,16,-1
 100 900 l 1,17,-1
 100 800 l 1,18,-1
 200 800 l 1,19,-1
 200 700 l 1,20,-1
 300 700 l 1,21,-1
 300 600 l 1,22,-1
 400 600 l 1,23,-1
 400 500 l 1,24,-1
 500 500 l 1,25,-1
 500 900 l 1,26,-1
 700 900 l 1,27,-1
 700 0 l 1,28,-1
 500 0 l 1,29,-1
 500 200 l 1,30,-1
 400 200 l 1,31,-1
 400 300 l 1,32,-1
 300 300 l 1,33,-1
 300 400 l 1,34,-1
 200 400 l 1,35,-1
 200 0 l 1,36,-1
 0 0 l 1,37,-1
 0 900 l 1,16,-1
EndSplineSet
EndChar

StartChar: Ograve
Encoding: 210 210 144
Width: 800
Flags: W
LayerCount: 2
Fore
SplineSet
100 1200 m 1,0,-1
 300 1200 l 1,1,-1
 300 1100 l 1,2,-1
 400 1100 l 1,3,-1
 400 1000 l 1,4,-1
 200 1000 l 1,5,-1
 200 1100 l 1,6,-1
 100 1100 l 1,7,-1
 100 1200 l 1,0,-1
500 800 m 1,8,-1
 200 800 l 1,9,-1
 200 100 l 1,10,-1
 500 100 l 1,11,-1
 500 800 l 1,8,-1
400 1000 m 1,12,-1
 500 1000 l 1,13,-1
 500 900 l 1,14,-1
 600 900 l 1,15,-1
 600 800 l 1,16,-1
 700 800 l 1,17,-1
 700 100 l 1,18,-1
 600 100 l 1,19,-1
 600 0 l 1,20,-1
 100 0 l 1,21,-1
 100 100 l 1,22,-1
 0 100 l 1,23,-1
 0 800 l 1,24,-1
 100 800 l 1,25,-1
 100 900 l 1,26,-1
 400 900 l 1,27,-1
 400 1000 l 1,12,-1
EndSplineSet
EndChar

StartChar: Oacute
Encoding: 211 211 145
Width: 800
Flags: W
LayerCount: 2
Fore
SplineSet
400 1200 m 1,0,-1
 600 1200 l 1,1,-1
 600 1100 l 1,2,-1
 500 1100 l 1,3,-1
 500 1000 l 1,4,-1
 300 1000 l 1,5,-1
 300 1100 l 1,6,-1
 400 1100 l 1,7,-1
 400 1200 l 1,0,-1
500 800 m 1,8,-1
 200 800 l 1,9,-1
 200 100 l 1,10,-1
 500 100 l 1,11,-1
 500 800 l 1,8,-1
200 1000 m 1,12,-1
 300 1000 l 1,13,-1
 300 900 l 1,14,-1
 600 900 l 1,15,-1
 600 800 l 1,16,-1
 700 800 l 1,17,-1
 700 100 l 1,18,-1
 600 100 l 1,19,-1
 600 0 l 1,20,-1
 100 0 l 1,21,-1
 100 100 l 1,22,-1
 0 100 l 1,23,-1
 0 800 l 1,24,-1
 100 800 l 1,25,-1
 100 900 l 1,26,-1
 200 900 l 1,27,-1
 200 1000 l 1,12,-1
EndSplineSet
EndChar

StartChar: Ocircumflex
Encoding: 212 212 146
Width: 800
Flags: W
LayerCount: 2
Fore
SplineSet
300 1200 m 1,0,-1
 400 1200 l 1,1,-1
 400 1100 l 1,2,-1
 500 1100 l 1,3,-1
 500 1000 l 1,4,-1
 200 1000 l 1,5,-1
 200 1100 l 1,6,-1
 300 1100 l 1,7,-1
 300 1200 l 1,0,-1
500 800 m 1,8,-1
 200 800 l 1,9,-1
 200 100 l 1,10,-1
 500 100 l 1,11,-1
 500 800 l 1,8,-1
100 1000 m 1,12,-1
 200 1000 l 1,13,-1
 200 900 l 1,14,-1
 500 900 l 1,15,-1
 500 1000 l 1,16,-1
 600 1000 l 1,17,-1
 600 800 l 1,18,-1
 700 800 l 1,19,-1
 700 100 l 1,20,-1
 600 100 l 1,21,-1
 600 0 l 1,22,-1
 100 0 l 1,23,-1
 100 100 l 1,24,-1
 0 100 l 1,25,-1
 0 800 l 1,26,-1
 100 800 l 1,27,-1
 100 1000 l 1,12,-1
EndSplineSet
EndChar

StartChar: Otilde
Encoding: 213 213 147
Width: 800
Flags: W
LayerCount: 2
Fore
SplineSet
100 1200 m 1,0,-1
 400 1200 l 1,1,-1
 400 1100 l 1,2,-1
 500 1100 l 1,3,-1
 500 1200 l 1,4,-1
 700 1200 l 1,5,-1
 700 1100 l 1,6,-1
 600 1100 l 1,7,-1
 600 1000 l 1,8,-1
 300 1000 l 1,9,-1
 300 1100 l 1,10,-1
 200 1100 l 1,11,-1
 200 1000 l 1,12,-1
 0 1000 l 1,13,-1
 0 1100 l 1,14,-1
 100 1100 l 1,15,-1
 100 1200 l 1,0,-1
500 800 m 1,16,-1
 200 800 l 1,17,-1
 200 100 l 1,18,-1
 500 100 l 1,19,-1
 500 800 l 1,16,-1
100 900 m 1,20,-1
 600 900 l 1,21,-1
 600 800 l 1,22,-1
 700 800 l 1,23,-1
 700 100 l 1,24,-1
 600 100 l 1,25,-1
 600 0 l 1,26,-1
 100 0 l 1,27,-1
 100 100 l 1,28,-1
 0 100 l 1,29,-1
 0 800 l 1,30,-1
 100 800 l 1,31,-1
 100 900 l 1,20,-1
EndSplineSet
EndChar

StartChar: Odieresis
Encoding: 214 214 148
Width: 800
Flags: W
LayerCount: 2
Fore
SplineSet
0 1200 m 1,0,-1
 200 1200 l 1,1,-1
 200 1000 l 1,2,-1
 0 1000 l 1,3,-1
 0 1200 l 1,0,-1
500 1200 m 1,4,-1
 700 1200 l 1,5,-1
 700 1000 l 1,6,-1
 500 1000 l 1,7,-1
 500 1200 l 1,4,-1
500 800 m 1,8,-1
 200 800 l 1,9,-1
 200 100 l 1,10,-1
 500 100 l 1,11,-1
 500 800 l 1,8,-1
100 900 m 1,12,-1
 600 900 l 1,13,-1
 600 800 l 1,14,-1
 700 800 l 1,15,-1
 700 100 l 1,16,-1
 600 100 l 1,17,-1
 600 0 l 1,18,-1
 100 0 l 1,19,-1
 100 100 l 1,20,-1
 0 100 l 1,21,-1
 0 800 l 1,22,-1
 100 800 l 1,23,-1
 100 900 l 1,12,-1
EndSplineSet
EndChar

StartChar: multiply
Encoding: 215 215 149
Width: 800
Flags: W
LayerCount: 2
Fore
SplineSet
100 700 m 1,0,-1
 300 700 l 1,1,-1
 300 600 l 1,2,-1
 500 600 l 1,3,-1
 500 700 l 1,4,-1
 700 700 l 1,5,-1
 700 600 l 1,6,-1
 600 600 l 1,7,-1
 600 500 l 1,8,-1
 500 500 l 1,9,-1
 500 400 l 1,10,-1
 600 400 l 1,11,-1
 600 300 l 1,12,-1
 700 300 l 1,13,-1
 700 200 l 1,14,-1
 500 200 l 1,15,-1
 500 300 l 1,16,-1
 300 300 l 1,17,-1
 300 200 l 1,18,-1
 100 200 l 1,19,-1
 100 300 l 1,20,-1
 200 300 l 1,21,-1
 200 400 l 1,22,-1
 300 400 l 1,23,-1
 300 500 l 1,24,-1
 200 500 l 1,25,-1
 200 600 l 1,26,-1
 100 600 l 1,27,-1
 100 700 l 1,0,-1
EndSplineSet
EndChar

StartChar: Oslash
Encoding: 216 216 150
Width: 800
Flags: W
LayerCount: 2
Fore
SplineSet
500 900 m 1,0,-1
 200 900 l 1,1,-1
 200 400 l 1,2,-1
 300 400 l 1,3,-1
 300 700 l 1,4,-1
 400 700 l 1,5,-1
 400 800 l 1,6,-1
 500 800 l 1,7,-1
 500 900 l 1,0,-1
600 1200 m 1,8,-1
 700 1200 l 1,9,-1
 700 1000 l 1,10,-1
 600 1000 l 1,11,-1
 600 900 l 1,12,-1
 700 900 l 1,13,-1
 700 100 l 1,14,-1
 600 100 l 1,15,-1
 600 0 l 1,16,-1
 200 0 l 1,17,-1
 200 -100 l 1,18,-1
 100 -100 l 1,19,-1
 100 -200 l 1,20,-1
 0 -200 l 1,21,-1
 0 0 l 1,22,-1
 100 0 l 1,23,-1
 100 100 l 1,24,-1
 0 100 l 1,25,-1
 0 900 l 1,26,-1
 100 900 l 1,27,-1
 100 1000 l 1,28,-1
 500 1000 l 1,29,-1
 500 1100 l 1,30,-1
 600 1100 l 1,31,-1
 600 1200 l 1,8,-1
500 600 m 1,32,-1
 400 600 l 1,33,-1
 400 300 l 1,34,-1
 300 300 l 1,35,-1
 300 200 l 1,36,-1
 200 200 l 1,37,-1
 200 100 l 1,38,-1
 500 100 l 1,39,-1
 500 600 l 1,32,-1
EndSplineSet
EndChar

StartChar: Ugrave
Encoding: 217 217 151
Width: 800
Flags: W
LayerCount: 2
Fore
SplineSet
100 1200 m 1,0,-1
 300 1200 l 1,1,-1
 300 1100 l 1,2,-1
 400 1100 l 1,3,-1
 400 1000 l 1,4,-1
 200 1000 l 1,5,-1
 200 1100 l 1,6,-1
 100 1100 l 1,7,-1
 100 1200 l 1,0,-1
400 1000 m 1,8,-1
 500 1000 l 1,9,-1
 500 900 l 1,10,-1
 400 900 l 1,11,-1
 400 1000 l 1,8,-1
0 900 m 1,12,-1
 200 900 l 1,13,-1
 200 100 l 1,14,-1
 500 100 l 1,15,-1
 500 900 l 1,16,-1
 700 900 l 1,17,-1
 700 100 l 1,18,-1
 600 100 l 1,19,-1
 600 0 l 1,20,-1
 100 0 l 1,21,-1
 100 100 l 1,22,-1
 0 100 l 1,23,-1
 0 900 l 1,12,-1
EndSplineSet
EndChar

StartChar: Uacute
Encoding: 218 218 152
Width: 800
Flags: W
LayerCount: 2
Fore
SplineSet
400 1200 m 1,0,-1
 600 1200 l 1,1,-1
 600 1100 l 1,2,-1
 500 1100 l 1,3,-1
 500 1000 l 1,4,-1
 300 1000 l 1,5,-1
 300 1100 l 1,6,-1
 400 1100 l 1,7,-1
 400 1200 l 1,0,-1
200 1000 m 1,8,-1
 300 1000 l 1,9,-1
 300 900 l 1,10,-1
 200 900 l 1,11,-1
 200 1000 l 1,8,-1
0 900 m 1,12,-1
 200 900 l 1,13,-1
 200 100 l 1,14,-1
 500 100 l 1,15,-1
 500 900 l 1,16,-1
 700 900 l 1,17,-1
 700 100 l 1,18,-1
 600 100 l 1,19,-1
 600 0 l 1,20,-1
 100 0 l 1,21,-1
 100 100 l 1,22,-1
 0 100 l 1,23,-1
 0 900 l 1,12,-1
EndSplineSet
EndChar

StartChar: Ucircumflex
Encoding: 219 219 153
Width: 800
Flags: W
LayerCount: 2
Fore
SplineSet
300 1200 m 1,0,-1
 400 1200 l 1,1,-1
 400 1100 l 1,2,-1
 500 1100 l 1,3,-1
 500 1000 l 1,4,-1
 200 1000 l 1,5,-1
 200 1100 l 1,6,-1
 300 1100 l 1,7,-1
 300 1200 l 1,0,-1
100 1000 m 1,8,-1
 200 1000 l 1,9,-1
 200 100 l 1,10,-1
 500 100 l 1,11,-1
 500 1000 l 1,12,-1
 600 1000 l 1,13,-1
 600 900 l 1,14,-1
 700 900 l 1,15,-1
 700 100 l 1,16,-1
 600 100 l 1,17,-1
 600 0 l 1,18,-1
 100 0 l 1,19,-1
 100 100 l 1,20,-1
 0 100 l 1,21,-1
 0 900 l 1,22,-1
 100 900 l 1,23,-1
 100 1000 l 1,8,-1
EndSplineSet
EndChar

StartChar: Udieresis
Encoding: 220 220 154
Width: 800
Flags: W
LayerCount: 2
Fore
SplineSet
0 1200 m 1,0,-1
 200 1200 l 1,1,-1
 200 1000 l 1,2,-1
 0 1000 l 1,3,-1
 0 1200 l 1,0,-1
500 1200 m 1,4,-1
 700 1200 l 1,5,-1
 700 1000 l 1,6,-1
 500 1000 l 1,7,-1
 500 1200 l 1,4,-1
0 900 m 1,8,-1
 200 900 l 1,9,-1
 200 100 l 1,10,-1
 500 100 l 1,11,-1
 500 900 l 1,12,-1
 700 900 l 1,13,-1
 700 100 l 1,14,-1
 600 100 l 1,15,-1
 600 0 l 1,16,-1
 100 0 l 1,17,-1
 100 100 l 1,18,-1
 0 100 l 1,19,-1
 0 900 l 1,8,-1
EndSplineSet
EndChar

StartChar: Yacute
Encoding: 221 221 155
Width: 800
Flags: W
LayerCount: 2
Fore
SplineSet
500 1200 m 1,0,-1
 700 1200 l 1,1,-1
 700 1100 l 1,2,-1
 600 1100 l 1,3,-1
 600 1000 l 1,4,-1
 400 1000 l 1,5,-1
 400 1100 l 1,6,-1
 500 1100 l 1,7,-1
 500 1200 l 1,0,-1
300 1000 m 1,8,-1
 400 1000 l 1,9,-1
 400 900 l 1,10,-1
 300 900 l 1,11,-1
 300 1000 l 1,8,-1
100 900 m 1,12,-1
 300 900 l 1,13,-1
 300 500 l 1,14,-1
 500 500 l 1,15,-1
 500 900 l 1,16,-1
 700 900 l 1,17,-1
 700 500 l 1,18,-1
 600 500 l 1,19,-1
 600 400 l 1,20,-1
 500 400 l 1,21,-1
 500 100 l 1,22,-1
 600 100 l 1,23,-1
 600 0 l 1,24,-1
 200 0 l 1,25,-1
 200 100 l 1,26,-1
 300 100 l 1,27,-1
 300 400 l 1,28,-1
 200 400 l 1,29,-1
 200 500 l 1,30,-1
 100 500 l 1,31,-1
 100 900 l 1,12,-1
EndSplineSet
EndChar

StartChar: Thorn
Encoding: 222 222 156
Width: 800
Flags: W
LayerCount: 2
Fore
SplineSet
500 700 m 1,0,-1
 300 700 l 1,1,-1
 300 300 l 1,2,-1
 500 300 l 1,3,-1
 500 700 l 1,0,-1
0 1000 m 1,4,-1
 400 1000 l 1,5,-1
 400 900 l 1,6,-1
 300 900 l 1,7,-1
 300 800 l 1,8,-1
 600 800 l 1,9,-1
 600 700 l 1,10,-1
 700 700 l 1,11,-1
 700 300 l 1,12,-1
 600 300 l 1,13,-1
 600 200 l 1,14,-1
 300 200 l 1,15,-1
 300 100 l 1,16,-1
 400 100 l 1,17,-1
 400 0 l 1,18,-1
 0 0 l 1,19,-1
 0 100 l 1,20,-1
 100 100 l 1,21,-1
 100 900 l 1,22,-1
 0 900 l 1,23,-1
 0 1000 l 1,4,-1
EndSplineSet
EndChar

StartChar: germandbls
Encoding: 223 223 157
Width: 800
Flags: W
LayerCount: 2
Fore
SplineSet
100 1000 m 1,0,-1
 500 1000 l 1,1,-1
 500 900 l 1,2,-1
 600 900 l 1,3,-1
 600 700 l 1,4,-1
 500 700 l 1,5,-1
 500 600 l 1,6,-1
 600 600 l 1,7,-1
 600 500 l 1,8,-1
 700 500 l 1,9,-1
 700 200 l 1,10,-1
 600 200 l 1,11,-1
 600 100 l 1,12,-1
 300 100 l 1,13,-1
 300 200 l 1,14,-1
 500 200 l 1,15,-1
 500 500 l 1,16,-1
 400 500 l 1,17,-1
 400 600 l 1,18,-1
 300 600 l 1,19,-1
 300 700 l 1,20,-1
 400 700 l 1,21,-1
 400 900 l 1,22,-1
 200 900 l 1,23,-1
 200 -100 l 1,24,-1
 100 -100 l 1,25,-1
 100 0 l 1,26,-1
 0 0 l 1,27,-1
 0 900 l 1,28,-1
 100 900 l 1,29,-1
 100 1000 l 1,0,-1
EndSplineSet
EndChar

StartChar: agrave
Encoding: 224 224 158
Width: 800
Flags: W
LayerCount: 2
Fore
SplineSet
0 1100 m 1,0,-1
 200 1100 l 1,1,-1
 200 1000 l 1,2,-1
 300 1000 l 1,3,-1
 300 900 l 1,4,-1
 100 900 l 1,5,-1
 100 1000 l 1,6,-1
 0 1000 l 1,7,-1
 0 1100 l 1,0,-1
300 900 m 1,8,-1
 400 900 l 1,9,-1
 400 800 l 1,10,-1
 300 800 l 1,11,-1
 300 900 l 1,8,-1
100 700 m 1,12,-1
 500 700 l 1,13,-1
 500 600 l 1,14,-1
 600 600 l 1,15,-1
 600 100 l 1,16,-1
 700 100 l 1,17,-1
 700 0 l 1,18,-1
 500 0 l 1,19,-1
 500 100 l 1,20,-1
 400 100 l 1,21,-1
 400 400 l 1,22,-1
 200 400 l 1,23,-1
 200 100 l 1,24,-1
 400 100 l 1,25,-1
 400 0 l 1,26,-1
 100 0 l 1,27,-1
 100 100 l 1,28,-1
 0 100 l 1,29,-1
 0 400 l 1,30,-1
 100 400 l 1,31,-1
 100 500 l 1,32,-1
 400 500 l 1,33,-1
 400 600 l 1,34,-1
 100 600 l 1,35,-1
 100 700 l 1,12,-1
EndSplineSet
EndChar

StartChar: ae
Encoding: 230 230 164
Width: 800
Flags: W
LayerCount: 2
Fore
SplineSet
100 700 m 1,0,-1
 600 700 l 1,1,-1
 600 600 l 1,2,-1
 400 600 l 1,3,-1
 400 400 l 1,4,-1
 600 400 l 1,5,-1
 600 600 l 1,6,-1
 700 600 l 1,7,-1
 700 300 l 1,8,-1
 400 300 l 1,9,-1
 400 100 l 1,10,-1
 600 100 l 1,11,-1
 600 0 l 1,12,-1
 100 0 l 1,13,-1
 100 100 l 1,14,-1
 300 100 l 1,15,-1
 300 400 l 1,16,-1
 100 400 l 1,17,-1
 100 500 l 1,18,-1
 300 500 l 1,19,-1
 300 600 l 1,20,-1
 100 600 l 1,21,-1
 100 700 l 1,0,-1
0 400 m 1,22,-1
 100 400 l 1,23,-1
 100 100 l 1,24,-1
 0 100 l 1,25,-1
 0 400 l 1,22,-1
600 200 m 1,26,-1
 700 200 l 1,27,-1
 700 100 l 1,28,-1
 600 100 l 1,29,-1
 600 200 l 1,26,-1
EndSplineSet
EndChar

StartChar: ccedilla
Encoding: 231 231 165
Width: 800
Flags: W
LayerCount: 2
Fore
SplineSet
100 700 m 1,0,-1
 600 700 l 1,1,-1
 600 600 l 1,2,-1
 700 600 l 1,3,-1
 700 500 l 1,4,-1
 500 500 l 1,5,-1
 500 600 l 1,6,-1
 200 600 l 1,7,-1
 200 100 l 1,8,-1
 500 100 l 1,9,-1
 500 200 l 1,10,-1
 700 200 l 1,11,-1
 700 100 l 1,12,-1
 600 100 l 1,13,-1
 600 0 l 1,14,-1
 400 0 l 1,15,-1
 400 -100 l 1,16,-1
 300 -100 l 1,17,-1
 300 0 l 1,18,-1
 100 0 l 1,19,-1
 100 100 l 1,20,-1
 0 100 l 1,21,-1
 0 600 l 1,22,-1
 100 600 l 1,23,-1
 100 700 l 1,0,-1
400 -100 m 1,24,-1
 500 -100 l 1,25,-1
 500 -200 l 1,26,-1
 400 -200 l 1,27,-1
 400 -100 l 1,24,-1
100 -200 m 1,28,-1
 400 -200 l 1,29,-1
 400 -300 l 1,30,-1
 100 -300 l 1,31,-1
 100 -200 l 1,28,-1
EndSplineSet
EndChar

StartChar: egrave
Encoding: 232 232 166
Width: 800
Flags: W
LayerCount: 2
Fore
SplineSet
0 1100 m 1,0,-1
 200 1100 l 1,1,-1
 200 1000 l 1,2,-1
 300 1000 l 1,3,-1
 300 900 l 1,4,-1
 100 900 l 1,5,-1
 100 1000 l 1,6,-1
 0 1000 l 1,7,-1
 0 1100 l 1,0,-1
300 900 m 1,8,-1
 400 900 l 1,9,-1
 400 800 l 1,10,-1
 300 800 l 1,11,-1
 300 900 l 1,8,-1
500 600 m 1,12,-1
 200 600 l 1,13,-1
 200 400 l 1,14,-1
 500 400 l 1,15,-1
 500 600 l 1,12,-1
100 700 m 1,16,-1
 600 700 l 1,17,-1
 600 600 l 1,18,-1
 700 600 l 1,19,-1
 700 300 l 1,20,-1
 200 300 l 1,21,-1
 200 100 l 1,22,-1
 500 100 l 1,23,-1
 500 200 l 1,24,-1
 700 200 l 1,25,-1
 700 100 l 1,26,-1
 600 100 l 1,27,-1
 600 0 l 1,28,-1
 100 0 l 1,29,-1
 100 100 l 1,30,-1
 0 100 l 1,31,-1
 0 600 l 1,32,-1
 100 600 l 1,33,-1
 100 700 l 1,16,-1
EndSplineSet
EndChar

StartChar: edieresis
Encoding: 235 235 169
Width: 800
Flags: W
LayerCount: 2
Fore
SplineSet
0 1000 m 1,0,-1
 200 1000 l 1,1,-1
 200 800 l 1,2,-1
 0 800 l 1,3,-1
 0 1000 l 1,0,-1
500 1000 m 1,4,-1
 700 1000 l 1,5,-1
 700 800 l 1,6,-1
 500 800 l 1,7,-1
 500 1000 l 1,4,-1
500 600 m 1,8,-1
 200 600 l 1,9,-1
 200 400 l 1,10,-1
 500 400 l 1,11,-1
 500 600 l 1,8,-1
100 700 m 1,12,-1
 600 700 l 1,13,-1
 600 600 l 1,14,-1
 700 600 l 1,15,-1
 700 300 l 1,16,-1
 200 300 l 1,17,-1
 200 100 l 1,18,-1
 500 100 l 1,19,-1
 500 200 l 1,20,-1
 700 200 l 1,21,-1
 700 100 l 1,22,-1
 600 100 l 1,23,-1
 600 0 l 1,24,-1
 100 0 l 1,25,-1
 100 100 l 1,26,-1
 0 100 l 1,27,-1
 0 600 l 1,28,-1
 100 600 l 1,29,-1
 100 700 l 1,12,-1
EndSplineSet
EndChar

StartChar: igrave
Encoding: 236 236 170
Width: 800
Flags: W
LayerCount: 2
Fore
SplineSet
0 1100 m 1,0,-1
 200 1100 l 1,1,-1
 200 1000 l 1,2,-1
 300 1000 l 1,3,-1
 300 900 l 1,4,-1
 100 900 l 1,5,-1
 100 1000 l 1,6,-1
 0 1000 l 1,7,-1
 0 1100 l 1,0,-1
300 900 m 1,8,-1
 400 900 l 1,9,-1
 400 800 l 1,10,-1
 300 800 l 1,11,-1
 300 900 l 1,8,-1
200 700 m 1,12,-1
 500 700 l 1,13,-1
 500 100 l 1,14,-1
 600 100 l 1,15,-1
 600 0 l 1,16,-1
 200 0 l 1,17,-1
 200 100 l 1,18,-1
 300 100 l 1,19,-1
 300 600 l 1,20,-1
 200 600 l 1,21,-1
 200 700 l 1,12,-1
EndSplineSet
EndChar

StartChar: eth
Encoding: 240 240 174
Width: 800
Flags: W
LayerCount: 2
Fore
SplineSet
300 1000 m 1,0,-1
 600 1000 l 1,1,-1
 600 800 l 1,2,-1
 700 800 l 1,3,-1
 700 700 l 1,4,-1
 600 700 l 1,5,-1
 600 100 l 1,6,-1
 700 100 l 1,7,-1
 700 0 l 1,8,-1
 500 0 l 1,9,-1
 500 100 l 1,10,-1
 400 100 l 1,11,-1
 400 510 l 1,12,-1
 200 510 l 1,13,-1
 200 100 l 1,14,-1
 400 100 l 1,15,-1
 400 0 l 1,16,-1
 100 0 l 1,17,-1
 100 100 l 1,18,-1
 0 100 l 1,19,-1
 0 510 l 1,20,-1
 100 510 l 1,21,-1
 100 610 l 1,22,-1
 400 610 l 1,23,-1
 400 700 l 1,24,-1
 200 700 l 1,25,-1
 200 800 l 1,26,-1
 400 800 l 1,27,-1
 400 900 l 1,28,-1
 300 900 l 1,29,-1
 300 1000 l 1,0,-1
EndSplineSet
EndChar

StartChar: ograve
Encoding: 242 242 176
Width: 800
Flags: W
LayerCount: 2
Fore
SplineSet
0 1100 m 1,0,-1
 200 1100 l 1,1,-1
 200 1000 l 1,2,-1
 300 1000 l 1,3,-1
 300 900 l 1,4,-1
 100 900 l 1,5,-1
 100 1000 l 1,6,-1
 0 1000 l 1,7,-1
 0 1100 l 1,0,-1
300 900 m 1,8,-1
 400 900 l 1,9,-1
 400 800 l 1,10,-1
 300 800 l 1,11,-1
 300 900 l 1,8,-1
500 600 m 1,12,-1
 200 600 l 1,13,-1
 200 100 l 1,14,-1
 500 100 l 1,15,-1
 500 600 l 1,12,-1
100 700 m 1,16,-1
 600 700 l 1,17,-1
 600 600 l 1,18,-1
 700 600 l 1,19,-1
 700 100 l 1,20,-1
 600 100 l 1,21,-1
 600 0 l 1,22,-1
 100 0 l 1,23,-1
 100 100 l 1,24,-1
 0 100 l 1,25,-1
 0 600 l 1,26,-1
 100 600 l 1,27,-1
 100 700 l 1,16,-1
EndSplineSet
EndChar

StartChar: odieresis
Encoding: 246 246 180
Width: 800
Flags: W
LayerCount: 2
Fore
SplineSet
0 1000 m 1,0,-1
 200 1000 l 1,1,-1
 200 800 l 1,2,-1
 0 800 l 1,3,-1
 0 1000 l 1,0,-1
500 1000 m 1,4,-1
 700 1000 l 1,5,-1
 700 800 l 1,6,-1
 500 800 l 1,7,-1
 500 1000 l 1,4,-1
500 600 m 1,8,-1
 200 600 l 1,9,-1
 200 100 l 1,10,-1
 500 100 l 1,11,-1
 500 600 l 1,8,-1
100 700 m 1,12,-1
 600 700 l 1,13,-1
 600 600 l 1,14,-1
 700 600 l 1,15,-1
 700 100 l 1,16,-1
 600 100 l 1,17,-1
 600 0 l 1,18,-1
 100 0 l 1,19,-1
 100 100 l 1,20,-1
 0 100 l 1,21,-1
 0 600 l 1,22,-1
 100 600 l 1,23,-1
 100 700 l 1,12,-1
EndSplineSet
EndChar

StartChar: divide
Encoding: 247 247 181
Width: 800
Flags: W
LayerCount: 2
Fore
SplineSet
300 800 m 1,0,-1
 500 800 l 1,1,-1
 500 600 l 1,2,-1
 300 600 l 1,3,-1
 300 800 l 1,0,-1
100 500 m 1,4,-1
 700 500 l 1,5,-1
 700 400 l 1,6,-1
 100 400 l 1,7,-1
 100 500 l 1,4,-1
300 300 m 1,8,-1
 500 300 l 1,9,-1
 500 100 l 1,10,-1
 300 100 l 1,11,-1
 300 300 l 1,8,-1
EndSplineSet
EndChar

StartChar: oslash
Encoding: 248 248 182
Width: 800
Flags: W
LayerCount: 2
Fore
SplineSet
400 600 m 1,0,-1
 200 600 l 1,1,-1
 200 300 l 1,2,-1
 300 300 l 1,3,-1
 300 500 l 1,4,-1
 400 500 l 1,5,-1
 400 600 l 1,0,-1
500 400 m 1,6,-1
 400 400 l 1,7,-1
 400 200 l 1,8,-1
 300 200 l 1,9,-1
 300 100 l 1,10,-1
 500 100 l 1,11,-1
 500 400 l 1,6,-1
600 900 m 1,12,-1
 700 900 l 1,13,-1
 700 700 l 1,14,-1
 600 700 l 1,15,-1
 600 600 l 1,16,-1
 700 600 l 1,17,-1
 700 100 l 1,18,-1
 600 100 l 1,19,-1
 600 0 l 1,20,-1
 200 0 l 1,21,-1
 200 -100 l 1,22,-1
 100 -100 l 1,23,-1
 100 -200 l 1,24,-1
 0 -200 l 1,25,-1
 0 0 l 1,26,-1
 100 0 l 1,27,-1
 100 100 l 1,28,-1
 0 100 l 1,29,-1
 0 600 l 1,30,-1
 100 600 l 1,31,-1
 100 700 l 1,32,-1
 500 700 l 1,33,-1
 500 800 l 1,34,-1
 600 800 l 1,35,-1
 600 900 l 1,12,-1
EndSplineSet
EndChar

StartChar: ugrave
Encoding: 249 249 183
Width: 800
Flags: W
LayerCount: 2
Fore
SplineSet
0 1100 m 1,0,-1
 200 1100 l 1,1,-1
 200 1000 l 1,2,-1
 300 1000 l 1,3,-1
 300 900 l 1,4,-1
 100 900 l 1,5,-1
 100 1000 l 1,6,-1
 0 1000 l 1,7,-1
 0 1100 l 1,0,-1
300 900 m 1,8,-1
 400 900 l 1,9,-1
 400 800 l 1,10,-1
 300 800 l 1,11,-1
 300 900 l 1,8,-1
0 700 m 1,12,-1
 200 700 l 1,13,-1
 200 100 l 1,14,-1
 400 100 l 1,15,-1
 400 0 l 1,16,-1
 100 0 l 1,17,-1
 100 100 l 1,18,-1
 0 100 l 1,19,-1
 0 700 l 1,12,-1
400 700 m 1,20,-1
 600 700 l 1,21,-1
 600 100 l 1,22,-1
 700 100 l 1,23,-1
 700 0 l 1,24,-1
 500 0 l 1,25,-1
 500 100 l 1,26,-1
 400 100 l 1,27,-1
 400 700 l 1,20,-1
EndSplineSet
EndChar

StartChar: yacute
Encoding: 253 253 187
Width: 800
Flags: W
LayerCount: 2
Fore
SplineSet
500 1100 m 1,0,-1
 700 1100 l 1,1,-1
 700 1000 l 1,2,-1
 600 1000 l 1,3,-1
 600 900 l 1,4,-1
 400 900 l 1,5,-1
 400 1000 l 1,6,-1
 500 1000 l 1,7,-1
 500 1100 l 1,0,-1
300 900 m 1,8,-1
 400 900 l 1,9,-1
 400 800 l 1,10,-1
 300 800 l 1,11,-1
 300 900 l 1,8,-1
0 700 m 1,12,-1
 200 700 l 1,13,-1
 200 100 l 1,14,-1
 500 100 l 1,15,-1
 500 700 l 1,16,-1
 700 700 l 1,17,-1
 700 -100 l 1,18,-1
 600 -100 l 1,19,-1
 600 -200 l 1,20,-1
 500 -200 l 1,21,-1
 500 -300 l 1,22,-1
 100 -300 l 1,23,-1
 100 -200 l 1,24,-1
 400 -200 l 1,25,-1
 400 -100 l 1,26,-1
 500 -100 l 1,27,-1
 500 0 l 1,28,-1
 100 0 l 1,29,-1
 100 100 l 1,30,-1
 0 100 l 1,31,-1
 0 700 l 1,12,-1
EndSplineSet
EndChar

StartChar: thorn
Encoding: 254 254 188
Width: 800
Flags: W
LayerCount: 2
Fore
SplineSet
500 600 m 1,0,-1
 300 600 l 1,1,-1
 300 100 l 1,2,-1
 500 100 l 1,3,-1
 500 600 l 1,0,-1
0 1000 m 1,4,-1
 300 1000 l 1,5,-1
 300 700 l 1,6,-1
 600 700 l 1,7,-1
 600 600 l 1,8,-1
 700 600 l 1,9,-1
 700 100 l 1,10,-1
 600 100 l 1,11,-1
 600 0 l 1,12,-1
 300 0 l 1,13,-1
 300 -200 l 1,14,-1
 400 -200 l 1,15,-1
 400 -300 l 1,16,-1
 0 -300 l 1,17,-1
 0 -200 l 1,18,-1
 100 -200 l 1,19,-1
 100 900 l 1,20,-1
 0 900 l 1,21,-1
 0 1000 l 1,4,-1
EndSplineSet
EndChar

StartChar: ydieresis
Encoding: 255 255 189
Width: 800
Flags: W
LayerCount: 2
Fore
SplineSet
0 1000 m 1,0,-1
 200 1000 l 1,1,-1
 200 800 l 1,2,-1
 0 800 l 1,3,-1
 0 1000 l 1,0,-1
500 1000 m 1,4,-1
 700 1000 l 1,5,-1
 700 800 l 1,6,-1
 500 800 l 1,7,-1
 500 1000 l 1,4,-1
0 700 m 1,8,-1
 200 700 l 1,9,-1
 200 100 l 1,10,-1
 500 100 l 1,11,-1
 500 700 l 1,12,-1
 700 700 l 1,13,-1
 700 -100 l 1,14,-1
 600 -100 l 1,15,-1
 600 -200 l 1,16,-1
 500 -200 l 1,17,-1
 500 -300 l 1,18,-1
 100 -300 l 1,19,-1
 100 -200 l 1,20,-1
 400 -200 l 1,21,-1
 400 -100 l 1,22,-1
 500 -100 l 1,23,-1
 500 0 l 1,24,-1
 100 0 l 1,25,-1
 100 100 l 1,26,-1
 0 100 l 1,27,-1
 0 700 l 1,8,-1
EndSplineSet
EndChar

StartChar: Ccircumflex
Encoding: -1 264 190
Width: 1600
LayerCount: 2
Back
SplineSet
300 1200 m 1,0,-1
 400 1200 l 1,1,-1
 400 1100 l 1,2,-1
 500 1100 l 1,3,-1
 500 1000 l 1,4,-1
 200 1000 l 1,5,-1
 200 1100 l 1,6,-1
 300 1100 l 1,7,-1
 300 1200 l 1,0,-1
100 1000 m 1,8,-1
 200 1000 l 1,9,-1
 200 900 l 1,10,-1
 500 900 l 1,11,-1
 500 1000 l 1,12,-1
 600 1000 l 1,13,-1
 600 800 l 1,14,-1
 700 800 l 1,15,-1
 700 600 l 1,16,-1
 500 600 l 1,17,-1
 500 800 l 1,18,-1
 200 800 l 1,19,-1
 200 100 l 1,20,-1
 500 100 l 1,21,-1
 500 300 l 1,22,-1
 700 300 l 1,23,-1
 700 100 l 1,24,-1
 600 100 l 1,25,-1
 600 0 l 1,26,-1
 100 0 l 1,27,-1
 100 100 l 1,28,-1
 0 100 l 1,29,-1
 0 800 l 1,30,-1
 100 800 l 1,31,-1
 100 1000 l 1,8,-1
EndSplineSet
EndChar

StartChar: Ccaron
Encoding: -1 268 192
Width: 1600
LayerCount: 2
Back
SplineSet
100 1200 m 1,0,-1
 300 1200 l 1,1,-1
 300 1100 l 1,2,-1
 400 1100 l 1,3,-1
 400 1200 l 1,4,-1
 600 1200 l 1,5,-1
 600 1100 l 1,6,-1
 500 1100 l 1,7,-1
 500 1000 l 1,8,-1
 400 1000 l 1,9,-1
 400 900 l 1,10,-1
 600 900 l 1,11,-1
 600 800 l 1,12,-1
 700 800 l 1,13,-1
 700 600 l 1,14,-1
 500 600 l 1,15,-1
 500 800 l 1,16,-1
 200 800 l 1,17,-1
 200 100 l 1,18,-1
 500 100 l 1,19,-1
 500 300 l 1,20,-1
 700 300 l 1,21,-1
 700 100 l 1,22,-1
 600 100 l 1,23,-1
 600 0 l 1,24,-1
 100 0 l 1,25,-1
 100 100 l 1,26,-1
 0 100 l 1,27,-1
 0 800 l 1,28,-1
 100 800 l 1,29,-1
 100 900 l 1,30,-1
 300 900 l 1,31,-1
 300 1000 l 1,32,-1
 200 1000 l 1,33,-1
 200 1100 l 1,34,-1
 100 1100 l 1,35,-1
 100 1200 l 1,0,-1
EndSplineSet
EndChar

StartChar: Dcaron
Encoding: -1 270 194
Width: 1600
LayerCount: 2
Back
SplineSet
500 800 m 1,0,-1
 300 800 l 1,1,-1
 300 100 l 1,2,-1
 500 100 l 1,3,-1
 500 800 l 1,0,-1
100 1200 m 1,4,-1
 300 1200 l 1,5,-1
 300 1100 l 1,6,-1
 400 1100 l 1,7,-1
 400 1200 l 1,8,-1
 600 1200 l 1,9,-1
 600 1100 l 1,10,-1
 500 1100 l 1,11,-1
 500 1000 l 1,12,-1
 400 1000 l 1,13,-1
 400 900 l 1,14,-1
 600 900 l 1,15,-1
 600 800 l 1,16,-1
 700 800 l 1,17,-1
 700 100 l 1,18,-1
 600 100 l 1,19,-1
 600 0 l 1,20,-1
 0 0 l 1,21,-1
 0 100 l 1,22,-1
 100 100 l 1,23,-1
 100 800 l 1,24,-1
 0 800 l 1,25,-1
 0 900 l 1,26,-1
 300 900 l 1,27,-1
 300 1000 l 1,28,-1
 200 1000 l 1,29,-1
 200 1100 l 1,30,-1
 100 1100 l 1,31,-1
 100 1200 l 1,4,-1
EndSplineSet
EndChar

StartChar: dcaron
Encoding: -1 271 195
Width: 1600
LayerCount: 2
Back
SplineSet
0 1200 m 1,0,-1
 200 1200 l 1,1,-1
 200 1100 l 1,2,-1
 400 1100 l 1,3,-1
 400 1200 l 1,4,-1
 600 1200 l 1,5,-1
 600 1100 l 1,6,-1
 500 1100 l 1,7,-1
 500 1000 l 1,8,-1
 400 1000 l 1,9,-1
 400 900 l 1,10,-1
 200 900 l 1,11,-1
 200 1000 l 1,12,-1
 100 1000 l 1,13,-1
 100 1100 l 1,14,-1
 0 1100 l 1,15,-1
 0 1200 l 1,0,-1
400 900 m 1,16,-1
 600 900 l 1,17,-1
 600 100 l 1,18,-1
 700 100 l 1,19,-1
 700 0 l 1,20,-1
 500 0 l 1,21,-1
 500 100 l 1,22,-1
 400 100 l 1,23,-1
 400 600 l 1,24,-1
 200 600 l 1,25,-1
 200 100 l 1,26,-1
 400 100 l 1,27,-1
 400 0 l 1,28,-1
 100 0 l 1,29,-1
 100 100 l 1,30,-1
 0 100 l 1,31,-1
 0 600 l 1,32,-1
 100 600 l 1,33,-1
 100 700 l 1,34,-1
 400 700 l 1,35,-1
 400 900 l 1,16,-1
EndSplineSet
EndChar

StartChar: Ecaron
Encoding: -1 282 196
Width: 1600
LayerCount: 2
Back
SplineSet
100 1200 m 1,0,-1
 300 1200 l 1,1,-1
 300 1100 l 1,2,-1
 400 1100 l 1,3,-1
 400 1200 l 1,4,-1
 600 1200 l 1,5,-1
 600 1100 l 1,6,-1
 500 1100 l 1,7,-1
 500 1000 l 1,8,-1
 400 1000 l 1,9,-1
 400 900 l 1,10,-1
 700 900 l 1,11,-1
 700 600 l 1,12,-1
 600 600 l 1,13,-1
 600 700 l 1,14,-1
 500 700 l 1,15,-1
 500 800 l 1,16,-1
 300 800 l 1,17,-1
 300 500 l 1,18,-1
 400 500 l 1,19,-1
 400 600 l 1,20,-1
 500 600 l 1,21,-1
 500 300 l 1,22,-1
 400 300 l 1,23,-1
 400 400 l 1,24,-1
 300 400 l 1,25,-1
 300 100 l 1,26,-1
 500 100 l 1,27,-1
 500 200 l 1,28,-1
 600 200 l 1,29,-1
 600 300 l 1,30,-1
 700 300 l 1,31,-1
 700 0 l 1,32,-1
 0 0 l 1,33,-1
 0 100 l 1,34,-1
 100 100 l 1,35,-1
 100 800 l 1,36,-1
 0 800 l 1,37,-1
 0 900 l 1,38,-1
 300 900 l 1,39,-1
 300 1000 l 1,40,-1
 200 1000 l 1,41,-1
 200 1100 l 1,42,-1
 100 1100 l 1,43,-1
 100 1200 l 1,0,-1
EndSplineSet
EndChar

StartChar: Gcircumflex
Encoding: -1 284 198
Width: 1600
LayerCount: 2
Back
SplineSet
300 1200 m 1,0,-1
 400 1200 l 1,1,-1
 400 1100 l 1,2,-1
 500 1100 l 1,3,-1
 500 1000 l 1,4,-1
 200 1000 l 1,5,-1
 200 1100 l 1,6,-1
 300 1100 l 1,7,-1
 300 1200 l 1,0,-1
100 1000 m 1,8,-1
 200 1000 l 1,9,-1
 200 900 l 1,10,-1
 500 900 l 1,11,-1
 500 1000 l 1,12,-1
 600 1000 l 1,13,-1
 600 800 l 1,14,-1
 700 800 l 1,15,-1
 700 600 l 1,16,-1
 500 600 l 1,17,-1
 500 800 l 1,18,-1
 200 800 l 1,19,-1
 200 100 l 1,20,-1
 500 100 l 1,21,-1
 500 400 l 1,22,-1
 400 400 l 1,23,-1
 400 500 l 1,24,-1
 700 500 l 1,25,-1
 700 0 l 1,26,-1
 100 0 l 1,27,-1
 100 100 l 1,28,-1
 0 100 l 1,29,-1
 0 800 l 1,30,-1
 100 800 l 1,31,-1
 100 1000 l 1,8,-1
EndSplineSet
EndChar

StartChar: Hcircumflex
Encoding: -1 292 200
Width: 1600
LayerCount: 2
Back
SplineSet
300 1200 m 1,0,-1
 400 1200 l 1,1,-1
 400 1100 l 1,2,-1
 500 1100 l 1,3,-1
 500 1000 l 1,4,-1
 200 1000 l 1,5,-1
 200 1100 l 1,6,-1
 300 1100 l 1,7,-1
 300 1200 l 1,0,-1
0 900 m 1,8,-1
 200 900 l 1,9,-1
 200 500 l 1,10,-1
 500 500 l 1,11,-1
 500 900 l 1,12,-1
 700 900 l 1,13,-1
 700 0 l 1,14,-1
 500 0 l 1,15,-1
 500 400 l 1,16,-1
 200 400 l 1,17,-1
 200 0 l 1,18,-1
 0 0 l 1,19,-1
 0 900 l 1,8,-1
EndSplineSet
EndChar

StartChar: hcircumflex
Encoding: -1 293 201
Width: 1600
LayerCount: 2
Back
SplineSet
300 1200 m 1,0,-1
 400 1200 l 1,1,-1
 400 1100 l 1,2,-1
 500 1100 l 1,3,-1
 500 1000 l 1,4,-1
 200 1000 l 1,5,-1
 200 1100 l 1,6,-1
 300 1100 l 1,7,-1
 300 1200 l 1,0,-1
500 1000 m 1,8,-1
 600 1000 l 1,9,-1
 600 900 l 1,10,-1
 500 900 l 1,11,-1
 500 1000 l 1,8,-1
100 1000 m 1,12,-1
 200 1000 l 1,13,-1
 200 900 l 1,14,-1
 300 900 l 1,15,-1
 300 600 l 1,16,-1
 400 600 l 1,17,-1
 400 500 l 1,18,-1
 300 500 l 1,19,-1
 300 0 l 1,20,-1
 0 0 l 1,21,-1
 0 100 l 1,22,-1
 100 100 l 1,23,-1
 100 800 l 1,24,-1
 0 800 l 1,25,-1
 0 900 l 1,26,-1
 100 900 l 1,27,-1
 100 1000 l 1,12,-1
400 700 m 1,28,-1
 600 700 l 1,29,-1
 600 600 l 1,30,-1
 700 600 l 1,31,-1
 700 0 l 1,32,-1
 500 0 l 1,33,-1
 500 600 l 1,34,-1
 400 600 l 1,35,-1
 400 700 l 1,28,-1
EndSplineSet
EndChar

StartChar: dotlessi
Encoding: -1 305 202
Width: 1600
LayerCount: 2
Back
SplineSet
200 700 m 1,0,-1
 500 700 l 1,1,-1
 500 100 l 1,2,-1
 600 100 l 1,3,-1
 600 0 l 1,4,-1
 200 0 l 1,5,-1
 200 100 l 1,6,-1
 300 100 l 1,7,-1
 300 600 l 1,8,-1
 200 600 l 1,9,-1
 200 700 l 1,0,-1
EndSplineSet
EndChar

StartChar: Jcircumflex
Encoding: -1 308 203
Width: 1600
LayerCount: 2
Back
SplineSet
400 1200 m 1,0,-1
 500 1200 l 1,1,-1
 500 1100 l 1,2,-1
 600 1100 l 1,3,-1
 600 1000 l 1,4,-1
 300 1000 l 1,5,-1
 300 1100 l 1,6,-1
 400 1100 l 1,7,-1
 400 1200 l 1,0,-1
200 1000 m 1,8,-1
 300 1000 l 1,9,-1
 300 900 l 1,10,-1
 200 900 l 1,11,-1
 200 1000 l 1,8,-1
300 900 m 1,12,-1
 600 900 l 1,13,-1
 600 1000 l 1,14,-1
 700 1000 l 1,15,-1
 700 800 l 1,16,-1
 600 800 l 1,17,-1
 600 100 l 1,18,-1
 500 100 l 1,19,-1
 500 0 l 1,20,-1
 100 0 l 1,21,-1
 100 100 l 1,22,-1
 0 100 l 1,23,-1
 0 300 l 1,24,-1
 200 300 l 1,25,-1
 200 100 l 1,26,-1
 400 100 l 1,27,-1
 400 800 l 1,28,-1
 300 800 l 1,29,-1
 300 900 l 1,12,-1
EndSplineSet
EndChar

StartChar: jcircumflex
Encoding: -1 309 204
Width: 1600
LayerCount: 2
Back
SplineSet
400 1100 m 1,0,-1
 600 1100 l 1,1,-1
 600 1000 l 1,2,-1
 700 1000 l 1,3,-1
 700 900 l 1,4,-1
 800 900 l 1,5,-1
 800 800 l 1,6,-1
 600 800 l 1,7,-1
 600 900 l 1,8,-1
 400 900 l 1,9,-1
 400 800 l 1,10,-1
 200 800 l 1,11,-1
 200 900 l 1,12,-1
 300 900 l 1,13,-1
 300 1000 l 1,14,-1
 400 1000 l 1,15,-1
 400 1100 l 1,0,-1
300 700 m 1,16,-1
 600 700 l 1,17,-1
 600 -200 l 1,18,-1
 500 -200 l 1,19,-1
 500 -300 l 1,20,-1
 100 -300 l 1,21,-1
 100 -200 l 1,22,-1
 0 -200 l 1,23,-1
 0 0 l 1,24,-1
 200 0 l 1,25,-1
 200 -200 l 1,26,-1
 400 -200 l 1,27,-1
 400 600 l 1,28,-1
 300 600 l 1,29,-1
 300 700 l 1,16,-1
EndSplineSet
EndChar

StartChar: Ncaron
Encoding: -1 327 205
Width: 1600
LayerCount: 2
Back
SplineSet
100 1200 m 1,0,-1
 300 1200 l 1,1,-1
 300 1100 l 1,2,-1
 400 1100 l 1,3,-1
 400 1200 l 1,4,-1
 600 1200 l 1,5,-1
 600 1100 l 1,6,-1
 500 1100 l 1,7,-1
 500 1000 l 1,8,-1
 400 1000 l 1,9,-1
 400 900 l 1,10,-1
 300 900 l 1,11,-1
 300 1000 l 1,12,-1
 200 1000 l 1,13,-1
 200 1100 l 1,14,-1
 100 1100 l 1,15,-1
 100 1200 l 1,0,-1
0 900 m 1,16,-1
 100 900 l 1,17,-1
 100 800 l 1,18,-1
 200 800 l 1,19,-1
 200 700 l 1,20,-1
 300 700 l 1,21,-1
 300 600 l 1,22,-1
 400 600 l 1,23,-1
 400 500 l 1,24,-1
 500 500 l 1,25,-1
 500 900 l 1,26,-1
 700 900 l 1,27,-1
 700 0 l 1,28,-1
 500 0 l 1,29,-1
 500 200 l 1,30,-1
 400 200 l 1,31,-1
 400 300 l 1,32,-1
 300 300 l 1,33,-1
 300 400 l 1,34,-1
 200 400 l 1,35,-1
 200 0 l 1,36,-1
 0 0 l 1,37,-1
 0 900 l 1,16,-1
EndSplineSet
EndChar

StartChar: OE
Encoding: 140 338 207
Width: 800
Flags: W
LayerCount: 2
Back
SplineSet
400 900 m 1,0,-1
 200 900 l 1,1,-1
 200 100 l 1,2,-1
 400 100 l 1,3,-1
 400 900 l 1,0,-1
100 1000 m 1,4,-1
 700 1000 l 1,5,-1
 700 800 l 1,6,-1
 600 800 l 1,7,-1
 600 900 l 1,8,-1
 500 900 l 1,9,-1
 500 600 l 1,10,-1
 600 600 l 1,11,-1
 600 400 l 1,12,-1
 500 400 l 1,13,-1
 500 100 l 1,14,-1
 600 100 l 1,15,-1
 600 200 l 1,16,-1
 700 200 l 1,17,-1
 700 0 l 1,18,-1
 100 0 l 1,19,-1
 100 100 l 1,20,-1
 0 100 l 1,21,-1
 0 900 l 1,22,-1
 100 900 l 1,23,-1
 100 1000 l 1,4,-1
EndSplineSet
EndChar

StartChar: oe
Encoding: 156 339 208
Width: 800
Flags: W
LayerCount: 2
Back
SplineSet
100 700 m 1,0,-1
 600 700 l 1,1,-1
 600 600 l 1,2,-1
 400 600 l 1,3,-1
 400 400 l 1,4,-1
 600 400 l 1,5,-1
 600 600 l 1,6,-1
 700 600 l 1,7,-1
 700 300 l 1,8,-1
 400 300 l 1,9,-1
 400 100 l 1,10,-1
 600 100 l 1,11,-1
 600 0 l 1,12,-1
 100 0 l 1,13,-1
 100 100 l 1,14,-1
 300 100 l 1,15,-1
 300 600 l 1,16,-1
 100 600 l 1,17,-1
 100 700 l 1,0,-1
0 600 m 1,18,-1
 100 600 l 1,19,-1
 100 100 l 1,20,-1
 0 100 l 1,21,-1
 0 600 l 1,18,-1
600 200 m 1,22,-1
 700 200 l 1,23,-1
 700 100 l 1,24,-1
 600 100 l 1,25,-1
 600 200 l 1,22,-1
EndSplineSet
EndChar

StartChar: Rcaron
Encoding: -1 344 209
Width: 1600
LayerCount: 2
Back
SplineSet
500 800 m 1,0,-1
 300 800 l 1,1,-1
 300 500 l 1,2,-1
 500 500 l 1,3,-1
 500 800 l 1,0,-1
100 1200 m 1,4,-1
 300 1200 l 1,5,-1
 300 1100 l 1,6,-1
 400 1100 l 1,7,-1
 400 1200 l 1,8,-1
 600 1200 l 1,9,-1
 600 1100 l 1,10,-1
 500 1100 l 1,11,-1
 500 1000 l 1,12,-1
 400 1000 l 1,13,-1
 400 900 l 1,14,-1
 600 900 l 1,15,-1
 600 800 l 1,16,-1
 700 800 l 1,17,-1
 700 500 l 1,18,-1
 600 500 l 1,19,-1
 600 300 l 1,20,-1
 700 300 l 1,21,-1
 700 0 l 1,22,-1
 500 0 l 1,23,-1
 500 300 l 1,24,-1
 400 300 l 1,25,-1
 400 400 l 1,26,-1
 300 400 l 1,27,-1
 300 0 l 1,28,-1
 0 0 l 1,29,-1
 0 100 l 1,30,-1
 100 100 l 1,31,-1
 100 800 l 1,32,-1
 0 800 l 1,33,-1
 0 900 l 1,34,-1
 300 900 l 1,35,-1
 300 1000 l 1,36,-1
 200 1000 l 1,37,-1
 200 1100 l 1,38,-1
 100 1100 l 1,39,-1
 100 1200 l 1,4,-1
EndSplineSet
EndChar

StartChar: Scircumflex
Encoding: -1 348 211
Width: 1600
LayerCount: 2
Back
SplineSet
300 1200 m 1,0,-1
 400 1200 l 1,1,-1
 400 1100 l 1,2,-1
 500 1100 l 1,3,-1
 500 1000 l 1,4,-1
 200 1000 l 1,5,-1
 200 1100 l 1,6,-1
 300 1100 l 1,7,-1
 300 1200 l 1,0,-1
100 1000 m 1,8,-1
 200 1000 l 1,9,-1
 200 900 l 1,10,-1
 500 900 l 1,11,-1
 500 1000 l 1,12,-1
 600 1000 l 1,13,-1
 600 800 l 1,14,-1
 700 800 l 1,15,-1
 700 600 l 1,16,-1
 500 600 l 1,17,-1
 500 800 l 1,18,-1
 200 800 l 1,19,-1
 200 600 l 1,20,-1
 300 600 l 1,21,-1
 300 500 l 1,22,-1
 500 500 l 1,23,-1
 500 400 l 1,24,-1
 600 400 l 1,25,-1
 600 300 l 1,26,-1
 700 300 l 1,27,-1
 700 100 l 1,28,-1
 600 100 l 1,29,-1
 600 0 l 1,30,-1
 100 0 l 1,31,-1
 100 100 l 1,32,-1
 0 100 l 1,33,-1
 0 300 l 1,34,-1
 200 300 l 1,35,-1
 200 100 l 1,36,-1
 500 100 l 1,37,-1
 500 300 l 1,38,-1
 400 300 l 1,39,-1
 400 400 l 1,40,-1
 200 400 l 1,41,-1
 200 500 l 1,42,-1
 100 500 l 1,43,-1
 100 600 l 1,44,-1
 0 600 l 1,45,-1
 0 800 l 1,46,-1
 100 800 l 1,47,-1
 100 1000 l 1,8,-1
EndSplineSet
EndChar

StartChar: Scaron
Encoding: 138 352 213
Width: 800
Flags: W
LayerCount: 2
Back
SplineSet
100 1200 m 1,0,-1
 300 1200 l 1,1,-1
 300 1100 l 1,2,-1
 400 1100 l 1,3,-1
 400 1200 l 1,4,-1
 600 1200 l 1,5,-1
 600 1100 l 1,6,-1
 500 1100 l 1,7,-1
 500 1000 l 1,8,-1
 400 1000 l 1,9,-1
 400 900 l 1,10,-1
 600 900 l 1,11,-1
 600 800 l 1,12,-1
 700 800 l 1,13,-1
 700 600 l 1,14,-1
 500 600 l 1,15,-1
 500 800 l 1,16,-1
 200 800 l 1,17,-1
 200 600 l 1,18,-1
 300 600 l 1,19,-1
 300 500 l 1,20,-1
 500 500 l 1,21,-1
 500 400 l 1,22,-1
 600 400 l 1,23,-1
 600 300 l 1,24,-1
 700 300 l 1,25,-1
 700 100 l 1,26,-1
 600 100 l 1,27,-1
 600 0 l 1,28,-1
 100 0 l 1,29,-1
 100 100 l 1,30,-1
 0 100 l 1,31,-1
 0 300 l 1,32,-1
 200 300 l 1,33,-1
 200 100 l 1,34,-1
 500 100 l 1,35,-1
 500 300 l 1,36,-1
 400 300 l 1,37,-1
 400 400 l 1,38,-1
 200 400 l 1,39,-1
 200 500 l 1,40,-1
 100 500 l 1,41,-1
 100 600 l 1,42,-1
 0 600 l 1,43,-1
 0 800 l 1,44,-1
 100 800 l 1,45,-1
 100 900 l 1,46,-1
 300 900 l 1,47,-1
 300 1000 l 1,48,-1
 200 1000 l 1,49,-1
 200 1100 l 1,50,-1
 100 1100 l 1,51,-1
 100 1200 l 1,0,-1
EndSplineSet
EndChar

StartChar: Tcaron
Encoding: -1 356 215
Width: 1600
LayerCount: 2
Back
SplineSet
100 1200 m 1,0,-1
 300 1200 l 1,1,-1
 300 1100 l 1,2,-1
 500 1100 l 1,3,-1
 500 1200 l 1,4,-1
 700 1200 l 1,5,-1
 700 1100 l 1,6,-1
 600 1100 l 1,7,-1
 600 1000 l 1,8,-1
 500 1000 l 1,9,-1
 500 900 l 1,10,-1
 700 900 l 1,11,-1
 700 600 l 1,12,-1
 600 600 l 1,13,-1
 600 700 l 1,14,-1
 500 700 l 1,15,-1
 500 100 l 1,16,-1
 600 100 l 1,17,-1
 600 0 l 1,18,-1
 200 0 l 1,19,-1
 200 100 l 1,20,-1
 300 100 l 1,21,-1
 300 700 l 1,22,-1
 200 700 l 1,23,-1
 200 600 l 1,24,-1
 100 600 l 1,25,-1
 100 900 l 1,26,-1
 300 900 l 1,27,-1
 300 1000 l 1,28,-1
 200 1000 l 1,29,-1
 200 1100 l 1,30,-1
 100 1100 l 1,31,-1
 100 1200 l 1,0,-1
EndSplineSet
EndChar

StartChar: tcaron
Encoding: -1 357 216
Width: 1600
LayerCount: 2
Back
SplineSet
500 200 m 1,0,-1
 600 200 l 1,1,-1
 600 100 l 1,2,-1
 500 100 l 1,3,-1
 500 200 l 1,0,-1
100 1200 m 1,4,-1
 300 1200 l 1,5,-1
 300 1100 l 1,6,-1
 400 1100 l 1,7,-1
 400 1200 l 1,8,-1
 600 1200 l 1,9,-1
 600 1100 l 1,10,-1
 500 1100 l 1,11,-1
 500 1000 l 1,12,-1
 400 1000 l 1,13,-1
 400 700 l 1,14,-1
 600 700 l 1,15,-1
 600 600 l 1,16,-1
 400 600 l 1,17,-1
 400 100 l 1,18,-1
 500 100 l 1,19,-1
 500 0 l 1,20,-1
 300 0 l 1,21,-1
 300 100 l 1,22,-1
 200 100 l 1,23,-1
 200 600 l 1,24,-1
 0 600 l 1,25,-1
 0 700 l 1,26,-1
 200 700 l 1,27,-1
 200 800 l 1,28,-1
 300 800 l 1,29,-1
 300 1000 l 1,30,-1
 200 1000 l 1,31,-1
 200 1100 l 1,32,-1
 100 1100 l 1,33,-1
 100 1200 l 1,4,-1
EndSplineSet
EndChar

StartChar: Ubreve
Encoding: -1 364 217
Width: 1600
LayerCount: 2
Back
SplineSet
100 1200 m 1,0,-1
 300 1200 l 1,1,-1
 300 1100 l 1,2,-1
 400 1100 l 1,3,-1
 400 1200 l 1,4,-1
 600 1200 l 1,5,-1
 600 1100 l 1,6,-1
 500 1100 l 1,7,-1
 500 1000 l 1,8,-1
 200 1000 l 1,9,-1
 200 1100 l 1,10,-1
 100 1100 l 1,11,-1
 100 1200 l 1,0,-1
0 900 m 1,12,-1
 200 900 l 1,13,-1
 200 100 l 1,14,-1
 500 100 l 1,15,-1
 500 900 l 1,16,-1
 700 900 l 1,17,-1
 700 100 l 1,18,-1
 600 100 l 1,19,-1
 600 0 l 1,20,-1
 100 0 l 1,21,-1
 100 100 l 1,22,-1
 0 100 l 1,23,-1
 0 900 l 1,12,-1
EndSplineSet
EndChar

StartChar: Uring
Encoding: -1 366 219
Width: 1600
LayerCount: 2
Back
SplineSet
200 1200 m 1,0,-1
 500 1200 l 1,1,-1
 500 1100 l 1,2,-1
 200 1100 l 1,3,-1
 200 1200 l 1,0,-1
100 1100 m 1,4,-1
 200 1100 l 1,5,-1
 200 1000 l 1,6,-1
 100 1000 l 1,7,-1
 100 1100 l 1,4,-1
500 1100 m 1,8,-1
 600 1100 l 1,9,-1
 600 1000 l 1,10,-1
 500 1000 l 1,11,-1
 500 1100 l 1,8,-1
200 1000 m 1,12,-1
 500 1000 l 1,13,-1
 500 900 l 1,14,-1
 200 900 l 1,15,-1
 200 1000 l 1,12,-1
0 900 m 1,16,-1
 200 900 l 1,17,-1
 200 100 l 1,18,-1
 500 100 l 1,19,-1
 500 900 l 1,20,-1
 700 900 l 1,21,-1
 700 100 l 1,22,-1
 600 100 l 1,23,-1
 600 0 l 1,24,-1
 100 0 l 1,25,-1
 100 100 l 1,26,-1
 0 100 l 1,27,-1
 0 900 l 1,16,-1
EndSplineSet
EndChar

StartChar: Ydieresis
Encoding: 159 376 221
Width: 800
Flags: W
LayerCount: 2
Back
SplineSet
100 1200 m 1,0,-1
 300 1200 l 1,1,-1
 300 1000 l 1,2,-1
 100 1000 l 1,3,-1
 100 1200 l 1,0,-1
500 1200 m 1,4,-1
 700 1200 l 1,5,-1
 700 1000 l 1,6,-1
 500 1000 l 1,7,-1
 500 1200 l 1,4,-1
100 900 m 1,8,-1
 300 900 l 1,9,-1
 300 500 l 1,10,-1
 500 500 l 1,11,-1
 500 900 l 1,12,-1
 700 900 l 1,13,-1
 700 500 l 1,14,-1
 600 500 l 1,15,-1
 600 400 l 1,16,-1
 500 400 l 1,17,-1
 500 100 l 1,18,-1
 600 100 l 1,19,-1
 600 0 l 1,20,-1
 200 0 l 1,21,-1
 200 100 l 1,22,-1
 300 100 l 1,23,-1
 300 400 l 1,24,-1
 200 400 l 1,25,-1
 200 500 l 1,26,-1
 100 500 l 1,27,-1
 100 900 l 1,8,-1
EndSplineSet
EndChar

StartChar: Zcaron
Encoding: 142 381 222
Width: 800
Flags: W
LayerCount: 2
Back
SplineSet
100 1200 m 1,0,-1
 300 1200 l 1,1,-1
 300 1100 l 1,2,-1
 400 1100 l 1,3,-1
 400 1200 l 1,4,-1
 600 1200 l 1,5,-1
 600 1100 l 1,6,-1
 500 1100 l 1,7,-1
 500 1000 l 1,8,-1
 400 1000 l 1,9,-1
 400 900 l 1,10,-1
 700 900 l 1,11,-1
 700 700 l 1,12,-1
 600 700 l 1,13,-1
 600 600 l 1,14,-1
 500 600 l 1,15,-1
 500 500 l 1,16,-1
 400 500 l 1,17,-1
 400 400 l 1,18,-1
 300 400 l 1,19,-1
 300 300 l 1,20,-1
 200 300 l 1,21,-1
 200 100 l 1,22,-1
 500 100 l 1,23,-1
 500 200 l 1,24,-1
 600 200 l 1,25,-1
 600 300 l 1,26,-1
 700 300 l 1,27,-1
 700 0 l 1,28,-1
 0 0 l 1,29,-1
 0 300 l 1,30,-1
 100 300 l 1,31,-1
 100 400 l 1,32,-1
 200 400 l 1,33,-1
 200 500 l 1,34,-1
 300 500 l 1,35,-1
 300 600 l 1,36,-1
 400 600 l 1,37,-1
 400 700 l 1,38,-1
 500 700 l 1,39,-1
 500 800 l 1,40,-1
 200 800 l 1,41,-1
 200 700 l 1,42,-1
 100 700 l 1,43,-1
 100 600 l 1,44,-1
 0 600 l 1,45,-1
 0 900 l 1,46,-1
 300 900 l 1,47,-1
 300 1000 l 1,48,-1
 200 1000 l 1,49,-1
 200 1100 l 1,50,-1
 100 1100 l 1,51,-1
 100 1200 l 1,0,-1
EndSplineSet
EndChar

StartChar: florin
Encoding: 131 402 224
Width: 800
Flags: W
LayerCount: 2
Back
SplineSet
400 1000 m 1,0,-1
 700 1000 l 1,1,-1
 700 900 l 1,2,-1
 800 900 l 1,3,-1
 800 800 l 1,4,-1
 600 800 l 1,5,-1
 600 900 l 1,6,-1
 500 900 l 1,7,-1
 500 600 l 1,8,-1
 700 600 l 1,9,-1
 700 500 l 1,10,-1
 500 500 l 1,11,-1
 500 -200 l 1,12,-1
 400 -200 l 1,13,-1
 400 -300 l 1,14,-1
 100 -300 l 1,15,-1
 100 -200 l 1,16,-1
 0 -200 l 1,17,-1
 0 -100 l 1,18,-1
 200 -100 l 1,19,-1
 200 -200 l 1,20,-1
 300 -200 l 1,21,-1
 300 500 l 1,22,-1
 100 500 l 1,23,-1
 100 600 l 1,24,-1
 300 600 l 1,25,-1
 300 900 l 1,26,-1
 400 900 l 1,27,-1
 400 1000 l 1,0,-1
EndSplineSet
EndChar

StartChar: circumflex
Encoding: 136 710 225
Width: 800
Flags: W
LayerCount: 2
Back
SplineSet
300 1100 m 1,0,-1
 500 1100 l 1,1,-1
 500 1000 l 1,2,-1
 600 1000 l 1,3,-1
 600 900 l 1,4,-1
 700 900 l 1,5,-1
 700 800 l 1,6,-1
 500 800 l 1,7,-1
 500 900 l 1,8,-1
 300 900 l 1,9,-1
 300 800 l 1,10,-1
 100 800 l 1,11,-1
 100 900 l 1,12,-1
 200 900 l 1,13,-1
 200 1000 l 1,14,-1
 300 1000 l 1,15,-1
 300 1100 l 1,0,-1
EndSplineSet
EndChar

StartChar: caron
Encoding: -1 711 226
Width: 1600
LayerCount: 2
Back
SplineSet
100 1100 m 1,0,-1
 300 1100 l 1,1,-1
 300 1000 l 1,2,-1
 500 1000 l 1,3,-1
 500 1100 l 1,4,-1
 700 1100 l 1,5,-1
 700 1000 l 1,6,-1
 600 1000 l 1,7,-1
 600 900 l 1,8,-1
 500 900 l 1,9,-1
 500 800 l 1,10,-1
 300 800 l 1,11,-1
 300 900 l 1,12,-1
 200 900 l 1,13,-1
 200 1000 l 1,14,-1
 100 1000 l 1,15,-1
 100 1100 l 1,0,-1
EndSplineSet
EndChar

StartChar: breve
Encoding: -1 728 227
Width: 1600
LayerCount: 2
Back
SplineSet
100 1100 m 1,0,-1
 300 1100 l 1,1,-1
 300 1000 l 1,2,-1
 500 1000 l 1,3,-1
 500 1100 l 1,4,-1
 700 1100 l 1,5,-1
 700 1000 l 1,6,-1
 600 1000 l 1,7,-1
 600 900 l 1,8,-1
 200 900 l 1,9,-1
 200 1000 l 1,10,-1
 100 1000 l 1,11,-1
 100 1100 l 1,0,-1
EndSplineSet
EndChar

StartChar: ring
Encoding: -1 730 228
Width: 1600
LayerCount: 2
Back
SplineSet
300 1100 m 1,0,-1
 500 1100 l 1,1,-1
 500 1000 l 1,2,-1
 300 1000 l 1,3,-1
 300 1100 l 1,0,-1
200 1000 m 1,4,-1
 300 1000 l 1,5,-1
 300 900 l 1,6,-1
 200 900 l 1,7,-1
 200 1000 l 1,4,-1
500 1000 m 1,8,-1
 600 1000 l 1,9,-1
 600 900 l 1,10,-1
 500 900 l 1,11,-1
 500 1000 l 1,8,-1
300 900 m 1,12,-1
 500 900 l 1,13,-1
 500 800 l 1,14,-1
 300 800 l 1,15,-1
 300 900 l 1,12,-1
EndSplineSet
EndChar

StartChar: quoteleft
Encoding: 145 8216 232
Width: 800
Flags: W
LayerCount: 2
Back
SplineSet
400 1100 m 1,0,-1
 500 1100 l 1,1,-1
 500 1000 l 1,2,-1
 400 1000 l 1,3,-1
 400 1100 l 1,0,-1
300 1000 m 1,4,-1
 400 1000 l 1,5,-1
 400 900 l 1,6,-1
 500 900 l 1,7,-1
 500 700 l 1,8,-1
 300 700 l 1,9,-1
 300 1000 l 1,4,-1
EndSplineSet
EndChar

StartChar: quoteright
Encoding: 146 8217 233
Width: 800
Flags: W
LayerCount: 2
Back
SplineSet
300 1100 m 1,0,-1
 500 1100 l 1,1,-1
 500 800 l 1,2,-1
 400 800 l 1,3,-1
 400 900 l 1,4,-1
 300 900 l 1,5,-1
 300 1100 l 1,0,-1
300 800 m 1,6,-1
 400 800 l 1,7,-1
 400 700 l 1,8,-1
 300 700 l 1,9,-1
 300 800 l 1,6,-1
EndSplineSet
EndChar

StartChar: dagger
Encoding: 134 8224 238
Width: 800
Flags: W
LayerCount: 2
Back
SplineSet
300 1000 m 1,0,-1
 500 1000 l 1,1,-1
 500 700 l 1,2,-1
 700 700 l 1,3,-1
 700 600 l 1,4,-1
 500 600 l 1,5,-1
 500 0 l 1,6,-1
 300 0 l 1,7,-1
 300 600 l 1,8,-1
 100 600 l 1,9,-1
 100 700 l 1,10,-1
 300 700 l 1,11,-1
 300 1000 l 1,0,-1
EndSplineSet
EndChar

StartChar: daggerdbl
Encoding: 135 8225 239
Width: 800
Flags: W
LayerCount: 2
Back
SplineSet
300 1000 m 1,0,-1
 500 1000 l 1,1,-1
 500 700 l 1,2,-1
 700 700 l 1,3,-1
 700 600 l 1,4,-1
 500 600 l 1,5,-1
 500 400 l 1,6,-1
 700 400 l 1,7,-1
 700 300 l 1,8,-1
 500 300 l 1,9,-1
 500 0 l 1,10,-1
 300 0 l 1,11,-1
 300 300 l 1,12,-1
 100 300 l 1,13,-1
 100 400 l 1,14,-1
 300 400 l 1,15,-1
 300 600 l 1,16,-1
 100 600 l 1,17,-1
 100 700 l 1,18,-1
 300 700 l 1,19,-1
 300 1000 l 1,0,-1
EndSplineSet
EndChar

StartChar: bullet
Encoding: 149 8226 240
Width: 800
Flags: W
LayerCount: 2
Back
SplineSet
300 600 m 1,0,-1
 500 600 l 1,1,-1
 500 500 l 1,2,-1
 600 500 l 1,3,-1
 600 300 l 1,4,-1
 500 300 l 1,5,-1
 500 200 l 1,6,-1
 300 200 l 1,7,-1
 300 300 l 1,8,-1
 200 300 l 1,9,-1
 200 500 l 1,10,-1
 300 500 l 1,11,-1
 300 600 l 1,0,-1
EndSplineSet
EndChar

StartChar: perthousand
Encoding: 137 8240 242
Width: 800
Flags: W
LayerCount: 2
Back
SplineSet
100 1000 m 1,0,-1
 200 1000 l 1,1,-1
 200 900 l 1,2,-1
 100 900 l 1,3,-1
 100 1000 l 1,0,-1
0 900 m 1,4,-1
 100 900 l 1,5,-1
 100 700 l 1,6,-1
 0 700 l 1,7,-1
 0 900 l 1,4,-1
200 900 m 1,8,-1
 300 900 l 1,9,-1
 300 700 l 1,10,-1
 200 700 l 1,11,-1
 200 900 l 1,8,-1
100 700 m 1,12,-1
 200 700 l 1,13,-1
 200 600 l 1,14,-1
 100 600 l 1,15,-1
 100 700 l 1,12,-1
500 800 m 1,16,-1
 600 800 l 1,17,-1
 600 700 l 1,18,-1
 500 700 l 1,19,-1
 500 800 l 1,16,-1
400 700 m 1,20,-1
 500 700 l 1,21,-1
 500 600 l 1,22,-1
 400 600 l 1,23,-1
 400 700 l 1,20,-1
300 600 m 1,24,-1
 400 600 l 1,25,-1
 400 500 l 1,26,-1
 300 500 l 1,27,-1
 300 600 l 1,24,-1
200 500 m 1,28,-1
 300 500 l 1,29,-1
 300 400 l 1,30,-1
 200 400 l 1,31,-1
 200 500 l 1,28,-1
100 400 m 1,32,-1
 200 400 l 1,33,-1
 200 300 l 1,34,-1
 100 300 l 1,35,-1
 100 400 l 1,32,-1
0 300 m 1,36,-1
 100 300 l 1,37,-1
 100 200 l 1,38,-1
 0 200 l 1,39,-1
 0 300 l 1,36,-1
300 400 m 1,40,-1
 400 400 l 1,41,-1
 400 300 l 1,42,-1
 300 300 l 1,43,-1
 300 400 l 1,40,-1
500 400 m 1,44,-1
 600 400 l 1,45,-1
 600 300 l 1,46,-1
 500 300 l 1,47,-1
 500 400 l 1,44,-1
200 300 m 1,48,-1
 300 300 l 1,49,-1
 300 100 l 1,50,-1
 200 100 l 1,51,-1
 200 300 l 1,48,-1
400 300 m 1,52,-1
 500 300 l 1,53,-1
 500 100 l 1,54,-1
 400 100 l 1,55,-1
 400 300 l 1,52,-1
600 300 m 1,56,-1
 700 300 l 1,57,-1
 700 100 l 1,58,-1
 600 100 l 1,59,-1
 600 300 l 1,56,-1
300 100 m 1,60,-1
 400 100 l 1,61,-1
 400 0 l 1,62,-1
 300 0 l 1,63,-1
 300 100 l 1,60,-1
500 100 m 1,64,-1
 600 100 l 1,65,-1
 600 0 l 1,66,-1
 500 0 l 1,67,-1
 500 100 l 1,64,-1
EndSplineSet
EndChar

StartChar: guilsinglleft
Encoding: 139 8249 243
Width: 800
Flags: W
LayerCount: 2
Back
SplineSet
400 700 m 1,0,-1
 600 700 l 1,1,-1
 600 600 l 1,2,-1
 500 600 l 1,3,-1
 500 500 l 1,4,-1
 400 500 l 1,5,-1
 400 400 l 1,6,-1
 500 400 l 1,7,-1
 500 300 l 1,8,-1
 600 300 l 1,9,-1
 600 200 l 1,10,-1
 400 200 l 1,11,-1
 400 300 l 1,12,-1
 300 300 l 1,13,-1
 300 400 l 1,14,-1
 200 400 l 1,15,-1
 200 500 l 1,16,-1
 300 500 l 1,17,-1
 300 600 l 1,18,-1
 400 600 l 1,19,-1
 400 700 l 1,0,-1
EndSplineSet
EndChar

StartChar: guilsinglright
Encoding: 155 8250 244
Width: 800
Flags: W
LayerCount: 2
Back
SplineSet
200 700 m 1,0,-1
 400 700 l 1,1,-1
 400 600 l 1,2,-1
 500 600 l 1,3,-1
 500 500 l 1,4,-1
 600 500 l 1,5,-1
 600 400 l 1,6,-1
 500 400 l 1,7,-1
 500 300 l 1,8,-1
 400 300 l 1,9,-1
 400 200 l 1,10,-1
 200 200 l 1,11,-1
 200 300 l 1,12,-1
 300 300 l 1,13,-1
 300 400 l 1,14,-1
 400 400 l 1,15,-1
 400 500 l 1,16,-1
 300 500 l 1,17,-1
 300 600 l 1,18,-1
 200 600 l 1,19,-1
 200 700 l 1,0,-1
EndSplineSet
EndChar

StartChar: Euro
Encoding: 128 8364 245
Width: 800
Flags: W
LayerCount: 2
Back
SplineSet
200 1000 m 1,0,-1
 600 1000 l 1,1,-1
 600 900 l 1,2,-1
 700 900 l 1,3,-1
 700 700 l 1,4,-1
 500 700 l 1,5,-1
 500 900 l 1,6,-1
 300 900 l 1,7,-1
 300 700 l 1,8,-1
 500 700 l 1,9,-1
 500 600 l 1,10,-1
 300 600 l 1,11,-1
 300 400 l 1,12,-1
 400 400 l 1,13,-1
 400 300 l 1,14,-1
 300 300 l 1,15,-1
 300 100 l 1,16,-1
 500 100 l 1,17,-1
 500 300 l 1,18,-1
 700 300 l 1,19,-1
 700 100 l 1,20,-1
 600 100 l 1,21,-1
 600 0 l 1,22,-1
 200 0 l 1,23,-1
 200 100 l 1,24,-1
 100 100 l 1,25,-1
 100 300 l 1,26,-1
 0 300 l 1,27,-1
 0 400 l 1,28,-1
 100 400 l 1,29,-1
 100 600 l 1,30,-1
 0 600 l 1,31,-1
 0 700 l 1,32,-1
 100 700 l 1,33,-1
 100 900 l 1,34,-1
 200 900 l 1,35,-1
 200 1000 l 1,0,-1
EndSplineSet
EndChar

StartChar: trademark
Encoding: 153 8482 246
Width: 800
Flags: W
LayerCount: 2
Back
SplineSet
0 1000 m 1,0,-1
 400 1000 l 1,1,-1
 400 900 l 1,2,-1
 500 900 l 1,3,-1
 500 800 l 1,4,-1
 400 800 l 1,5,-1
 400 500 l 1,6,-1
 300 500 l 1,7,-1
 300 900 l 1,8,-1
 200 900 l 1,9,-1
 200 500 l 1,10,-1
 100 500 l 1,11,-1
 100 900 l 1,12,-1
 0 900 l 1,13,-1
 0 1000 l 1,0,-1
700 1000 m 1,14,-1
 800 1000 l 1,15,-1
 800 500 l 1,16,-1
 700 500 l 1,17,-1
 700 800 l 1,18,-1
 600 800 l 1,19,-1
 600 900 l 1,20,-1
 700 900 l 1,21,-1
 700 1000 l 1,14,-1
500 800 m 1,22,-1
 600 800 l 1,23,-1
 600 600 l 1,24,-1
 500 600 l 1,25,-1
 500 800 l 1,22,-1
EndSplineSet
EndChar

